<svg width="1440" height="745" viewBox="0 0 1440 745" fill="none" xmlns="http://www.w3.org/2000/svg">
<rect y="1" width="1439" height="744" fill="#FFFF"/>
<mask id="mask0" mask-type="alpha" maskUnits="userSpaceOnUse" x="1" y="0" width="1439" height="745">
<rect x="1" width="1439" height="745" fill="url(#paint0_linear)"/>
</mask>
<g mask="url(#mask0)">
<line y1="-0.58653" x2="1695.51" y2="-0.58653" transform="matrix(0.703952 -0.710248 0.703952 0.710248 -440.95 474.533)" stroke="#EAEAEA" stroke-width="1.17306"/>
<line y1="-0.58653" x2="1695.51" y2="-0.58653" transform="matrix(0.703952 -0.710248 0.703952 0.710248 -422.744 492.903)" stroke="#EAEAEA" stroke-width="1.17306"/>
<line y1="-0.58653" x2="1695.51" y2="-0.58653" transform="matrix(0.703952 -0.710248 0.703952 0.710248 -404.537 511.273)" stroke="#EAEAEA" stroke-width="1.17306"/>
<line y1="-0.58653" x2="1695.51" y2="-0.58653" transform="matrix(0.703952 -0.710248 0.703952 0.710248 -386.33 529.643)" stroke="#EAEAEA" stroke-width="1.17306"/>
<line y1="-0.58653" x2="1695.51" y2="-0.58653" transform="matrix(0.703952 -0.710248 0.703952 0.710248 -368.122 548.012)" stroke="#EAEAEA" stroke-width="1.17306"/>
<line y1="-0.58653" x2="1695.51" y2="-0.58653" transform="matrix(0.703952 -0.710248 0.703952 0.710248 -349.916 566.382)" stroke="#EAEAEA" stroke-width="1.17306"/>
<line y1="-0.58653" x2="1695.51" y2="-0.58653" transform="matrix(0.703952 -0.710248 0.703952 0.710248 -331.71 584.751)" stroke="#EAEAEA" stroke-width="1.17306"/>
<line y1="-0.58653" x2="1695.51" y2="-0.58653" transform="matrix(0.703952 -0.710248 0.703952 0.710248 -313.503 603.121)" stroke="#EAEAEA" stroke-width="1.17306"/>
<line y1="-0.58653" x2="1695.51" y2="-0.58653" transform="matrix(0.703952 -0.710248 0.703952 0.710248 -295.296 621.491)" stroke="#EAEAEA" stroke-width="1.17306"/>
<line y1="-0.58653" x2="1695.51" y2="-0.58653" transform="matrix(0.703952 -0.710248 0.703952 0.710248 -277.089 639.861)" stroke="#EAEAEA" stroke-width="1.17306"/>
<line y1="-0.58653" x2="1695.51" y2="-0.58653" transform="matrix(0.703952 -0.710248 0.703952 0.710248 -258.882 658.23)" stroke="#EAEAEA" stroke-width="1.17306"/>
<line y1="-0.58653" x2="1695.51" y2="-0.58653" transform="matrix(0.703952 -0.710248 0.703952 0.710248 -240.676 676.6)" stroke="#EAEAEA" stroke-width="1.17306"/>
<line y1="-0.58653" x2="1695.51" y2="-0.58653" transform="matrix(0.703952 -0.710248 0.703952 0.710248 -222.468 694.969)" stroke="#EAEAEA" stroke-width="1.17306"/>
<line y1="-0.58653" x2="1695.51" y2="-0.58653" transform="matrix(0.703952 -0.710248 0.703952 0.710248 -204.263 713.339)" stroke="#EAEAEA" stroke-width="1.17306"/>
<line y1="-0.58653" x2="1695.51" y2="-0.58653" transform="matrix(0.703952 -0.710248 0.703952 0.710248 -186.056 731.709)" stroke="#EAEAEA" stroke-width="1.17306"/>
<line y1="-0.58653" x2="1695.51" y2="-0.58653" transform="matrix(0.703952 -0.710248 0.703952 0.710248 -167.848 750.079)" stroke="#EAEAEA" stroke-width="1.17306"/>
<line y1="-0.58653" x2="1695.51" y2="-0.58653" transform="matrix(0.703952 -0.710248 0.703952 0.710248 -149.642 768.448)" stroke="#EAEAEA" stroke-width="1.17306"/>
<line y1="-0.58653" x2="1695.51" y2="-0.58653" transform="matrix(0.703952 -0.710248 0.703952 0.710248 -131.434 786.818)" stroke="#EAEAEA" stroke-width="1.17306"/>
<line y1="-0.58653" x2="1695.51" y2="-0.58653" transform="matrix(0.703952 -0.710248 0.703952 0.710248 -113.228 805.187)" stroke="#EAEAEA" stroke-width="1.17306"/>
<line y1="-0.58653" x2="1695.51" y2="-0.58653" transform="matrix(0.703952 -0.710248 0.703952 0.710248 -95.0215 823.557)" stroke="#EAEAEA" stroke-width="1.17306"/>
<line y1="-0.58653" x2="1695.51" y2="-0.58653" transform="matrix(0.703952 -0.710248 0.703952 0.710248 -76.8145 841.927)" stroke="#EAEAEA" stroke-width="1.17306"/>
<line y1="-0.58653" x2="1695.51" y2="-0.58653" transform="matrix(0.703952 -0.710248 0.703952 0.710248 -58.6075 860.296)" stroke="#EAEAEA" stroke-width="1.17306"/>
<line y1="-0.58653" x2="1695.51" y2="-0.58653" transform="matrix(0.703952 -0.710248 0.703952 0.710248 -40.3995 878.666)" stroke="#EAEAEA" stroke-width="1.17306"/>
<line y1="-0.58653" x2="1695.51" y2="-0.58653" transform="matrix(0.703952 -0.710248 0.703952 0.710248 -22.1934 897.036)" stroke="#EAEAEA" stroke-width="1.17306"/>
<line y1="-0.58653" x2="1695.51" y2="-0.58653" transform="matrix(0.703952 -0.710248 0.703952 0.710248 -3.98737 915.405)" stroke="#EAEAEA" stroke-width="1.17306"/>
<line y1="-0.58653" x2="1695.51" y2="-0.58653" transform="matrix(0.703952 -0.710248 0.703952 0.710248 14.2206 933.775)" stroke="#EAEAEA" stroke-width="1.17306"/>
<line y1="-0.58653" x2="1695.51" y2="-0.58653" transform="matrix(0.703952 -0.710248 0.703952 0.710248 32.4267 952.145)" stroke="#EAEAEA" stroke-width="1.17306"/>
<line y1="-0.58653" x2="1695.51" y2="-0.58653" transform="matrix(0.703952 -0.710248 0.703952 0.710248 50.6337 970.514)" stroke="#EAEAEA" stroke-width="1.17306"/>
<line y1="-0.58653" x2="1695.51" y2="-0.58653" transform="matrix(0.703952 -0.710248 0.703952 0.710248 68.8408 988.884)" stroke="#EAEAEA" stroke-width="1.17306"/>
<line y1="-0.58653" x2="1695.51" y2="-0.58653" transform="matrix(0.703952 -0.710248 0.703952 0.710248 87.0468 1007.25)" stroke="#EAEAEA" stroke-width="1.17306"/>
<line y1="-0.58653" x2="1695.51" y2="-0.58653" transform="matrix(0.703952 -0.710248 0.703952 0.710248 105.255 1025.62)" stroke="#EAEAEA" stroke-width="1.17306"/>
<line y1="-0.58653" x2="1695.51" y2="-0.58653" transform="matrix(0.703952 -0.710248 0.703952 0.710248 123.461 1043.99)" stroke="#EAEAEA" stroke-width="1.17306"/>
<line y1="-0.58653" x2="1695.51" y2="-0.58653" transform="matrix(0.703952 -0.710248 0.703952 0.710248 141.669 1062.36)" stroke="#EAEAEA" stroke-width="1.17306"/>
<line y1="-0.58653" x2="1695.51" y2="-0.58653" transform="matrix(0.703952 -0.710248 0.703952 0.710248 159.876 1080.73)" stroke="#EAEAEA" stroke-width="1.17306"/>
<line y1="-0.58653" x2="1695.51" y2="-0.58653" transform="matrix(0.703952 -0.710248 0.703952 0.710248 178.081 1099.1)" stroke="#EAEAEA" stroke-width="1.17306"/>
<line y1="-0.58653" x2="1695.51" y2="-0.58653" transform="matrix(0.703952 -0.710248 0.703952 0.710248 196.289 1117.47)" stroke="#EAEAEA" stroke-width="1.17306"/>
<line y1="-0.58653" x2="1695.51" y2="-0.58653" transform="matrix(0.703952 -0.710248 0.703952 0.710248 214.495 1135.84)" stroke="#EAEAEA" stroke-width="1.17306"/>
<line y1="-0.58653" x2="1695.51" y2="-0.58653" transform="matrix(0.703952 -0.710248 0.703952 0.710248 232.703 1154.21)" stroke="#EAEAEA" stroke-width="1.17306"/>
<line y1="-0.58653" x2="1695.51" y2="-0.58653" transform="matrix(0.703952 -0.710248 0.703952 0.710248 250.909 1172.58)" stroke="#EAEAEA" stroke-width="1.17306"/>
<line y1="-0.58653" x2="1695.51" y2="-0.58653" transform="matrix(0.703952 -0.710248 0.703952 0.710248 269.115 1190.95)" stroke="#EAEAEA" stroke-width="1.17306"/>
<line y1="-0.58653" x2="1695.51" y2="-0.58653" transform="matrix(0.703952 -0.710248 0.703952 0.710248 287.322 1209.32)" stroke="#EAEAEA" stroke-width="1.17306"/>
<line y1="-0.58653" x2="1695.51" y2="-0.58653" transform="matrix(0.703952 -0.710248 0.703952 0.710248 305.529 1227.69)" stroke="#EAEAEA" stroke-width="1.17306"/>
<line y1="-0.58653" x2="1695.51" y2="-0.58653" transform="matrix(0.703952 -0.710248 0.703952 0.710248 323.735 1246.06)" stroke="#EAEAEA" stroke-width="1.17306"/>
<line y1="-0.58653" x2="1695.51" y2="-0.58653" transform="matrix(0.703952 -0.710248 0.703952 0.710248 341.943 1264.43)" stroke="#EAEAEA" stroke-width="1.17306"/>
<line y1="-0.58653" x2="1695.51" y2="-0.58653" transform="matrix(0.703952 -0.710248 0.703952 0.710248 360.15 1282.8)" stroke="#EAEAEA" stroke-width="1.17306"/>
<line y1="-0.58653" x2="1695.51" y2="-0.58653" transform="matrix(0.703952 -0.710248 0.703952 0.710248 378.357 1301.17)" stroke="#EAEAEA" stroke-width="1.17306"/>
<line y1="-0.58653" x2="1695.51" y2="-0.58653" transform="matrix(0.703952 -0.710248 0.703952 0.710248 396.563 1319.54)" stroke="#EAEAEA" stroke-width="1.17306"/>
<line y1="-0.58653" x2="1695.51" y2="-0.58653" transform="matrix(0.703952 -0.710248 0.703952 0.710248 414.77 1337.91)" stroke="#EAEAEA" stroke-width="1.17306"/>
<line y1="-0.58653" x2="1695.51" y2="-0.58653" transform="matrix(0.703952 -0.710248 0.703952 0.710248 432.978 1356.28)" stroke="#EAEAEA" stroke-width="1.17306"/>
<line y1="-0.58653" x2="1695.51" y2="-0.58653" transform="matrix(0.703952 -0.710248 0.703952 0.710248 451.184 1374.65)" stroke="#EAEAEA" stroke-width="1.17306"/>
<line y1="-0.58653" x2="1695.51" y2="-0.58653" transform="matrix(0.703952 -0.710248 0.703952 0.710248 469.392 1393.02)" stroke="#EAEAEA" stroke-width="1.17306"/>
<line y1="-0.58653" x2="1695.51" y2="-0.58653" transform="matrix(0.703952 -0.710248 0.703952 0.710248 487.598 1411.39)" stroke="#EAEAEA" stroke-width="1.17306"/>
<line y1="-0.58653" x2="1695.51" y2="-0.58653" transform="matrix(0.703952 -0.710248 0.703952 0.710248 505.804 1429.76)" stroke="#EAEAEA" stroke-width="1.17306"/>
<line y1="-0.58653" x2="1695.51" y2="-0.58653" transform="matrix(0.703952 -0.710248 0.703952 0.710248 524.013 1448.13)" stroke="#EAEAEA" stroke-width="1.17306"/>
<line y1="-0.58653" x2="1695.51" y2="-0.58653" transform="matrix(0.703952 -0.710248 0.703952 0.710248 542.218 1466.5)" stroke="#EAEAEA" stroke-width="1.17306"/>
<line y1="-0.58653" x2="1695.51" y2="-0.58653" transform="matrix(0.703952 -0.710248 0.703952 0.710248 560.426 1484.87)" stroke="#EAEAEA" stroke-width="1.17306"/>
<line y1="-0.58653" x2="1695.51" y2="-0.58653" transform="matrix(0.703952 -0.710248 0.703952 0.710248 578.632 1503.23)" stroke="#EAEAEA" stroke-width="1.17306"/>
<line y1="-0.58653" x2="1695.51" y2="-0.58653" transform="matrix(0.703952 -0.710248 0.703952 0.710248 596.839 1521.6)" stroke="#EAEAEA" stroke-width="1.17306"/>
<line y1="-0.58653" x2="1695.51" y2="-0.58653" transform="matrix(0.703952 -0.710248 0.703952 0.710248 615.046 1539.97)" stroke="#EAEAEA" stroke-width="1.17306"/>
<line y1="-0.58653" x2="1695.51" y2="-0.58653" transform="matrix(0.703952 -0.710248 0.703952 0.710248 633.253 1558.34)" stroke="#EAEAEA" stroke-width="1.17306"/>
<line y1="-0.58653" x2="1695.51" y2="-0.58653" transform="matrix(0.703952 -0.710248 0.703952 0.710248 651.459 1576.71)" stroke="#EAEAEA" stroke-width="1.17306"/>
<line y1="-0.58653" x2="1695.51" y2="-0.58653" transform="matrix(0.703952 -0.710248 0.703952 0.710248 669.666 1595.08)" stroke="#EAEAEA" stroke-width="1.17306"/>
<line y1="-0.58653" x2="1695.51" y2="-0.58653" transform="matrix(0.703952 -0.710248 0.703952 0.710248 687.872 1613.45)" stroke="#EAEAEA" stroke-width="1.17306"/>
<line y1="-0.58653" x2="1695.51" y2="-0.58653" transform="matrix(0.703952 0.710248 -0.703952 0.710248 687.873 -729.699)" stroke="#EAEAEA" stroke-width="1.17306"/>
<line y1="-0.58653" x2="1695.51" y2="-0.58653" transform="matrix(0.703952 0.710248 -0.703952 0.710248 669.666 -711.33)" stroke="#EAEAEA" stroke-width="1.17306"/>
<line y1="-0.58653" x2="1695.51" y2="-0.58653" transform="matrix(0.703952 0.710248 -0.703952 0.710248 651.458 -692.96)" stroke="#EAEAEA" stroke-width="1.17306"/>
<line y1="-0.58653" x2="1695.51" y2="-0.58653" transform="matrix(0.703952 0.710248 -0.703952 0.710248 633.253 -674.591)" stroke="#EAEAEA" stroke-width="1.17306"/>
<line y1="-0.58653" x2="1695.51" y2="-0.58653" transform="matrix(0.703952 0.710248 -0.703952 0.710248 615.044 -656.221)" stroke="#EAEAEA" stroke-width="1.17306"/>
<line y1="-0.58653" x2="1695.51" y2="-0.58653" transform="matrix(0.703952 0.710248 -0.703952 0.710248 596.839 -637.851)" stroke="#EAEAEA" stroke-width="1.17306"/>
<line y1="-0.58653" x2="1695.51" y2="-0.58653" transform="matrix(0.703952 0.710248 -0.703952 0.710248 578.632 -619.482)" stroke="#EAEAEA" stroke-width="1.17306"/>
<line y1="-0.58653" x2="1695.51" y2="-0.58653" transform="matrix(0.703952 0.710248 -0.703952 0.710248 560.424 -601.112)" stroke="#EAEAEA" stroke-width="1.17306"/>
<line y1="-0.58653" x2="1695.51" y2="-0.58653" transform="matrix(0.703952 0.710248 -0.703952 0.710248 542.218 -582.742)" stroke="#EAEAEA" stroke-width="1.17306"/>
<line y1="-0.58653" x2="1695.51" y2="-0.58653" transform="matrix(0.703952 0.710248 -0.703952 0.710248 524.01 -564.373)" stroke="#EAEAEA" stroke-width="1.17306"/>
<line y1="-0.58653" x2="1695.51" y2="-0.58653" transform="matrix(0.703952 0.710248 -0.703952 0.710248 505.805 -546.003)" stroke="#EAEAEA" stroke-width="1.17306"/>
<line y1="-0.58653" x2="1695.51" y2="-0.58653" transform="matrix(0.703952 0.710248 -0.703952 0.710248 487.598 -527.634)" stroke="#EAEAEA" stroke-width="1.17306"/>
<line y1="-0.58653" x2="1695.51" y2="-0.58653" transform="matrix(0.703952 0.710248 -0.703952 0.710248 469.391 -509.264)" stroke="#EAEAEA" stroke-width="1.17306"/>
<line y1="-0.58653" x2="1695.51" y2="-0.58653" transform="matrix(0.703952 0.710248 -0.703952 0.710248 451.184 -490.894)" stroke="#EAEAEA" stroke-width="1.17306"/>
<line y1="-0.58653" x2="1695.51" y2="-0.58653" transform="matrix(0.703952 0.710248 -0.703952 0.710248 432.978 -472.525)" stroke="#EAEAEA" stroke-width="1.17306"/>
<line y1="-0.58653" x2="1695.51" y2="-0.58653" transform="matrix(0.703952 0.710248 -0.703952 0.710248 414.77 -454.155)" stroke="#EAEAEA" stroke-width="1.17306"/>
<line y1="-0.58653" x2="1695.51" y2="-0.58653" transform="matrix(0.703952 0.710248 -0.703952 0.710248 396.564 -435.785)" stroke="#EAEAEA" stroke-width="1.17306"/>
<line y1="-0.58653" x2="1695.51" y2="-0.58653" transform="matrix(0.703952 0.710248 -0.703952 0.710248 378.356 -417.415)" stroke="#EAEAEA" stroke-width="1.17306"/>
<line y1="-0.58653" x2="1695.51" y2="-0.58653" transform="matrix(0.703952 0.710248 -0.703952 0.710248 360.149 -399.046)" stroke="#EAEAEA" stroke-width="1.17306"/>
<line y1="-0.58653" x2="1695.51" y2="-0.58653" transform="matrix(0.703952 0.710248 -0.703952 0.710248 341.943 -380.676)" stroke="#EAEAEA" stroke-width="1.17306"/>
<line y1="-0.58653" x2="1695.51" y2="-0.58653" transform="matrix(0.703952 0.710248 -0.703952 0.710248 323.735 -362.307)" stroke="#EAEAEA" stroke-width="1.17306"/>
<line y1="-0.58653" x2="1695.51" y2="-0.58653" transform="matrix(0.703952 0.710248 -0.703952 0.710248 305.529 -343.937)" stroke="#EAEAEA" stroke-width="1.17306"/>
<line y1="-0.58653" x2="1695.51" y2="-0.58653" transform="matrix(0.703952 0.710248 -0.703952 0.710248 287.321 -325.567)" stroke="#EAEAEA" stroke-width="1.17306"/>
<line y1="-0.58653" x2="1695.51" y2="-0.58653" transform="matrix(0.703952 0.710248 -0.703952 0.710248 269.116 -307.198)" stroke="#EAEAEA" stroke-width="1.17306"/>
<line y1="-0.58653" x2="1695.51" y2="-0.58653" transform="matrix(0.703952 0.710248 -0.703952 0.710248 250.909 -288.828)" stroke="#EAEAEA" stroke-width="1.17306"/>
<line y1="-0.58653" x2="1695.51" y2="-0.58653" transform="matrix(0.703952 0.710248 -0.703952 0.710248 232.701 -270.458)" stroke="#EAEAEA" stroke-width="1.17306"/>
<line y1="-0.58653" x2="1695.51" y2="-0.58653" transform="matrix(0.703952 0.710248 -0.703952 0.710248 214.495 -252.089)" stroke="#EAEAEA" stroke-width="1.17306"/>
<line y1="-0.58653" x2="1695.51" y2="-0.58653" transform="matrix(0.703952 0.710248 -0.703952 0.710248 196.287 -233.719)" stroke="#EAEAEA" stroke-width="1.17306"/>
<line y1="-0.58653" x2="1695.51" y2="-0.58653" transform="matrix(0.703952 0.710248 -0.703952 0.710248 178.081 -215.349)" stroke="#EAEAEA" stroke-width="1.17306"/>
<line y1="-0.58653" x2="1695.51" y2="-0.58653" transform="matrix(0.703952 0.710248 -0.703952 0.710248 159.874 -196.98)" stroke="#EAEAEA" stroke-width="1.17306"/>
<line y1="-0.58653" x2="1695.51" y2="-0.58653" transform="matrix(0.703952 0.710248 -0.703952 0.710248 141.668 -178.61)" stroke="#EAEAEA" stroke-width="1.17306"/>
<line y1="-0.58653" x2="1695.51" y2="-0.58653" transform="matrix(0.703952 0.710248 -0.703952 0.710248 123.461 -160.24)" stroke="#EAEAEA" stroke-width="1.17306"/>
<line y1="-0.58653" x2="1695.51" y2="-0.58653" transform="matrix(0.703952 0.710248 -0.703952 0.710248 105.254 -141.871)" stroke="#EAEAEA" stroke-width="1.17306"/>
<line y1="-0.58653" x2="1695.51" y2="-0.58653" transform="matrix(0.703952 0.710248 -0.703952 0.710248 87.0469 -123.501)" stroke="#EAEAEA" stroke-width="1.17306"/>
<line y1="-0.58653" x2="1695.51" y2="-0.58653" transform="matrix(0.703952 0.710248 -0.703952 0.710248 68.8408 -105.132)" stroke="#EAEAEA" stroke-width="1.17306"/>
<line y1="-0.58653" x2="1695.51" y2="-0.58653" transform="matrix(0.703952 0.710248 -0.703952 0.710248 50.6328 -86.7616)" stroke="#EAEAEA" stroke-width="1.17306"/>
<line y1="-0.58653" x2="1695.51" y2="-0.58653" transform="matrix(0.703952 0.710248 -0.703952 0.710248 32.4258 -68.3921)" stroke="#EAEAEA" stroke-width="1.17306"/>
<line y1="-0.58653" x2="1695.51" y2="-0.58653" transform="matrix(0.703952 0.710248 -0.703952 0.710248 14.2188 -50.0223)" stroke="#EAEAEA" stroke-width="1.17306"/>
<line y1="-0.58653" x2="1695.51" y2="-0.58653" transform="matrix(0.703952 0.710248 -0.703952 0.710248 -3.9873 -31.6527)" stroke="#EAEAEA" stroke-width="1.17306"/>
<line y1="-0.58653" x2="1695.51" y2="-0.58653" transform="matrix(0.703952 0.710248 -0.703952 0.710248 -22.1934 -13.2832)" stroke="#EAEAEA" stroke-width="1.17306"/>
<line y1="-0.58653" x2="1695.51" y2="-0.58653" transform="matrix(0.703952 0.710248 -0.703952 0.710248 -40.4014 5.08679)" stroke="#EAEAEA" stroke-width="1.17306"/>
<line y1="-0.58653" x2="1695.51" y2="-0.58653" transform="matrix(0.703952 0.710248 -0.703952 0.710248 -58.6074 23.4562)" stroke="#EAEAEA" stroke-width="1.17306"/>
<line y1="-0.58653" x2="1695.51" y2="-0.58653" transform="matrix(0.703952 0.710248 -0.703952 0.710248 -76.8145 41.8259)" stroke="#EAEAEA" stroke-width="1.17306"/>
<line y1="-0.58653" x2="1695.51" y2="-0.58653" transform="matrix(0.703952 0.710248 -0.703952 0.710248 -95.0225 60.1953)" stroke="#EAEAEA" stroke-width="1.17306"/>
<line y1="-0.58653" x2="1695.51" y2="-0.58653" transform="matrix(0.703952 0.710248 -0.703952 0.710248 -113.228 78.5651)" stroke="#EAEAEA" stroke-width="1.17306"/>
<line y1="-0.58653" x2="1695.51" y2="-0.58653" transform="matrix(0.703952 0.710248 -0.703952 0.710248 -131.436 96.9351)" stroke="#EAEAEA" stroke-width="1.17306"/>
<line y1="-0.58653" x2="1695.51" y2="-0.58653" transform="matrix(0.703952 0.710248 -0.703952 0.710248 -149.642 115.304)" stroke="#EAEAEA" stroke-width="1.17306"/>
<line y1="-0.58653" x2="1695.51" y2="-0.58653" transform="matrix(0.703952 0.710248 -0.703952 0.710248 -167.849 133.674)" stroke="#EAEAEA" stroke-width="1.17306"/>
<line y1="-0.58653" x2="1695.51" y2="-0.58653" transform="matrix(0.703952 0.710248 -0.703952 0.710248 -186.056 152.044)" stroke="#EAEAEA" stroke-width="1.17306"/>
<line y1="-0.58653" x2="1695.51" y2="-0.58653" transform="matrix(0.703952 0.710248 -0.703952 0.710248 -204.263 170.413)" stroke="#EAEAEA" stroke-width="1.17306"/>
<line y1="-0.58653" x2="1695.51" y2="-0.58653" transform="matrix(0.703952 0.710248 -0.703952 0.710248 -222.47 188.783)" stroke="#EAEAEA" stroke-width="1.17306"/>
<line y1="-0.58653" x2="1695.51" y2="-0.58653" transform="matrix(0.703952 0.710248 -0.703952 0.710248 -240.676 207.153)" stroke="#EAEAEA" stroke-width="1.17306"/>
<line y1="-0.58653" x2="1695.51" y2="-0.58653" transform="matrix(0.703952 0.710248 -0.703952 0.710248 -258.882 225.523)" stroke="#EAEAEA" stroke-width="1.17306"/>
<line y1="-0.58653" x2="1695.51" y2="-0.58653" transform="matrix(0.703952 0.710248 -0.703952 0.710248 -277.09 243.892)" stroke="#EAEAEA" stroke-width="1.17306"/>
<line y1="-0.58653" x2="1695.51" y2="-0.58653" transform="matrix(0.703952 0.710248 -0.703952 0.710248 -295.296 262.262)" stroke="#EAEAEA" stroke-width="1.17306"/>
<line y1="-0.58653" x2="1695.51" y2="-0.58653" transform="matrix(0.703952 0.710248 -0.703952 0.710248 -313.504 280.631)" stroke="#EAEAEA" stroke-width="1.17306"/>
<line y1="-0.58653" x2="1695.51" y2="-0.58653" transform="matrix(0.703952 0.710248 -0.703952 0.710248 -331.711 299.001)" stroke="#EAEAEA" stroke-width="1.17306"/>
<line y1="-0.58653" x2="1695.51" y2="-0.58653" transform="matrix(0.703952 0.710248 -0.703952 0.710248 -349.916 317.371)" stroke="#EAEAEA" stroke-width="1.17306"/>
<line y1="-0.58653" x2="1695.51" y2="-0.58653" transform="matrix(0.703952 0.710248 -0.703952 0.710248 -368.124 335.74)" stroke="#EAEAEA" stroke-width="1.17306"/>
<line y1="-0.58653" x2="1695.51" y2="-0.58653" transform="matrix(0.703952 0.710248 -0.703952 0.710248 -386.33 354.11)" stroke="#EAEAEA" stroke-width="1.17306"/>
<line y1="-0.58653" x2="1695.51" y2="-0.58653" transform="matrix(0.703952 0.710248 -0.703952 0.710248 -404.538 372.48)" stroke="#EAEAEA" stroke-width="1.17306"/>
<line y1="-0.58653" x2="1695.51" y2="-0.58653" transform="matrix(0.703952 0.710248 -0.703952 0.710248 -422.744 390.849)" stroke="#EAEAEA" stroke-width="1.17306"/>
<line y1="-0.58653" x2="1695.51" y2="-0.58653" transform="matrix(0.703952 0.710248 -0.703952 0.710248 -440.951 409.219)" stroke="#EAEAEA" stroke-width="1.17306"/>
</g>
<defs>
<linearGradient id="paint0_linear" x1="711" y1="-38" x2="721.003" y2="790" gradientUnits="userSpaceOnUse">
<stop stop-color="white" stop-opacity="0"/>
<stop offset="0.505208" stop-color="white"/>
<stop offset="1" stop-color="white" stop-opacity="0"/>
</linearGradient>
</defs>
</svg>
