<svg width="575" height="410" viewBox="0 0 575 410" fill="none" xmlns="http://www.w3.org/2000/svg">
<rect width="575" height="410" fill="white"/>
<path d="M352.268 254.142C352.319 254.082 352.371 254.022 352.484 254.013C358.625 252.022 364.902 250.246 370.951 248.488C383.441 244.884 396.425 241.074 408.54 235.921C429.58 226.875 444.566 214.741 453.013 199.839C453.105 199.607 453.496 199.521 453.682 199.676C453.919 199.77 454.013 200.157 453.859 200.338C445.258 215.421 430.119 227.735 408.913 236.851C396.748 242.063 383.764 245.874 371.16 249.486C365.111 251.244 358.783 253.081 352.693 255.011C352.415 255.089 352.116 254.943 352.033 254.667C352.125 254.435 352.166 254.263 352.268 254.142Z" fill="#C4D9F8"/>
<path d="M425.657 206.594C425.709 206.533 425.812 206.41 425.924 206.4C426.2 206.319 426.493 206.462 426.518 206.799L430.844 224.557C430.921 224.832 430.714 225.077 430.438 225.159C430.163 225.24 429.87 225.097 429.844 224.76L425.519 207.002C425.51 206.89 425.554 206.716 425.657 206.594Z" fill="#C4D9F8"/>
<path d="M429.634 204.205C429.685 204.144 429.789 204.022 429.901 204.012C430.177 203.93 430.47 204.073 430.495 204.41L434.803 221.945C434.88 222.22 434.733 222.516 434.397 222.547C434.121 222.628 433.829 222.485 433.803 222.148L429.555 204.665C429.487 204.501 429.53 204.328 429.634 204.205Z" fill="#C4D9F8"/>
<path d="M433.675 201.87C433.727 201.809 433.831 201.686 433.943 201.676C434.219 201.595 434.511 201.738 434.537 202.075L438.469 218.341C438.546 218.617 438.399 218.913 438.063 218.943C437.787 219.025 437.494 218.881 437.469 218.544L433.597 202.329C433.529 202.166 433.572 201.992 433.675 201.87Z" fill="#C4D9F8"/>
<path d="M437.715 199.535C437.767 199.474 437.87 199.351 437.982 199.341C438.258 199.26 438.551 199.403 438.576 199.74L442.26 214.954C442.337 215.23 442.19 215.526 441.854 215.556C441.578 215.638 441.286 215.494 441.26 215.157L437.525 200.004C437.568 199.831 437.611 199.657 437.715 199.535Z" fill="#C4D9F8"/>
<path d="M441.707 197.261C441.759 197.2 441.862 197.077 441.974 197.067C442.25 196.986 442.543 197.129 442.62 197.405L445.978 211.292C446.056 211.568 445.848 211.812 445.573 211.894C445.297 211.975 445.004 211.832 444.979 211.495L441.569 197.669C441.612 197.496 441.603 197.383 441.707 197.261Z" fill="#C4D9F8"/>
<path d="M445.694 194.875C445.745 194.814 445.849 194.692 445.961 194.682C446.237 194.6 446.53 194.744 446.555 195.08L449.426 206.975C449.503 207.25 449.296 207.495 449.02 207.576C448.744 207.658 448.452 207.514 448.426 207.178L445.555 195.283C445.547 195.171 445.59 194.998 445.694 194.875Z" fill="#C4D9F8"/>
<path d="M449.743 192.544C449.795 192.483 449.898 192.361 450.01 192.351C450.286 192.269 450.579 192.413 450.604 192.749L452.893 202.152C452.971 202.427 452.763 202.672 452.488 202.753C452.212 202.835 451.919 202.692 451.893 202.355L449.604 192.952C449.596 192.84 449.639 192.667 449.743 192.544Z" fill="#C4D9F8"/>
<path d="M429.851 224.665C429.955 224.541 430.171 224.407 430.403 224.499L447.888 229.437C448.12 229.529 448.308 229.796 448.213 230.032C448.117 230.269 447.85 230.465 447.618 230.373L430.081 225.496C429.849 225.404 429.66 225.138 429.756 224.901C429.748 224.788 429.799 224.727 429.851 224.665Z" fill="#C4D9F8"/>
<path d="M434.163 221.285C434.266 221.161 434.482 221.027 434.714 221.119L450.471 225.539C450.703 225.631 450.892 225.897 450.796 226.134C450.701 226.371 450.433 226.567 450.201 226.475L434.444 222.055C434.212 221.963 434.024 221.696 434.119 221.46C434.119 221.46 434.111 221.347 434.163 221.285Z" fill="#C4D9F8"/>
<path d="M438.25 217.921C438.354 217.798 438.57 217.664 438.802 217.755L453.064 221.749C453.296 221.841 453.484 222.108 453.389 222.344C453.293 222.581 453.026 222.777 452.794 222.685L438.532 218.691C438.3 218.599 438.111 218.333 438.207 218.096C438.147 218.045 438.198 217.983 438.25 217.921Z" fill="#C4D9F8"/>
<path d="M442.107 214.464C442.21 214.34 442.426 214.206 442.658 214.298L455.656 217.957C455.888 218.048 456.077 218.315 455.981 218.551C455.886 218.788 455.618 218.984 455.386 218.892L442.388 215.233C442.156 215.142 441.968 214.875 442.063 214.639C442.055 214.526 442.107 214.464 442.107 214.464Z" fill="#C4D9F8"/>
<path d="M445.503 210.818C445.607 210.694 445.823 210.56 446.055 210.652L458.246 214.047C458.478 214.139 458.666 214.405 458.571 214.641C458.475 214.878 458.208 215.074 457.976 214.982L445.725 211.536C445.493 211.444 445.304 211.178 445.4 210.941C445.4 210.941 445.452 210.879 445.503 210.818Z" fill="#C4D9F8"/>
<path d="M448.616 207.138C448.72 207.015 448.935 206.881 449.167 206.972L460.842 210.246C461.075 210.337 461.263 210.604 461.167 210.84C461.072 211.077 460.805 211.273 460.573 211.181L448.898 207.908C448.666 207.816 448.477 207.549 448.573 207.313C448.564 207.2 448.616 207.138 448.616 207.138Z" fill="#C4D9F8"/>
<path d="M451.156 203.281C451.26 203.157 451.475 203.023 451.707 203.115L463.554 206.429C463.786 206.521 463.975 206.787 463.879 207.024C463.784 207.26 463.516 207.456 463.284 207.364L451.437 204.05C451.205 203.959 451.017 203.692 451.112 203.456C451.052 203.405 451.104 203.343 451.156 203.281Z" fill="#C4D9F8"/>
<path d="M403.248 194.123C403.35 194.003 403.465 193.995 403.631 193.928C403.924 193.965 404.179 194.175 404.204 194.399C405.664 211.852 400.08 230.452 387.491 249.516C380.312 260.465 371.592 270.554 363.243 280.336C359.196 285.077 354.996 289.997 351.026 294.903C350.872 295.083 350.528 295.106 350.286 295.009C350.095 294.851 350.058 294.514 350.148 294.282C354.118 289.376 358.318 284.455 362.365 279.715C370.714 269.933 379.433 259.844 386.561 248.955C399.111 230.063 404.606 211.696 403.17 194.468C403.158 194.356 403.197 194.183 403.248 194.123Z" fill="#C4D9F8"/>
<path d="M385.114 214.659C385.318 214.404 385.649 214.368 385.837 214.639L398.973 227.235C399.151 227.39 399.177 227.736 398.973 227.991C398.769 228.246 398.489 228.218 398.25 228.011L385.114 215.415C384.927 215.144 384.91 214.914 385.114 214.659Z" fill="#C4D9F8"/>
<path d="M387.19 210.496C387.393 210.241 387.725 210.205 387.912 210.475L400.859 222.802C401.038 222.958 401.064 223.304 400.86 223.559C400.656 223.814 400.376 223.786 400.137 223.579L387.19 211.252C387.062 211.033 387.037 210.687 387.19 210.496Z" fill="#C4D9F8"/>
<path d="M389.325 206.385C389.529 206.131 389.86 206.095 390.048 206.365L402.046 217.861C402.225 218.016 402.31 218.414 402.046 218.617C401.842 218.872 401.561 218.844 401.323 218.637L389.325 207.141C389.138 206.871 389.172 206.576 389.325 206.385Z" fill="#C4D9F8"/>
<path d="M391.401 202.223C391.605 201.968 391.937 201.932 392.124 202.203L403.341 212.91C403.519 213.065 403.605 213.462 403.341 213.665C403.137 213.92 402.856 213.892 402.618 213.685L391.452 202.915C391.274 202.76 391.248 202.414 391.401 202.223Z" fill="#C4D9F8"/>
<path d="M393.479 198.061C393.683 197.806 394.015 197.77 394.202 198.041L404.518 207.855C404.697 208.01 404.723 208.356 404.518 208.611C404.314 208.865 404.033 208.837 403.795 208.631L393.479 198.816C393.351 198.598 393.326 198.252 393.479 198.061Z" fill="#C4D9F8"/>
<path d="M395.616 193.95C395.82 193.696 396.153 193.66 396.34 193.931L405.103 202.281C405.281 202.436 405.307 202.781 405.102 203.036C404.898 203.29 404.617 203.262 404.378 203.055L395.616 194.705C395.428 194.435 395.463 194.141 395.616 193.95Z" fill="#C4D9F8"/>
<path d="M397.694 189.788C397.899 189.534 398.232 189.499 398.419 189.769L405.331 196.396C405.51 196.551 405.595 196.947 405.33 197.149C405.125 197.403 404.844 197.375 404.605 197.169L397.694 190.542C397.566 190.323 397.54 189.978 397.694 189.788Z" fill="#C4D9F8"/>
<path d="M398.248 227.516C398.299 227.455 398.351 227.395 398.463 227.386L416.063 222.059C416.339 221.98 416.635 222.125 416.715 222.4C416.795 222.675 416.65 222.968 416.374 223.047L398.773 228.374C398.497 228.453 398.202 228.308 398.122 228.033C398.103 227.809 398.145 227.637 398.248 227.516Z" fill="#C4D9F8"/>
<path d="M400.153 222.342C400.205 222.282 400.256 222.221 400.368 222.212L416.147 217.428C416.423 217.349 416.718 217.494 416.798 217.769C416.878 218.044 416.733 218.337 416.457 218.416L400.679 223.2C400.403 223.279 400.107 223.135 400.027 222.86C400.008 222.636 400.05 222.463 400.153 222.342Z" fill="#C4D9F8"/>
<path d="M401.672 217.255C401.723 217.194 401.775 217.134 401.887 217.125L416.232 212.795C416.508 212.716 416.804 212.861 416.884 213.136C416.964 213.411 416.819 213.704 416.542 213.783L402.197 218.113C401.921 218.192 401.626 218.047 401.546 217.772C401.527 217.548 401.569 217.376 401.672 217.255Z" fill="#C4D9F8"/>
<path d="M403.085 212.287C403.136 212.226 403.188 212.166 403.3 212.156L416.376 208.212C416.653 208.133 416.948 208.278 417.028 208.553C417.108 208.828 416.963 209.121 416.687 209.2L403.611 213.145C403.334 213.224 403.039 213.079 402.959 212.804C402.94 212.58 402.982 212.408 403.085 212.287Z" fill="#C4D9F8"/>
<path d="M403.942 207.361C403.993 207.3 404.045 207.239 404.157 207.23L416.404 203.522C416.68 203.443 416.976 203.587 417.055 203.862C417.135 204.137 416.99 204.431 416.714 204.51L404.519 208.158C404.243 208.237 403.947 208.092 403.868 207.817C403.797 207.654 403.839 207.482 403.942 207.361Z" fill="#C4D9F8"/>
<path d="M404.583 202.562C404.634 202.502 404.685 202.441 404.798 202.432L416.604 198.872C416.881 198.793 417.176 198.937 417.256 199.212C417.335 199.487 417.191 199.781 416.914 199.86L405.22 203.411C404.944 203.49 404.649 203.345 404.569 203.07C404.438 202.856 404.48 202.683 404.583 202.562Z" fill="#C4D9F8"/>
<path d="M404.558 197.922C404.61 197.862 404.661 197.801 404.774 197.792L416.581 194.233C416.857 194.154 417.152 194.298 417.232 194.573C417.312 194.848 417.167 195.142 416.891 195.221L405.084 198.78C404.808 198.859 404.512 198.714 404.433 198.439C404.414 198.216 404.456 198.043 404.558 197.922Z" fill="#C4D9F8"/>
<path d="M349.546 251.752C349.598 251.691 349.702 251.569 349.814 251.559C355.377 250.495 361.044 249.31 366.486 248.144C377.759 245.722 389.42 243.209 401.08 242.163C421.484 240.334 438.435 243.556 451.578 251.636C451.811 251.728 451.897 252.116 451.741 252.299C451.586 252.482 451.258 252.625 451.077 252.472C438.167 244.483 421.449 241.353 401.269 243.162C389.609 244.208 378.06 246.711 366.787 249.133C361.345 250.299 355.626 251.546 350.063 252.609C349.787 252.69 349.546 252.486 349.468 252.211C349.4 252.047 349.443 251.874 349.546 251.752Z" fill="#C4D9F8"/>
<path d="M422.667 242.913C422.718 242.852 422.822 242.73 422.934 242.72C423.21 242.638 423.503 242.781 423.528 243.118L427.36 258.881C427.437 259.156 427.23 259.401 426.954 259.483C426.678 259.565 426.385 259.422 426.36 259.085L422.536 243.434C422.52 243.21 422.563 243.036 422.667 242.913Z" fill="#C4D9F8"/>
<path d="M426.839 243.53C426.89 243.469 426.994 243.346 427.106 243.336C427.382 243.255 427.675 243.398 427.7 243.735L431.455 259.221C431.532 259.497 431.325 259.742 431.049 259.824C430.773 259.905 430.48 259.762 430.455 259.425L426.7 243.939C426.691 243.826 426.735 243.653 426.839 243.53Z" fill="#C4D9F8"/>
<path d="M431.168 244.809C431.22 244.748 431.324 244.626 431.436 244.615C431.712 244.534 432.005 244.677 432.03 245.014L435.588 259.389C435.665 259.664 435.458 259.909 435.182 259.991C434.906 260.073 434.613 259.93 434.588 259.593L431.09 245.269C431.021 245.105 431.065 244.932 431.168 244.809Z" fill="#C4D9F8"/>
<path d="M435.498 246.088C435.549 246.026 435.653 245.904 435.765 245.894C436.041 245.812 436.334 245.955 436.359 246.292L439.678 259.727C439.755 260.003 439.548 260.248 439.272 260.33C438.996 260.411 438.703 260.268 438.678 259.931L435.419 246.547C435.402 246.322 435.446 246.149 435.498 246.088Z" fill="#C4D9F8"/>
<path d="M439.887 247.419C439.938 247.357 440.042 247.235 440.154 247.225C440.43 247.143 440.723 247.286 440.748 247.623L443.76 259.955C443.837 260.23 443.629 260.475 443.353 260.557C443.077 260.638 442.785 260.495 442.759 260.158L439.748 247.827C439.739 247.715 439.783 247.541 439.887 247.419Z" fill="#C4D9F8"/>
<path d="M444.445 249.523C444.497 249.462 444.601 249.34 444.713 249.33C444.989 249.248 445.281 249.391 445.307 249.728L447.899 260.232C447.976 260.508 447.769 260.752 447.493 260.834C447.217 260.916 446.924 260.773 446.899 260.436L444.306 249.932C444.298 249.819 444.341 249.646 444.445 249.523Z" fill="#C4D9F8"/>
<path d="M449.024 251.963C449.076 251.902 449.179 251.78 449.291 251.769C449.567 251.688 449.86 251.831 449.885 252.168L451.974 260.456C452.051 260.732 451.844 260.977 451.568 261.059C451.292 261.14 450.999 260.997 450.973 260.66L448.885 252.372C448.877 252.259 448.92 252.086 449.024 251.963Z" fill="#C4D9F8"/>
<path d="M422.74 242.87L434.431 231.658C434.585 231.478 434.934 231.458 435.194 231.67C435.39 231.829 435.431 232.167 435.226 232.407L423.535 243.619C423.381 243.799 423.032 243.82 422.772 243.608C422.562 243.336 422.535 243.11 422.74 242.87Z" fill="#C4D9F8"/>
<path d="M427.49 243.781L438.022 233.657C438.176 233.478 438.525 233.457 438.785 233.669C438.98 233.828 439.021 234.166 438.816 234.406L428.335 244.469C428.181 244.649 427.832 244.67 427.572 244.458C427.312 244.246 427.336 243.961 427.49 243.781Z" fill="#C4D9F8"/>
<path d="M432.029 244.929C432.081 244.869 432.081 244.869 432.029 244.929L441.559 235.716C441.713 235.536 442.061 235.515 442.321 235.727C442.516 235.886 442.557 236.224 442.352 236.464L432.874 245.617C432.72 245.796 432.371 245.817 432.112 245.606C431.852 245.394 431.876 245.109 432.029 244.929Z" fill="#C4D9F8"/>
<path d="M436.458 246.085C436.458 246.085 436.509 246.025 436.458 246.085L445.15 237.715C445.304 237.535 445.652 237.514 445.911 237.725C446.105 237.884 446.146 238.222 445.941 238.462L437.3 246.772C437.146 246.952 436.798 246.973 436.539 246.762C436.28 246.551 436.304 246.265 436.458 246.085Z" fill="#C4D9F8"/>
<path d="M440.576 247.597L448.741 239.712C448.895 239.532 449.243 239.511 449.501 239.722C449.695 239.88 449.736 240.219 449.531 240.458L441.417 248.284C441.263 248.464 440.915 248.485 440.657 248.274C440.398 248.062 440.422 247.777 440.576 247.597Z" fill="#C4D9F8"/>
<path d="M444.476 249.237L452.28 241.768C452.434 241.588 452.781 241.567 453.039 241.778C453.233 241.936 453.273 242.274 453.068 242.514L445.264 249.982C445.11 250.162 444.763 250.184 444.505 249.973C444.362 249.755 444.322 249.416 444.476 249.237Z" fill="#C4D9F8"/>
<path d="M447.961 251.353C447.961 251.353 448.012 251.293 447.961 251.353L455.868 243.765C456.022 243.585 456.369 243.563 456.628 243.774C456.821 243.932 456.862 244.271 456.657 244.51L448.801 252.038C448.647 252.218 448.3 252.24 448.041 252.029C447.848 251.871 447.807 251.532 447.961 251.353Z" fill="#C4D9F8"/>
<path d="M288.07 260.042L145.014 280.402L123.345 128.55L266.401 108.29L288.07 260.042Z" fill="#428DFC"/>
<path d="M298.149 267.947H241.535V330.987H298.149V267.947Z" fill="#D6D7D8"/>
<path d="M333.347 329.05H206.449V333.951H333.347V329.05Z" fill="#A1C3FC"/>
<path d="M392.238 147.339H143.228V308.644H392.238V147.339Z" fill="url(#paint0_linear_2266_9722)"/>
<path d="M387.798 151.442H147.559V284.248H387.798V151.442Z" fill="white"/>
<path d="M241.293 196.198H291.25L289.797 193.661H242.734L241.293 196.198ZM301.958 247.481H231.834L233.402 244.945H300.378L301.958 247.481Z" fill="#9ABFFA"/>
<path d="M287.503 200.022V234.147H245.207V200.022H287.503ZM291.328 196.198H241.383V237.972H291.328V196.198Z" fill="#2779E2"/>
<path d="M259.84 210.246V216.033H254.053V210.246H259.84ZM261.625 208.461H252.268V217.818H261.625V208.461ZM252.128 224.586H279.905V226.371H252.128V224.586ZM277.228 210.322V216.109H271.441V210.322H277.228ZM279.013 208.537H269.656V217.894H279.013V208.537ZM264.123 188.078H267.948V199.512H264.123V188.078Z" fill="#2779E2"/>
<path d="M257.585 182.29H274.475V188.09H257.585V182.29ZM274.539 247.507V234.173H259.917V247.507H231.491V266.462H302.367V247.507H274.539Z" fill="#2779E2"/>
<path d="M266.113 252.848L269.376 261.019H268.025L267.183 258.827H263.563L262.722 261.019H261.37L264.634 252.848H266.113ZM265.399 253.931H265.36C265.284 254.174 265.207 254.416 265.118 254.645C265.093 254.696 264.685 255.767 263.882 257.832H266.865C266.074 255.767 265.654 254.696 265.628 254.645C265.628 254.62 265.615 254.569 265.59 254.492C265.462 254.174 265.399 253.982 265.399 253.931ZM270.332 261.019V252.848H271.568V261.019H270.332Z" fill="white"/>
<path d="M274.526 182.685H257.546L258.693 180.149H273.378L274.526 182.685Z" fill="#9ABFFA"/>
<path d="M141.719 111.786L134.14 103.592L142.285 96.086L149.827 104.237L141.719 111.786Z" fill="#A1C3FC"/>
<path d="M153.932 114.764L151.267 118.357L147.877 115.927L150.544 112.319L153.932 114.764Z" fill="#D9E021"/>
<path d="M150.564 85.4809C149.396 85.9416 148.2 86.3296 146.983 86.6426C146.521 85.3818 146.117 84.1753 145.822 83.0614C147.006 82.6159 148.179 82.2349 149.403 81.8997C149.865 83.0679 150.253 84.264 150.564 85.4809Z" fill="#23286B"/>
<path d="M386.812 52.6772C384.723 53.2563 382.599 53.706 380.454 54.0237C379.885 51.7883 379.435 49.64 379.117 47.6672C381.232 47.0777 383.341 46.6875 385.475 46.3207C386.022 48.352 386.466 50.4801 386.812 52.6772Z" fill="#E94A47"/>
<path d="M377.36 96.4301L346.22 100.823L345.677 103.974C345.485 104.873 345.508 105.805 345.742 106.695L379.145 101.624C378.773 99.8236 378.173 98.0784 377.36 96.4301Z" fill="#A1C3FC"/>
<path d="M363.53 88.08L357.367 89.1834C355.558 89.7516 353.886 90.6885 352.458 91.9351C351.029 93.1816 349.874 94.7108 349.066 96.426L374.669 92.7104C371.668 89.8245 367.693 88.1718 363.53 88.08Z" fill="#A1C3FC"/>
<path d="M373.074 117.913L356.358 120.451C358.183 121.216 360.104 121.73 362.067 121.979C366.015 121.549 369.795 120.152 373.074 117.913Z" fill="#A1C3FC"/>
<path d="M379.285 107.057L347.442 112.378C348.745 114.224 349.434 116.538 351.37 117.931L378.11 113.867L379.285 107.057Z" fill="#A1C3FC"/>
<path d="M351.54 33.9343L348.923 35.7733L346.927 40.7059L354.538 35.1383L351.54 33.9343Z" fill="#EDEDEE"/>
<path d="M357.314 36.3023L345.53 44.824L343.573 49.5344L360.796 37.3606L357.314 36.3023Z" fill="#EDEDEE"/>
<path d="M363.574 38.5274L342.18 53.646L340.521 57.9498L340.705 58.2106L366.803 39.7806L363.574 38.5274Z" fill="#EDEDEE"/>
<path d="M369.577 40.9472L343.518 59.1548L347.009 60.2146L372.614 41.9288L369.577 40.9472Z" fill="#EDEDEE"/>
<path d="M349.787 61.3806L353.008 62.6229L372.054 49.1701L373.605 44.1607L349.787 61.3806Z" fill="#EDEDEE"/>
<path d="M358.828 64.77L368.699 57.9891L370.434 53.2405L355.782 63.7868L358.828 64.77Z" fill="#EDEDEE"/>
<path d="M364.824 67.1882L365.345 66.8201L367.08 62.0714L361.603 65.9458L364.824 67.1882Z" fill="#EDEDEE"/>
<path d="M302.521 125.474L311.545 113.041C309.162 114.248 307.1 116.005 305.531 118.167C303.962 120.329 302.93 122.834 302.521 125.474Z" fill="#D6E5FE"/>
<path d="M314.706 111.983L302.393 128.886C302.422 130.046 302.714 131.012 302.82 131.947L317.552 111.586C316.586 111.507 315.614 111.643 314.706 111.983Z" fill="#D6E5FE"/>
<path d="M320.063 111.522L303.559 134.135C303.802 134.914 304.134 135.663 304.548 136.367L322.248 112.128C321.554 111.819 320.817 111.615 320.063 111.522Z" fill="#D6E5FE"/>
<path d="M324.286 112.249L305.695 137.67C306.189 138.231 306.621 138.843 306.984 139.495L326.179 113.225C325.565 112.868 324.933 112.542 324.286 112.249Z" fill="#D6E5FE"/>
<path d="M327.839 114.247L308.651 140.748L310.271 141.982L329.504 115.488C329.016 114.991 328.455 114.572 327.839 114.247Z" fill="#D6E5FE"/>
<path d="M330.829 116.822L311.932 142.687C312.541 143.031 313.191 143.297 313.867 143.478L332.165 118.427C331.797 117.905 331.206 117.346 330.829 116.822Z" fill="#D6E5FE"/>
<path d="M333.228 120.213L315.827 144.045C316.494 144.21 317.185 144.252 317.867 144.168L318.089 144.206L333.753 122.422C333.855 121.646 333.668 120.86 333.228 120.213Z" fill="#D6E5FE"/>
<path d="M334.985 124.649L320.875 144.001C321.993 143.914 323.1 143.722 324.181 143.426L335.259 128.37C335.268 126.988 335.015 125.799 334.985 124.649Z" fill="#D6E5FE"/>
<path d="M334.647 131.928L327.466 141.701C330.996 139.454 333.558 135.968 334.647 131.928Z" fill="#D6E5FE"/>
<path d="M346.855 130.649L346.404 130.632L345.551 153.664L346.002 153.68L346.855 130.649Z" fill="#23286B"/>
<path d="M332.709 130.278L332.258 130.261L331.405 153.293L331.856 153.309L332.709 130.278Z" fill="#23286B"/>
<path d="M336.344 130.446L335.893 130.429L335.039 153.46L335.491 153.477L336.344 130.446Z" fill="#23286B"/>
<path d="M376.496 92.5785C377.745 89.0834 378.454 85.4186 378.599 81.7101C378.842 76.795 378.109 71.8804 376.442 67.2503C374.775 62.6202 372.207 58.3664 368.886 54.7346C365.566 51.1028 361.558 48.1651 357.095 46.0911C352.633 44.0172 347.803 42.8481 342.886 42.6515C337.969 42.455 333.062 43.2347 328.447 44.9458C323.833 46.6569 319.604 49.2653 316.004 52.6205C312.404 55.9756 309.505 60.0108 307.473 64.493C305.442 68.9753 304.319 73.8156 304.169 78.7344C303.936 82.4527 304.379 86.1824 305.477 89.7424L305.661 90.0032C307.264 95.3177 331.861 138.776 331.861 138.776L347.155 139.123C347.155 139.123 374.945 97.5879 376.757 92.3944L376.496 92.5785Z" fill="url(#paint1_linear_2266_9722)"/>
<path d="M320.821 75.1937L311.242 68.2655L318.383 58.7238L327.887 66.0875L320.821 75.1937Z" fill="#8CB9FD"/>
<path d="M324.887 71.5321L319.188 75.3682L315.353 69.6594L320.84 65.7865L324.887 71.5321Z" fill="white"/>
<path d="M313.058 146.785L308.702 149.469L305.71 145.518L310.115 142.603L313.058 146.785Z" fill="#428DFC"/>
<path d="M364.704 37.3471L360.299 40.2612L357.355 36.0801L361.711 33.396L364.704 37.3471Z" fill="#A1C3FC"/>
<path d="M346.341 151.97L330.545 151.385L329.959 167.19L345.755 167.776L346.341 151.97Z" fill="#8CB9FD"/>
<path d="M376.499 92.5792C376.575 92.1344 376.913 91.5055 376.989 91.0607L304.822 88.2461C304.966 88.7385 304.851 89.4057 305.257 89.7048L305.441 89.9655C305.676 90.6358 305.945 91.2937 306.247 91.9365L375.669 94.7357C376.027 94.051 376.305 93.3274 376.499 92.5792Z" fill="#E94A47"/>
<path d="M369.023 100.021L356.479 111.618L344.893 99.0669L332.396 110.672L320.773 98.1144L312.564 105.879C312.978 106.686 313.457 107.458 313.998 108.187L320.825 101.797L332.411 114.348L344.908 102.743L356.504 115.239L369.075 103.704L369.887 104.531C370.427 103.826 370.879 103.058 371.235 102.244L369.023 100.021Z" fill="white"/>
<path d="M337.757 154.616L333.021 154.44L332.845 159.186L337.581 159.361L337.757 154.616Z" fill="#428DFC"/>
<path d="M342.736 157.836L335.284 157.56L335.008 165.012L342.46 165.288L342.736 157.836Z" fill="#1D72D8"/>
<path d="M364.285 70.3013C364.101 70.0406 364.063 70.263 364.063 70.263C363.802 70.447 364.024 70.4854 364.285 70.3013C364.024 70.4854 364.247 70.5237 364.285 70.3013ZM363.59 55.7349C363.629 55.5125 363.406 55.4742 363.59 55.7349C363.406 55.4742 363.33 55.919 363.59 55.7349ZM360.644 58.2136C360.46 57.9528 360.421 58.1752 360.644 58.2136V58.2136ZM365.698 63.436L365.475 63.3977C365.399 63.8425 365.399 63.8425 365.698 63.436ZM362.092 64.4269L361.888 64.3918C361.85 64.6142 361.85 64.6142 362.11 64.4301L362.092 64.4269ZM356.819 52.5064L356.635 52.2456C356.596 52.468 356.596 52.468 356.819 52.5064ZM355.132 55.6506L354.947 55.3898C354.909 55.6122 354.909 55.6122 355.132 55.6506ZM366.465 67.013C366.242 66.9746 366.204 67.197 366.465 67.013V67.013ZM363.334 67.8473C363.411 67.4025 362.966 67.3258 363.334 67.8473C362.966 67.3258 363.112 67.809 363.334 67.8473ZM358.765 55.6091C358.581 55.3483 358.542 55.5707 358.765 55.6091V55.6091ZM356.93 58.2794C356.746 58.0187 356.708 58.2411 356.93 58.2794V58.2794ZM362.552 61.5387C362.59 61.3163 362.368 61.2779 362.552 61.5387C362.291 61.7227 362.513 61.7611 362.552 61.5387ZM369.11 64.7305C369.148 64.5081 368.926 64.4698 369.11 64.7305C368.926 64.4698 368.888 64.6922 369.11 64.7305ZM366.018 66.726C366.056 66.5036 365.834 66.4653 366.018 66.726V66.726ZM355.797 55.5554C355.613 55.2946 355.574 55.517 355.574 55.517C355.574 55.517 355.536 55.7394 355.797 55.5554ZM362.706 60.4203L362.522 60.1595C362.223 60.566 362.223 60.566 362.706 60.4203ZM365.076 61.2869L364.892 61.0262C364.854 61.2486 364.854 61.2486 365.076 61.2869ZM362.682 64.5477L362.498 64.287C362.487 64.346 362.501 64.4066 362.536 64.4555C362.57 64.5044 362.623 64.5376 362.682 64.5477Z" fill="white"/>
<path d="M326.775 131.03L351.794 132.137C353.667 129.244 355.885 125.733 358.578 122.066L321.01 120.637C323.108 124.405 325.049 127.755 326.775 131.03Z" fill="#A1C3FC"/>
<path d="M348.731 188.479C348.672 188.469 348.62 188.436 348.585 188.387C348.551 188.338 348.537 188.277 348.547 188.218C351.879 176.865 356.544 165.742 366.302 161.003L366.525 161.041L366.485 161.273C356.951 166.041 352.508 177.203 348.731 188.479Z" fill="#23286B"/>
<path d="M319.368 167.137C319.735 159.496 318.422 151.867 315.521 144.789C312.619 137.711 308.201 131.355 302.576 126.17L302.614 125.947L302.837 125.986C308.464 131.194 312.864 137.587 315.72 144.703C318.575 151.819 319.815 159.481 319.349 167.134L319.368 167.137Z" fill="#23286B"/>
<path d="M400.249 94.1021C404.375 94.2481 408.365 95.6142 411.714 98.0276C415.064 100.441 417.623 103.794 419.067 107.661C420.511 111.529 420.777 115.738 419.829 119.756C418.881 123.774 416.764 127.421 413.743 130.236C410.723 133.05 406.936 134.906 402.861 135.569C398.786 136.232 394.606 135.671 390.85 133.958C387.094 132.245 383.93 129.457 381.758 125.946C379.586 122.435 378.504 118.359 378.648 114.233C378.731 111.488 379.357 108.787 380.49 106.286C381.623 103.785 383.24 101.533 385.249 99.6612C387.258 97.7892 389.618 96.334 392.193 95.3798C394.767 94.4256 397.506 93.9913 400.249 94.1021Z" fill="url(#paint2_linear_2266_9722)"/>
<path d="M391.343 115.2L384.146 109.684L389.55 102.524L396.664 108.026L391.343 115.2Z" fill="#F4A4A3"/>
<path d="M410.18 132.074L407.445 130.057L409.448 127.406L412.09 129.408L410.18 132.074Z" fill="#F4A4A3"/>
<path d="M395.532 110.377L391.211 113.354L388.23 109.118L392.543 106.131L395.532 110.377Z" fill="white"/>
<path d="M397.742 200.007L398.321 188.293C398.545 185.219 398.593 182.133 398.463 179.053C398.393 177.857 398.301 176.84 398.101 175.622C397.819 173.557 397.722 171.471 397.811 169.389C397.912 167.147 398.235 164.92 398.775 162.742C399.109 160.805 399.568 158.699 399.727 156.723C399.828 154.628 399.795 152.528 399.628 150.437C399.371 146.394 399.231 142.277 400.695 138.712L400.436 138.667C400.08 138.778 399.695 138.746 399.363 138.578L399.15 138.265C399.181 138.088 399.47 137.957 400.029 137.872C400.534 137.821 401.012 137.617 401.399 137.288C401.306 137.272 400.748 137.357 400.296 137.374C399.462 137.507 398.62 137.629 398.412 137.231C398.394 137.212 398.38 137.189 398.373 137.163C398.365 137.138 398.363 137.111 398.368 137.085C398.372 137.059 398.383 137.034 398.399 137.013C398.414 136.991 398.435 136.974 398.459 136.962C398.701 136.739 399.01 136.601 399.337 136.57C399.528 136.517 399.797 136.563 400.003 136.417L400.086 136.432L400.072 136.515C399.865 136.611 399.642 136.666 399.414 136.678C399.148 136.709 398.889 136.788 398.649 136.909L398.635 136.992C398.686 137.192 399.706 137.091 400.348 137.021C400.989 136.95 401.335 136.828 401.61 137.057C401.628 137.085 401.635 137.118 401.63 137.151C401.624 137.184 401.606 137.213 401.58 137.233C401.327 137.648 400.662 137.8 400.112 137.887C399.852 137.944 399.596 138.021 399.347 138.117L399.415 138.224C399.538 138.292 399.675 138.331 399.816 138.339C399.957 138.347 400.098 138.323 400.228 138.269C400.315 138.241 400.408 138.235 400.498 138.251C400.588 138.266 400.674 138.303 400.747 138.359C400.757 138.372 400.764 138.387 400.768 138.403C400.772 138.42 400.773 138.437 400.77 138.453C400.767 138.47 400.761 138.485 400.751 138.499C400.742 138.513 400.73 138.525 400.716 138.535C399.19 142.184 399.376 146.309 399.649 150.259C399.816 152.35 399.849 154.45 399.748 156.545C399.589 158.522 399.146 160.535 398.797 162.564C398.303 164.752 397.981 166.974 397.832 169.211C397.834 171.301 398.057 173.439 398.122 175.444C398.199 176.545 398.367 177.672 398.484 178.875C398.621 181.955 398.573 185.041 398.342 188.116L397.694 199.731C397.835 200.023 397.742 200.007 397.742 200.007Z" fill="black" stroke="black" stroke-width="0.2"/>
<path d="M284.857 89.0211C287.346 89.0998 289.756 89.9161 291.78 91.3663C293.805 92.8164 295.353 94.8352 296.229 97.1665C297.104 99.4979 297.268 102.037 296.699 104.461C296.129 106.886 294.853 109.086 293.031 110.784C291.209 112.482 288.924 113.601 286.466 113.998C284.007 114.395 281.486 114.054 279.222 113.016C276.958 111.979 275.053 110.292 273.749 108.171C272.445 106.049 271.8 103.588 271.897 101.1C271.947 99.4531 272.323 97.8328 273.003 96.3325C273.683 94.8321 274.654 93.4813 275.859 92.3582C277.064 91.2352 278.479 90.362 280.024 89.7892C281.568 89.2164 283.211 88.9553 284.857 89.0211Z" fill="url(#paint3_linear_2266_9722)"/>
<path d="M280.188 100.611L275.91 97.3643L279.097 93.0473L283.383 96.2481L280.188 100.611Z" fill="#D0E1FD"/>
<path d="M290.752 111.832L289.165 110.633L290.431 108.99L292.018 110.189L290.752 111.832Z" fill="#D0E1FD"/>
<path d="M282.017 98.7997L279.492 100.549L277.699 97.998L280.241 96.2034L282.017 98.7997Z" fill="white"/>
<path d="M283.404 152.578L283.749 145.538C283.886 143.689 283.916 141.833 283.839 139.981C283.801 139.259 283.744 138.648 283.649 137.925C283.483 136.686 283.428 135.434 283.483 134.185C283.544 132.835 283.737 131.494 284.059 130.181C284.26 129.013 284.535 127.753 284.68 126.576C284.741 125.302 284.726 124.024 284.634 122.751C284.453 120.316 284.392 117.843 285.313 115.655L285.147 115.626C284.934 115.691 284.705 115.672 284.507 115.573L284.376 115.388C284.396 115.277 284.571 115.202 284.905 115.146C285.202 115.094 285.483 114.976 285.728 114.801C285.672 114.791 285.34 114.839 285.071 114.85C284.561 114.924 284.09 115.005 283.941 114.76C283.929 114.749 283.92 114.736 283.915 114.721C283.909 114.706 283.908 114.689 283.911 114.674C283.913 114.658 283.92 114.643 283.93 114.631C283.94 114.618 283.953 114.608 283.968 114.602C284.115 114.471 284.299 114.39 284.495 114.369C284.616 114.332 284.773 114.359 284.893 114.275L284.948 114.285C284.823 114.344 284.687 114.379 284.549 114.388C284.388 114.407 284.231 114.454 284.086 114.527L284.078 114.574C284.114 114.694 284.725 114.637 285.115 114.59C285.505 114.543 285.727 114.476 285.865 114.614C285.872 114.622 285.876 114.631 285.879 114.64C285.882 114.65 285.883 114.66 285.881 114.67C285.879 114.68 285.875 114.689 285.869 114.697C285.864 114.705 285.856 114.712 285.847 114.716C285.699 114.968 285.301 115.061 284.969 115.109C284.811 115.145 284.656 115.191 284.506 115.248L284.552 115.314C284.624 115.358 284.705 115.383 284.789 115.388C284.874 115.392 284.958 115.376 285.034 115.34C285.088 115.32 285.146 115.316 285.203 115.325C285.26 115.335 285.313 115.359 285.358 115.395C285.369 115.413 285.373 115.434 285.37 115.455C285.366 115.475 285.355 115.494 285.339 115.507C284.418 117.695 284.54 120.14 284.661 122.594C284.752 123.851 284.77 125.113 284.715 126.372C284.616 127.558 284.303 128.763 284.092 129.986C283.799 131.301 283.607 132.637 283.518 133.981C283.511 135.239 283.626 136.509 283.684 137.721C283.732 138.388 283.835 139.064 283.874 139.777C283.955 141.629 283.925 143.485 283.784 145.334L283.42 152.485L283.404 152.578Z" fill="#1D72D8"/>
<path d="M297.831 46.4111L296.456 47.0805L298.161 47.0978L297.831 46.4111Z" fill="#A1C3FC"/>
<path d="M291.675 49.31L299.307 49.5954L298.716 48.3198L294.223 48.0891L291.675 49.31Z" fill="#A1C3FC"/>
<path d="M286.851 51.4935L300.458 52.0456L299.921 50.7317L289.385 50.3559L286.851 51.4935Z" fill="#A1C3FC"/>
<path d="M287.407 53.9735L301.642 54.5384L301.02 53.2194L286.823 52.7088L287.407 53.9735Z" fill="#A1C3FC"/>
<path d="M288.552 56.4719L302.758 56.9841L302.173 55.6715L287.932 55.1437L288.552 56.4719Z" fill="#A1C3FC"/>
<path d="M289.704 58.9114L299.926 59.2808L302.468 58.0969L289.119 57.5988L289.704 58.9114Z" fill="#A1C3FC"/>
<path d="M290.858 61.3644L295.098 61.5134L297.632 60.3758L290.221 60.0809L290.858 61.3644Z" fill="#A1C3FC"/>
<path d="M291.707 63.1795L292.847 62.6031L291.409 62.5842L291.707 63.1795Z" fill="#A1C3FC"/>
<path d="M431.788 135.55L425.516 144.202L417.531 138.378L423.834 129.713L431.788 135.55Z" fill="#D9E021"/>
<path d="M297.294 76.8709L289.042 77.7478L288.146 68.8909L296.389 68.0124L297.294 76.8709Z" fill="#428DFC"/>
<path d="M428.96 169.538C426.999 168.623 425.093 167.593 423.252 166.455C424.287 164.381 425.298 162.447 426.335 160.746C428.299 161.695 430.192 162.728 432.044 163.83C431.129 165.792 430.1 167.698 428.96 169.538Z" fill="#E94A47"/>
<path d="M421.283 151.517C420.084 152.145 418.847 152.7 417.581 153.179C416.945 151.886 416.367 150.641 415.918 149.485C417.13 148.874 418.37 148.324 419.613 147.813C420.238 149.016 420.796 150.252 421.283 151.517Z" fill="#23286B"/>
<path opacity="0.7" d="M168.463 314.642L162.448 297.705L151.595 322.244C156.896 319.049 162.558 316.497 168.463 314.642Z" fill="url(#paint4_linear_2266_9722)"/>
<path d="M162.734 316.675L162.913 311.402L140.645 310.486L139.863 329.819C146.112 324.771 153.806 320.342 162.734 316.675Z" fill="#E5EEFE"/>
<path d="M182.597 65.52C184.523 65.5871 186.385 66.224 187.949 67.3502C189.513 68.4763 190.707 70.0411 191.381 71.8464C192.055 73.6518 192.179 75.6164 191.736 77.4919C191.293 79.3673 190.303 81.0691 188.893 82.382C187.482 83.6949 185.714 84.5598 183.811 84.8672C181.909 85.1746 179.958 84.9109 178.206 84.1091C176.453 83.3074 174.978 82.0038 173.967 80.3634C172.956 78.723 172.454 76.8194 172.525 74.8937C172.567 73.6155 172.86 72.358 173.39 71.1938C173.919 70.0296 174.674 68.9816 175.61 68.1103C176.546 67.239 177.645 66.5615 178.844 66.117C180.044 65.6724 181.319 65.4695 182.597 65.52Z" fill="url(#paint5_linear_2266_9722)"/>
<path d="M180.05 74.1523L175.999 73.1113L176.99 69.0858L181.043 70.0815L180.05 74.1523Z" fill="#A1C3FC"/>
<path d="M193.381 222.624L192.082 222.314L192.385 221.053L193.647 221.316L193.381 222.624Z" fill="#A1C3FC"/>
<path d="M180.358 73.1029L178.382 74.4978L176.993 72.5227L178.964 71.1213L180.358 73.1029Z" fill="white"/>
<path d="M181.446 114.877L181.709 109.413C181.816 107.977 181.839 106.536 181.779 105.097C181.747 104.521 181.7 104.067 181.631 103.507C181.497 102.554 181.451 101.591 181.493 100.629C181.536 99.5823 181.687 98.5426 181.942 97.5265C182.098 96.6228 182.308 95.6371 182.376 94.7467C182.419 93.7682 182.397 92.788 182.311 91.8124C182.175 89.9219 182.122 88.0061 182.831 86.347L182.709 86.3259C182.542 86.3742 182.364 86.3577 182.209 86.2796L182.108 86.1366C182.122 86.0535 182.258 85.9914 182.516 85.9558C182.74 85.9099 182.951 85.8158 183.134 85.6799C183.095 85.6732 182.832 85.7133 182.62 85.7168C182.233 85.7757 181.839 85.8392 181.746 85.6518C181.737 85.6435 181.73 85.6331 181.726 85.6214C181.722 85.6097 181.721 85.5972 181.723 85.585C181.725 85.5728 181.73 85.5614 181.738 85.5517C181.746 85.5421 181.756 85.5346 181.767 85.5298C181.879 85.4239 182.023 85.3583 182.176 85.3434C182.266 85.3189 182.388 85.34 182.485 85.2711L182.53 85.2788L182.523 85.3176C182.426 85.3634 182.32 85.3898 182.213 85.3954C182.09 85.4117 181.97 85.4469 181.858 85.4998L181.85 85.5442C181.875 85.634 182.346 85.5839 182.648 85.5505C182.951 85.517 183.131 85.4681 183.216 85.5684C183.225 85.5806 183.228 85.5954 183.225 85.61C183.223 85.6245 183.215 85.6375 183.203 85.6461C183.083 85.8424 182.774 85.9147 182.516 85.9558C182.395 85.9806 182.276 86.0155 182.161 86.0601L182.192 86.1112C182.25 86.1435 182.314 86.1621 182.379 86.1655C182.445 86.1689 182.511 86.157 182.571 86.1309C182.612 86.1179 182.656 86.115 182.698 86.1223C182.741 86.1297 182.781 86.147 182.815 86.1729C182.824 86.186 182.827 86.202 182.824 86.2174C182.822 86.2328 182.813 86.2466 182.801 86.2561C182.086 87.954 182.176 89.8821 182.281 91.7215C182.366 92.6972 182.388 93.6774 182.346 94.6559C182.272 95.5795 182.071 96.5154 181.908 97.4635C181.672 98.4834 181.522 99.5211 181.458 100.566C181.456 101.542 181.542 102.533 181.596 103.444C181.633 103.959 181.708 104.48 181.743 105.04C181.807 106.476 181.784 107.916 181.674 109.35L181.397 114.897L181.446 114.877Z" fill="black" stroke="black" stroke-width="0.2"/>
<path d="M141.84 356.114L137.011 368.292L168.168 369.411C168.168 369.411 166.666 366.263 161.378 363.821C156.188 361.305 151.402 356.483 151.402 356.483L141.84 356.114Z" fill="url(#paint6_linear_2266_9722)"/>
<path d="M161.136 356.804L156.063 368.941L187.214 370.058C187.214 370.058 185.713 366.911 180.43 364.47C175.24 361.954 171.059 357.065 171.059 357.065L161.136 356.804Z" fill="#428DFC"/>
<path d="M179.19 257.071L180.457 254.651L182.81 250.376C182.81 250.376 180.128 251.626 179.874 253.101C179.504 254.75 176.445 256.169 176.445 256.169C175.518 261.542 179.19 257.071 179.19 257.071Z" fill="url(#paint7_linear_2266_9722)"/>
<path d="M186.534 255.95L194.157 246.805C194.176 246.744 194.215 246.69 194.268 246.653C194.297 246.579 194.309 246.5 194.305 246.421C194.3 246.342 194.279 246.265 194.243 246.194C194.206 246.124 194.156 246.062 194.094 246.012C194.032 245.963 193.96 245.927 193.883 245.908L188.375 244.278C188.209 244.25 187.862 244.27 187.736 244.505L180.098 253.739C180.079 253.801 180.039 253.854 179.986 253.891C179.958 253.965 179.946 254.044 179.95 254.123C179.955 254.202 179.976 254.28 180.012 254.35C180.048 254.421 180.099 254.482 180.161 254.532C180.223 254.581 180.295 254.617 180.372 254.637L185.831 256.086C185.944 256.156 186.079 256.18 186.209 256.155C186.339 256.13 186.455 256.057 186.534 255.95Z" fill="#23286B"/>
<path d="M177.96 256.772L179.014 261.521C180.314 257.92 185.852 257.425 187.569 256.87C189.286 256.316 189.815 254.706 190.293 253.915C190.772 253.124 192.726 252.621 192.726 252.621C192.578 252.025 191.904 251.463 190.026 251.99C188.148 252.517 188.542 253.179 185.617 253.354C182.36 253.472 182.158 255.138 182.158 255.138C181.513 254.941 180.509 254.768 180.509 254.768C179.788 255.571 178.923 256.232 177.958 256.715" fill="url(#paint8_linear_2266_9722)"/>
<path d="M176.232 254.945C176.232 254.945 170.249 259.017 162.661 258.559C155.46 258.334 154.453 245.401 153.611 242.367C153.118 242.282 151.029 240.557 150.427 240.105C149.971 239.769 148.31 238.547 148.198 238.699C147.708 239.55 147.635 240.474 147.068 243.265C146.035 247.769 147.427 256.515 152.102 264.464C157.246 273.178 162.694 272.57 165.645 270.886C168.596 269.203 169.471 268.566 173.371 268.559C177.272 268.552 178.45 266.289 178.45 266.289L176.232 254.945Z" fill="url(#paint9_linear_2266_9722)"/>
<path d="M155.548 279.45C155.548 279.45 146.924 279.065 146.279 278.868C145.634 278.671 136.24 277.823 136.24 277.823C134.156 282.99 137.566 292.849 139.968 297.688C142.371 302.527 151.908 310.463 148.419 317.352C144.93 324.241 144.42 330.61 144.158 334.647C143.896 338.684 145.177 340.098 142.515 345.171C139.853 350.245 141.934 355.959 141.934 355.959L155.399 356.407C155.399 356.407 169.43 320.461 167.611 312.068C165.457 302.34 155.536 279.448 155.536 279.448" fill="url(#paint10_linear_2266_9722)"/>
<path d="M138.13 299.073C144.954 312.838 144.796 310.773 146.675 321.134C148.554 331.495 149.467 327.656 152.583 338.23C155.082 346.91 156.21 352.294 161.15 356.72L173.08 357.064C172.23 353.087 167.595 327.618 165.485 319.09C163.408 310.905 161.176 300.141 159.09 294.426C159.09 294.426 154.508 279.511 154.439 274.481L143.189 275.522C140.26 275.811 137.309 275.243 134.696 273.886C134.184 273.646 133.69 273.37 133.217 273.06C132.967 273.685 131.507 285.594 138.13 299.073Z" fill="#A1C3FC"/>
<path opacity="0.86" d="M140.986 282.974C140.986 282.974 141.055 283.072 141.069 282.989C141.069 282.989 141.165 282.926 141.082 282.911C141.082 282.911 141.013 282.814 140.999 282.897L140.986 282.974ZM142.819 282.274C142.819 282.274 142.888 282.372 142.902 282.289C142.902 282.289 143 282.22 142.917 282.205C142.834 282.191 142.848 282.108 142.834 282.191L142.819 282.274ZM144.559 281.552C144.559 281.552 144.462 281.621 144.545 281.636C144.545 281.636 144.614 281.733 144.628 281.65C144.628 281.65 144.726 281.581 144.643 281.567L144.559 281.552ZM146.276 280.998C146.276 280.998 146.345 281.095 146.36 281.012L146.374 280.929C146.374 280.929 146.305 280.831 146.291 280.915L146.276 280.998ZM148.111 280.292C148.111 280.292 148.013 280.361 148.097 280.375C148.097 280.375 148.165 280.473 148.18 280.39C148.194 280.306 148.277 280.321 148.194 280.306L148.111 280.292ZM146.394 288.76C146.463 288.857 146.463 288.857 146.477 288.774C146.492 288.691 146.506 288.608 146.394 288.76C146.506 288.608 146.423 288.593 146.394 288.76ZM147.221 286.944C147.29 287.042 147.29 287.042 147.387 286.973C147.373 287.056 147.304 286.958 147.221 286.944ZM147.936 285.28C147.999 285.377 147.999 285.377 148.097 285.308C148.101 285.286 148.095 285.263 148.082 285.245C148.07 285.227 148.05 285.214 148.028 285.211C148.097 285.308 147.936 285.28 147.936 285.28ZM148.743 283.547C148.741 283.558 148.741 283.569 148.744 283.58C148.746 283.591 148.751 283.601 148.757 283.61C148.764 283.619 148.772 283.627 148.781 283.633C148.79 283.638 148.801 283.642 148.812 283.644L148.895 283.659C148.992 283.59 148.826 283.561 148.743 283.547ZM154.373 288.942C154.373 288.942 154.275 289.011 154.358 289.025C154.441 289.04 154.427 289.123 154.441 289.04L154.456 288.956L154.373 288.942ZM143.789 285.587L143.775 285.671L143.858 285.685L143.874 285.596C143.888 285.513 143.874 285.596 143.79 285.582L143.789 285.587ZM145.219 284.218L145.204 284.301L145.288 284.316L145.302 284.232L145.219 284.218ZM146.619 283.015L146.606 283.093L146.689 283.107L146.703 283.03C146.634 282.932 146.634 282.932 146.619 283.015ZM147.952 281.709L147.938 281.792L148.021 281.807L148.032 281.746L147.952 281.709ZM150.331 288.673C150.34 288.686 150.351 288.697 150.365 288.706C150.378 288.714 150.393 288.72 150.408 288.723C150.424 288.725 150.44 288.725 150.455 288.721C150.47 288.718 150.485 288.711 150.497 288.702C150.429 288.605 150.429 288.605 150.331 288.673ZM150.493 286.743C150.48 286.752 150.469 286.763 150.46 286.777C150.452 286.79 150.446 286.805 150.443 286.82C150.441 286.836 150.441 286.852 150.445 286.867C150.448 286.882 150.455 286.897 150.464 286.909C150.561 286.841 150.561 286.841 150.493 286.743ZM136.282 288.632C136.185 288.701 136.17 288.784 136.254 288.798C136.322 288.896 136.405 288.91 136.42 288.827C136.517 288.758 136.532 288.675 136.449 288.661L136.282 288.632ZM138.942 286.453C138.844 286.522 138.83 286.605 138.913 286.619C138.982 286.717 139.065 286.731 139.079 286.648C139.177 286.579 139.191 286.496 139.108 286.482C139.122 286.398 139.039 286.384 138.942 286.453ZM141.793 284.221C141.701 284.291 141.686 284.374 141.764 284.388C141.833 284.485 141.916 284.499 141.93 284.416C141.945 284.333 142.042 284.264 141.959 284.25C141.89 284.152 141.807 284.138 141.793 284.221ZM144.466 281.959C144.454 281.968 144.442 281.979 144.434 281.992C144.426 282.006 144.42 282.021 144.417 282.036C144.415 282.051 144.415 282.067 144.418 282.083C144.422 282.098 144.429 282.112 144.438 282.125C144.423 282.208 144.507 282.223 144.59 282.237L144.604 282.154L144.618 282.071C144.647 281.904 144.564 281.89 144.466 281.959ZM146.647 297.989C146.625 297.986 146.602 297.991 146.584 298.004C146.565 298.017 146.553 298.036 146.549 298.058C146.535 298.141 146.618 298.156 146.701 298.17C146.779 298.184 146.793 298.1 146.793 298.1C146.876 298.115 146.73 298.004 146.647 297.989ZM147.079 294.49C146.996 294.476 146.981 294.559 146.884 294.628C146.87 294.711 146.953 294.725 147.036 294.739C147.119 294.754 147.133 294.671 147.148 294.587C147.151 294.565 147.146 294.543 147.133 294.524C147.121 294.506 147.101 294.494 147.079 294.49ZM147.345 290.962C147.261 290.947 147.247 291.031 147.233 291.114C147.218 291.197 147.302 291.211 147.385 291.226C147.407 291.229 147.429 291.224 147.448 291.211C147.466 291.199 147.478 291.179 147.482 291.157C147.594 291.005 147.511 290.99 147.345 290.962ZM147.79 287.385C147.707 287.37 147.693 287.454 147.679 287.531C147.666 287.609 147.748 287.629 147.831 287.643C147.914 287.657 147.929 287.574 147.942 287.497C147.905 287.444 147.852 287.404 147.79 287.385ZM148.222 283.885C148.145 283.872 148.13 283.955 148.116 284.038C148.113 284.049 148.113 284.06 148.115 284.07C148.116 284.081 148.121 284.091 148.126 284.1C148.132 284.109 148.14 284.117 148.149 284.123C148.158 284.129 148.168 284.133 148.179 284.135C148.201 284.139 148.224 284.133 148.242 284.121C148.26 284.108 148.273 284.088 148.277 284.066C148.291 283.983 148.305 283.9 148.222 283.885ZM134.845 282.43C134.762 282.415 134.748 282.498 134.733 282.582C134.719 282.665 134.802 282.679 134.885 282.693C134.969 282.708 134.983 282.625 134.997 282.541C135.012 282.458 134.928 282.444 134.845 282.43ZM138.245 281.486C138.162 281.471 138.148 281.555 138.134 281.632C138.12 281.715 138.203 281.73 138.286 281.744C138.369 281.758 138.384 281.675 138.397 281.598C138.411 281.514 138.328 281.5 138.245 281.486ZM139.794 294.256C139.78 294.339 139.766 294.422 139.849 294.437C139.932 294.451 140.01 294.464 140.024 294.381C140.038 294.298 140.053 294.215 139.975 294.201C139.897 294.188 139.809 294.173 139.794 294.256ZM141.527 291.129C141.512 291.212 141.498 291.295 141.581 291.31C141.659 291.323 141.742 291.338 141.756 291.254C141.771 291.171 141.785 291.088 141.702 291.074C141.619 291.059 141.555 290.963 141.527 291.129ZM143.186 287.927C143.172 288.01 143.158 288.093 143.235 288.107C143.313 288.12 143.402 288.135 143.416 288.052C143.43 287.969 143.445 287.886 143.361 287.871C143.31 287.908 143.249 287.928 143.186 287.927ZM144.895 284.904C144.881 284.988 144.866 285.071 144.949 285.085C145.033 285.099 145.116 285.114 145.13 285.031C145.144 284.947 145.159 284.864 145.076 284.85C144.992 284.836 144.909 284.821 144.895 284.904ZM146.638 281.717C146.623 281.8 146.609 281.883 146.692 281.897C146.775 281.912 146.859 281.926 146.873 281.843C146.887 281.76 146.902 281.676 146.818 281.662C146.735 281.648 146.652 281.633 146.638 281.717ZM153.329 295.887C153.315 295.971 153.398 295.985 153.481 295.999C153.559 296.013 153.573 295.929 153.588 295.846C153.602 295.763 153.524 295.75 153.441 295.735C153.358 295.721 153.34 295.826 153.325 295.909L153.329 295.887ZM152.495 292.318C152.411 292.304 152.397 292.387 152.383 292.47C152.368 292.553 152.452 292.562 152.536 292.576C152.619 292.59 152.632 292.513 152.647 292.43C152.578 292.332 152.592 292.249 152.495 292.318ZM151.467 288.909C151.383 288.895 151.37 288.973 151.356 289.056C151.341 289.139 151.424 289.153 151.502 289.167C151.585 289.181 151.6 289.098 151.614 289.015C151.579 288.963 151.527 288.926 151.467 288.909ZM150.517 285.508C150.434 285.494 150.42 285.577 150.405 285.66C150.391 285.744 150.474 285.758 150.557 285.772C150.64 285.787 150.655 285.703 150.669 285.62C150.683 285.537 150.531 285.425 150.517 285.508ZM136.86 292.597C136.944 292.611 136.944 292.611 137.041 292.542C137.055 292.459 137.055 292.459 136.987 292.362C136.903 292.347 136.903 292.347 136.806 292.416C136.798 292.455 136.798 292.495 136.806 292.534C136.814 292.572 136.83 292.609 136.853 292.641L136.86 292.597ZM138.615 289.839C138.6 289.922 138.6 289.922 138.664 290.019C138.747 290.033 138.747 290.033 138.844 289.964C138.859 289.881 138.859 289.881 138.79 289.784C138.79 289.784 138.629 289.756 138.615 289.839ZM140.433 287.173L140.419 287.256C140.415 287.278 140.42 287.3 140.433 287.319C140.446 287.337 140.466 287.349 140.488 287.353C140.571 287.368 140.571 287.368 140.668 287.299C140.683 287.216 140.683 287.216 140.614 287.118C140.531 287.104 140.531 287.104 140.433 287.173ZM142.242 284.596C142.228 284.679 142.228 284.679 142.297 284.776C142.365 284.874 142.38 284.791 142.477 284.722C142.575 284.653 142.492 284.639 142.423 284.541C142.354 284.444 142.242 284.596 142.242 284.596ZM143.969 281.999C143.954 282.082 143.954 282.082 144.023 282.179C144.092 282.277 144.106 282.194 144.204 282.125C144.218 282.042 144.218 282.042 144.149 281.944C144.066 281.93 143.983 281.915 143.969 281.999ZM149.94 295.28C149.926 295.363 150.009 295.378 150.092 295.392C150.175 295.406 150.189 295.323 150.204 295.24C150.218 295.157 150.135 295.142 150.052 295.128C149.969 295.114 149.863 295.227 149.954 295.328L149.94 295.28ZM149.405 291.957C149.322 291.942 149.309 292.02 149.295 292.103C149.28 292.186 149.363 292.201 149.447 292.215C149.53 292.229 149.544 292.146 149.558 292.063C149.572 291.985 149.405 291.957 149.405 291.957ZM148.829 288.877C148.746 288.863 148.731 288.946 148.717 289.029C148.703 289.112 148.786 289.126 148.869 289.141C148.952 289.155 148.966 289.072 148.981 288.989C148.912 288.891 148.912 288.891 148.829 288.877ZM148.177 285.767C148.094 285.753 148.08 285.836 148.066 285.914C148.053 285.991 148.135 286.011 148.219 286.026C148.302 286.04 148.316 285.957 148.329 285.879C148.427 285.81 148.261 285.782 148.177 285.767ZM147.684 282.702C147.601 282.688 147.586 282.771 147.572 282.854C147.558 282.937 147.641 282.951 147.724 282.966C147.807 282.98 147.822 282.897 147.836 282.814C147.801 282.759 147.747 282.719 147.684 282.702ZM135.854 285.087C135.923 285.185 135.923 285.185 136.021 285.116C136.104 285.13 136.118 285.047 136.049 284.949C136.064 284.866 135.98 284.852 135.883 284.921C135.785 284.99 135.774 285.056 135.857 285.07L135.854 285.087ZM138.375 283.312C138.362 283.39 138.445 283.404 138.542 283.341C138.638 283.278 138.639 283.272 138.57 283.175C138.502 283.077 138.502 283.077 138.404 283.146L138.375 283.312ZM141.176 281.409C141.093 281.394 141.078 281.477 141.147 281.575C141.133 281.658 141.21 281.672 141.308 281.603C141.391 281.617 141.405 281.534 141.337 281.436C141.268 281.339 141.19 281.325 141.176 281.409ZM143.166 293.575C143.162 293.598 143.167 293.62 143.18 293.639C143.193 293.657 143.213 293.669 143.235 293.673C143.318 293.687 143.318 293.687 143.332 293.604C143.347 293.521 143.346 293.527 143.262 293.512L143.166 293.575ZM143.776 290.535C143.761 290.618 143.761 290.618 143.845 290.632C143.928 290.647 143.922 290.646 143.937 290.563C143.951 290.479 143.951 290.479 143.873 290.466C143.89 290.366 143.807 290.352 143.779 290.518L143.776 290.535ZM144.593 287.25C144.51 287.236 144.51 287.236 144.496 287.319C144.481 287.402 144.481 287.402 144.565 287.417C144.648 287.431 144.648 287.431 144.662 287.348L144.593 287.25ZM145.217 284.127C145.134 284.112 145.134 284.112 145.12 284.195C145.106 284.279 145.106 284.278 145.189 284.293L145.272 284.307L145.286 284.224C145.288 284.213 145.288 284.202 145.285 284.191C145.283 284.18 145.278 284.17 145.272 284.161C145.266 284.152 145.258 284.144 145.248 284.138C145.239 284.132 145.228 284.128 145.217 284.127ZM145.827 281.086C145.744 281.072 145.744 281.072 145.73 281.155C145.715 281.238 145.8 281.247 145.8 281.247C145.81 281.249 145.821 281.25 145.832 281.248C145.842 281.246 145.853 281.242 145.862 281.236C145.871 281.23 145.879 281.222 145.884 281.213C145.89 281.204 145.894 281.194 145.896 281.183L145.91 281.1C145.979 281.198 145.994 281.115 145.827 281.086ZM155.15 291.257C155.053 291.32 155.053 291.32 155.122 291.418C155.108 291.501 155.191 291.515 155.288 291.446C155.366 291.46 155.38 291.377 155.316 291.286L155.15 291.257ZM153.481 288.583C153.384 288.652 153.384 288.652 153.452 288.749C153.438 288.832 153.521 288.847 153.619 288.778C153.716 288.709 153.711 288.708 153.647 288.612L153.481 288.583ZM148.153 280.944C148.138 281.028 148.221 281.042 148.319 280.973C148.402 280.987 148.416 280.904 148.348 280.807C148.362 280.724 148.279 280.709 148.181 280.778C148.106 280.719 148.078 280.88 148.147 280.978L148.153 280.944ZM137.371 284.703L137.356 284.787L137.439 284.801L137.454 284.718L137.371 284.703ZM138.703 283.397L138.689 283.481L138.767 283.494L138.781 283.411L138.703 283.397ZM140.044 282.013L140.03 282.096L140.113 282.11L140.127 282.027L140.044 282.013ZM144.693 287.667C144.595 287.736 144.582 287.814 144.693 287.667C144.68 287.676 144.669 287.687 144.661 287.699C144.652 287.712 144.647 287.727 144.644 287.742C144.642 287.757 144.642 287.772 144.646 287.787C144.649 287.802 144.656 287.816 144.665 287.828C144.817 287.94 144.831 287.857 144.693 287.667ZM144.757 285.806C144.665 285.875 144.65 285.958 144.757 285.806C144.732 285.824 144.715 285.852 144.71 285.883C144.704 285.914 144.711 285.946 144.728 285.972C144.714 286.055 144.811 285.986 144.757 285.806ZM144.743 283.931C144.646 283.999 144.631 284.083 144.743 283.931C144.73 283.939 144.719 283.951 144.711 283.964C144.702 283.977 144.696 283.992 144.694 284.008C144.691 284.023 144.692 284.039 144.695 284.054C144.699 284.07 144.705 284.084 144.714 284.097C144.714 284.097 144.798 284.111 144.743 283.931ZM144.627 282.123L144.529 282.192L144.612 282.207C144.764 282.318 144.779 282.235 144.627 282.123ZM148.001 280.833L147.986 280.916L148.069 280.93L148.084 280.847C148.111 280.686 148.028 280.672 148.001 280.833ZM140.977 286.005C141.046 286.102 141.046 286.102 141.143 286.033L140.977 286.005C141.06 286.019 141.075 285.936 140.977 286.005ZM141.77 284.354C141.766 284.376 141.771 284.399 141.784 284.417C141.797 284.436 141.817 284.448 141.839 284.452C141.861 284.456 141.883 284.45 141.902 284.438C141.92 284.425 141.932 284.405 141.936 284.383C141.867 284.285 141.882 284.202 141.77 284.354ZM142.43 282.51L142.499 282.607C142.521 282.611 142.544 282.606 142.562 282.593C142.58 282.58 142.593 282.561 142.597 282.539L142.43 282.51ZM143.145 280.846L143.214 280.944C143.225 280.946 143.236 280.945 143.247 280.943C143.258 280.94 143.268 280.936 143.277 280.929C143.286 280.923 143.294 280.915 143.3 280.906C143.306 280.896 143.31 280.886 143.312 280.875C143.312 280.875 143.339 280.714 143.145 280.846C143.16 280.763 143.243 280.777 143.145 280.846ZM148.11 286.127C148.11 286.127 148.179 286.224 148.193 286.141C148.207 286.058 148.29 286.072 148.207 286.058L148.13 286.045L148.11 286.127ZM147.487 284.307C147.487 284.307 147.39 284.375 147.473 284.39C147.556 284.404 147.542 284.487 147.556 284.404L147.57 284.321L147.487 284.307ZM146.751 282.65C146.751 282.65 146.653 282.718 146.737 282.733C146.82 282.747 146.805 282.83 146.82 282.747C146.834 282.664 146.917 282.678 146.834 282.664C146.863 282.498 146.78 282.483 146.751 282.65ZM146.128 280.83C146.045 280.815 146.017 280.982 146.128 280.83C146.127 280.84 146.127 280.852 146.129 280.862C146.132 280.873 146.136 280.883 146.143 280.893C146.149 280.902 146.157 280.909 146.167 280.915C146.176 280.921 146.186 280.925 146.197 280.927L146.212 280.844L146.128 280.83ZM135.954 286.497L135.939 286.58L136.023 286.595L136.034 286.528C135.965 286.431 135.951 286.514 135.951 286.514L135.954 286.497ZM137.19 284.758L137.177 284.835L137.26 284.85L137.273 284.772C137.287 284.689 137.204 284.675 137.19 284.758ZM138.358 282.915L138.344 282.999L138.427 283.013L138.439 282.946L138.358 282.915ZM139.595 281.17L139.581 281.254L139.664 281.268L139.679 281.185L139.595 281.17ZM144.831 288.353L144.734 288.422C144.734 288.422 144.803 288.52 144.817 288.436L144.914 288.368C144.914 288.368 144.846 288.27 144.831 288.353ZM144.431 286.24L144.333 286.309L144.402 286.407L144.499 286.338C144.514 286.255 144.514 286.255 144.431 286.24ZM144.023 284.132L143.926 284.201C143.926 284.201 143.996 284.293 144.009 284.215L144.106 284.146L144.023 284.132ZM143.594 282.185C143.592 282.196 143.592 282.207 143.595 282.218C143.597 282.229 143.602 282.239 143.608 282.248C143.615 282.257 143.623 282.265 143.632 282.271C143.641 282.277 143.652 282.281 143.663 282.283L143.76 282.214L143.691 282.116C143.614 282.069 143.585 282.235 143.585 282.235L143.594 282.185ZM133.669 282.432L133.655 282.51L133.738 282.524L133.752 282.447C133.752 282.447 133.683 282.349 133.669 282.432ZM135.486 281.295L135.472 281.379L135.555 281.393L135.569 281.31L135.486 281.295ZM140.351 287.153C140.42 287.25 140.503 287.265 140.517 287.181C140.519 287.17 140.519 287.159 140.516 287.148C140.514 287.138 140.51 287.127 140.503 287.118C140.497 287.109 140.489 287.102 140.479 287.096C140.47 287.09 140.459 287.086 140.449 287.084L140.351 287.153ZM140.775 285.188C140.844 285.285 140.927 285.299 140.942 285.216C140.956 285.133 140.97 285.05 140.775 285.188C140.859 285.168 140.781 285.154 140.767 285.238L140.775 285.188ZM141.324 282.999C141.227 283.067 141.212 283.151 141.295 283.165C141.379 283.179 141.379 283.179 141.324 282.999C141.393 283.096 141.407 283.013 141.324 282.999ZM141.86 280.882C141.777 280.867 141.777 280.867 141.763 280.95C141.759 280.972 141.764 280.995 141.777 281.013C141.79 281.032 141.81 281.044 141.832 281.048L141.86 280.882ZM148.513 285.774L148.499 285.857L148.582 285.871L148.588 285.838L148.504 285.824L148.513 285.774ZM147.292 283.948L147.279 284.025L147.362 284.04L147.375 283.962L147.292 283.948ZM146.161 282.131L146.147 282.214L146.23 282.229L146.244 282.145L146.161 282.131ZM133.025 281.231C132.928 281.3 132.913 281.383 132.996 281.397C133.065 281.495 133.148 281.509 133.163 281.426C133.177 281.343 133.275 281.274 133.191 281.26L133.025 281.231ZM136.894 295.846C136.871 295.833 136.844 295.827 136.817 295.829C136.79 295.832 136.765 295.842 136.744 295.859C136.723 295.876 136.708 295.898 136.7 295.924C136.692 295.95 136.692 295.977 136.7 296.003C136.707 296.028 136.723 296.051 136.743 296.068C136.764 296.085 136.789 296.096 136.816 296.098C136.843 296.101 136.87 296.095 136.893 296.082C136.917 296.07 136.936 296.05 136.949 296.026C136.963 295.943 136.963 295.943 136.894 295.846ZM137.589 292.311C137.524 292.309 137.461 292.328 137.408 292.366C137.406 292.429 137.425 292.491 137.464 292.541L137.643 292.492C137.658 292.409 137.672 292.326 137.589 292.311ZM138.285 288.772C138.269 288.76 138.251 288.752 138.232 288.748C138.213 288.744 138.194 288.744 138.175 288.748C138.156 288.752 138.138 288.76 138.122 288.772C138.107 288.784 138.094 288.799 138.085 288.816C138.075 288.833 138.07 288.852 138.069 288.871C138.068 288.891 138.071 288.91 138.078 288.928C138.085 288.947 138.096 288.963 138.11 288.977C138.124 288.99 138.14 289 138.159 289.007C138.223 289.009 138.287 288.99 138.339 288.952C138.354 288.869 138.382 288.703 138.285 288.772ZM139.008 285.071C138.945 285.069 138.882 285.086 138.829 285.12C138.827 285.185 138.846 285.248 138.883 285.301L139.064 285.246C139.078 285.163 139.078 285.163 139.008 285.071ZM139.704 281.532C139.681 281.519 139.654 281.513 139.627 281.515C139.601 281.518 139.575 281.528 139.554 281.545C139.533 281.562 139.518 281.585 139.51 281.61C139.502 281.636 139.502 281.663 139.51 281.689C139.518 281.715 139.533 281.738 139.554 281.755C139.574 281.772 139.6 281.782 139.626 281.784C139.653 281.787 139.68 281.781 139.704 281.769C139.727 281.756 139.747 281.736 139.759 281.712C139.761 281.648 139.742 281.584 139.704 281.532ZM151.857 293.07C151.92 293.167 152.003 293.181 152.018 293.098C152.032 293.015 152.129 292.946 152.046 292.931C151.977 292.834 151.9 292.821 151.885 292.904C151.782 293.006 151.768 293.089 151.851 293.103L151.857 293.07ZM149.76 289.9C149.663 289.968 149.648 290.052 149.731 290.066C149.8 290.163 149.883 290.178 149.898 290.095C149.995 290.026 150.01 289.943 149.926 289.928C149.955 289.762 149.872 289.748 149.76 289.9ZM147.746 286.743C147.655 286.813 147.64 286.896 147.718 286.91C147.795 286.923 147.87 287.022 147.884 286.938C147.982 286.87 147.996 286.786 147.913 286.772L147.746 286.743ZM145.793 283.769C145.695 283.838 145.695 283.838 145.764 283.935C145.833 284.033 145.916 284.047 145.931 283.964C146.028 283.895 146.042 283.812 145.959 283.798C145.889 283.706 145.806 283.691 145.793 283.769ZM143.681 280.687C143.583 280.756 143.57 280.834 143.653 280.848C143.722 280.946 143.805 280.96 143.819 280.877C143.834 280.794 143.93 280.73 143.847 280.716L143.681 280.687ZM134.258 285.44C134.243 285.523 134.229 285.606 134.312 285.621C134.395 285.635 134.479 285.649 134.493 285.566C134.507 285.483 134.522 285.4 134.438 285.385C134.453 285.302 134.37 285.288 134.258 285.44ZM136.25 282.295C136.236 282.378 136.221 282.461 136.305 282.476C136.388 282.49 136.471 282.504 136.485 282.421C136.5 282.338 136.514 282.255 136.431 282.241C136.378 282.278 136.315 282.297 136.25 282.295ZM144.081 294.196C143.998 294.181 143.983 294.265 143.969 294.348C143.955 294.431 144.038 294.445 144.121 294.46C144.204 294.474 144.219 294.391 144.233 294.308C144.247 294.224 144.164 294.21 144.081 294.196ZM143.423 290.594C143.34 290.58 143.325 290.663 143.311 290.746C143.297 290.829 143.38 290.843 143.463 290.858C143.546 290.872 143.561 290.789 143.575 290.706C143.513 290.686 143.46 290.647 143.423 290.594ZM142.588 287.025C142.505 287.01 142.491 287.093 142.476 287.176C142.462 287.26 142.545 287.274 142.628 287.288C142.712 287.303 142.726 287.22 142.74 287.136C142.755 287.053 142.755 287.053 142.588 287.025ZM141.853 283.409C141.77 283.395 141.755 283.478 141.741 283.561C141.727 283.645 141.81 283.659 141.887 283.672C141.965 283.686 141.985 283.603 141.999 283.52C142.014 283.437 141.93 283.423 141.853 283.409ZM146.533 280.471C146.518 280.554 146.504 280.637 146.587 280.652C146.67 280.666 146.748 280.679 146.762 280.596C146.777 280.513 146.79 280.435 146.707 280.421C146.624 280.407 146.546 280.393 146.533 280.471ZM133.243 282.947C133.229 283.03 133.214 283.113 133.298 283.128C133.381 283.142 133.464 283.156 133.478 283.073C133.493 282.99 133.507 282.907 133.424 282.892C133.355 282.795 133.243 282.947 133.243 282.947ZM141.844 295.317C141.76 295.303 141.746 295.386 141.732 295.469C141.717 295.552 141.801 295.567 141.884 295.581C141.967 295.595 141.976 295.511 141.99 295.428C141.958 295.373 141.905 295.334 141.844 295.317ZM141.186 291.716C141.103 291.701 141.088 291.784 141.074 291.867C141.06 291.951 141.143 291.965 141.226 291.979C141.309 291.994 141.323 291.911 141.338 291.827C141.352 291.744 141.269 291.73 141.186 291.716ZM140.611 288.128C140.528 288.114 140.514 288.197 140.499 288.28C140.485 288.363 140.568 288.378 140.651 288.392C140.734 288.406 140.749 288.323 140.763 288.24C140.792 288.074 140.694 288.142 140.611 288.128ZM140.051 284.458C139.967 284.443 139.953 284.526 139.939 284.609C139.924 284.693 140.008 284.707 140.091 284.721C140.174 284.736 140.188 284.653 140.203 284.569C140.217 284.486 140.134 284.472 140.051 284.458ZM148.904 283.009C148.89 283.093 148.875 283.176 148.959 283.19C149.042 283.204 149.125 283.219 149.139 283.136C149.154 283.052 149.168 282.969 149.085 282.955C149.002 282.941 149.002 282.941 148.904 283.009ZM146.002 281.065C146.013 281.087 146.029 281.106 146.049 281.12C146.069 281.135 146.092 281.145 146.116 281.149C146.14 281.153 146.165 281.152 146.189 281.144C146.212 281.137 146.234 281.125 146.252 281.108C146.265 281.099 146.276 281.087 146.284 281.074C146.293 281.061 146.298 281.046 146.301 281.031C146.304 281.015 146.303 280.999 146.3 280.984C146.296 280.969 146.29 280.954 146.28 280.941L146.197 280.927C146.186 280.925 146.175 280.925 146.164 280.928C146.154 280.93 146.143 280.935 146.134 280.941C146.125 280.948 146.117 280.956 146.112 280.965C146.106 280.975 146.102 280.985 146.1 280.996C145.841 281.008 145.826 281.091 145.993 281.12L146.002 281.065ZM134.986 289.625C134.984 289.689 135.003 289.753 135.041 289.805C135.124 289.82 135.207 289.834 135.222 289.751C135.224 289.686 135.205 289.623 135.167 289.57C135.167 289.57 134.991 289.597 134.977 289.68L134.986 289.625ZM136.043 285.982C135.978 285.979 135.915 285.998 135.862 286.036C135.851 286.066 135.852 286.1 135.863 286.13C135.875 286.16 135.897 286.185 135.925 286.2C135.954 286.215 135.987 286.22 136.018 286.213C136.05 286.206 136.078 286.188 136.097 286.162C136.189 286.093 136.126 285.996 136.043 285.982ZM136.899 282.47C136.836 282.467 136.774 282.487 136.724 282.525C136.721 282.589 136.738 282.652 136.773 282.705C136.856 282.719 136.939 282.734 136.954 282.65C136.956 282.586 136.937 282.522 136.899 282.47ZM148.031 291.023C147.939 291.093 147.924 291.176 148.002 291.189C148.079 291.203 148.154 291.301 148.168 291.218C148.183 291.135 148.266 291.149 148.197 291.052C148.294 290.983 148.211 290.968 148.031 291.023ZM146.202 287.819C146.105 287.888 146.09 287.971 146.174 287.985C146.257 288 146.327 288.092 146.34 288.014C146.353 287.936 146.432 287.944 146.369 287.848L146.202 287.819ZM144.257 284.76C144.16 284.829 144.146 284.912 144.229 284.927C144.298 285.024 144.381 285.038 144.395 284.955C144.41 284.872 144.493 284.887 144.424 284.789L144.257 284.76ZM142.313 281.702C142.215 281.771 142.201 281.854 142.284 281.868C142.353 281.966 142.436 281.98 142.45 281.897C142.548 281.828 142.548 281.828 142.479 281.73C142.493 281.647 142.327 281.619 142.313 281.702ZM147.937 280.205C148.021 280.219 148.021 280.219 148.035 280.136C148.049 280.053 148.049 280.053 147.966 280.039C147.883 280.024 147.883 280.024 147.869 280.108C147.853 280.118 147.842 280.134 147.836 280.152C147.831 280.17 147.831 280.19 147.838 280.207C147.845 280.225 147.857 280.24 147.874 280.25C147.89 280.259 147.909 280.263 147.928 280.261L147.937 280.205ZM133.694 281.323C133.68 281.407 133.68 281.407 133.763 281.421C133.846 281.435 133.841 281.434 133.855 281.351C133.869 281.268 133.869 281.268 133.792 281.255C133.806 281.171 133.806 281.171 133.694 281.323ZM141.96 289.211C141.946 289.295 142.023 289.308 142.121 289.239C142.204 289.253 142.218 289.17 142.149 289.073C142.164 288.99 142.081 288.975 141.989 289.045L141.96 289.211ZM141.145 286.519C141.062 286.504 141.048 286.588 141.117 286.685C141.102 286.768 141.186 286.783 141.283 286.714C141.361 286.727 141.375 286.644 141.312 286.547L141.145 286.519ZM140.15 283.881C140.067 283.867 140.053 283.95 140.121 284.047C140.19 284.145 140.19 284.145 140.288 284.076C140.371 284.09 140.385 284.007 140.316 283.91L140.15 283.881ZM139.14 281.326C139.063 281.313 139.048 281.396 139.112 281.492C139.097 281.576 139.181 281.59 139.278 281.521C139.361 281.535 139.376 281.452 139.39 281.369L139.14 281.326ZM136.358 288.588C136.342 288.585 136.325 288.587 136.31 288.594C136.294 288.601 136.282 288.612 136.273 288.626C136.264 288.64 136.259 288.657 136.26 288.673C136.26 288.69 136.265 288.706 136.275 288.72C136.285 288.734 136.298 288.744 136.314 288.75C136.329 288.756 136.346 288.757 136.363 288.754C136.379 288.75 136.394 288.741 136.405 288.729C136.417 288.717 136.424 288.702 136.427 288.686L136.358 288.588ZM136.315 285.857C136.293 285.854 136.271 285.859 136.252 285.872C136.234 285.884 136.222 285.904 136.218 285.926C136.214 285.948 136.219 285.971 136.232 285.989C136.245 286.007 136.265 286.02 136.287 286.024C136.309 286.028 136.331 286.022 136.35 286.009C136.368 285.997 136.38 285.977 136.384 285.955C136.467 285.969 136.482 285.886 136.315 285.857ZM136.458 283.073C136.436 283.069 136.414 283.074 136.395 283.087C136.377 283.1 136.365 283.12 136.361 283.142C136.359 283.153 136.359 283.164 136.362 283.175C136.364 283.186 136.369 283.196 136.375 283.205C136.382 283.214 136.39 283.222 136.399 283.228C136.408 283.234 136.419 283.238 136.43 283.239C136.441 283.241 136.452 283.241 136.463 283.239C136.473 283.236 136.484 283.232 136.493 283.225C136.502 283.219 136.51 283.211 136.515 283.201C136.521 283.192 136.525 283.182 136.527 283.171L136.458 283.073ZM146.076 285.074L146.242 285.103L146.271 284.936L146.105 284.908C146.02 285.036 146.006 285.119 146.066 285.129L146.076 285.074ZM144.195 283.134L144.362 283.163L144.39 282.996L144.224 282.968C144.131 283.009 144.186 283.189 144.186 283.189L144.195 283.134ZM142.291 280.933L142.262 281.099L142.423 281.127L142.452 280.961L142.291 280.933ZM135.792 282.536L135.777 282.619C135.846 282.716 135.861 282.633 135.792 282.536ZM135.54 281.048L135.527 281.125C135.596 281.223 135.61 281.14 135.54 281.048C135.61 281.14 135.623 281.062 135.54 281.048ZM137.427 284.941C137.343 284.927 137.329 285.01 137.412 285.025C137.412 285.025 137.476 285.121 137.49 285.038L137.504 284.955L137.427 284.941ZM136.248 282.871C136.248 282.871 136.151 282.935 136.234 282.949C136.234 282.949 136.303 283.046 136.318 282.963C136.318 282.963 136.414 282.9 136.331 282.886C136.345 282.802 136.262 282.788 136.248 282.871Z" fill="white"/>
<path d="M131.787 280.03C131.924 280.068 132.056 280.12 132.183 280.183C134.291 280.804 144.891 283.568 156.871 275.339L153.61 242.366C152.119 240.596 150.282 239.151 148.211 238.118C147.739 238.374 130.459 249.685 131.787 280.03Z" fill="url(#paint11_linear_2266_9722)"/>
<path d="M148.21 238.118C144.141 242.943 139.923 255.061 141.927 266.152C143.931 277.242 145.489 279.103 153.154 280.077C156.575 280.501 160.547 275.739 167.065 277.97C175.027 280.702 181.434 271.684 181.434 271.684L178.013 256.462C178.013 256.462 175.918 257.716 170.5 259.505C164.532 261.536 161.361 260.653 158.942 257.004C154.864 250.855 153.691 242.488 153.691 242.488" fill="#23286B"/>
<path d="M150.98 233.915C151.033 234.604 148.128 238.105 148.128 238.105C150.128 239.246 151.948 240.677 153.527 242.353C153.429 240.971 155.076 237.345 155.076 237.345L150.98 233.915Z" fill="url(#paint12_linear_2266_9722)"/>
<path d="M152.089 235.892L151.21 235.061L151.072 234.866L150.852 234.657C151.006 234.544 151.123 234.387 151.186 234.206C151.739 233.451 151.22 233.019 150.591 232.231C149.873 231.428 150.298 229.457 152.209 230.227C154.121 230.996 155.351 231.87 157.039 230.888C158.727 229.906 159.085 228.957 160.537 229.875C160.988 230.204 162.186 230.245 163.526 229.82L163.412 230.485C163.389 230.655 163.332 230.818 163.244 230.964C162.861 232.685 163.486 234.494 163.401 234.988C163.315 235.481 162.127 235.453 161.736 235.272C161.251 235.103 159.972 237.091 157.581 237.615C155.579 238.366 153.708 237.364 152.089 235.892Z" fill="#FFBEB6"/>
<path d="M137.763 231.042L137.751 230.612C137.71 230.353 137.948 229.966 138.281 230.023L163.861 227.885L163.94 228.921L137.763 231.042Z" fill="#E94A47"/>
<path d="M146.853 229.206L146.693 227.649C146.566 225.968 147.1 224.304 148.183 223.012C149.265 221.721 150.81 220.903 152.487 220.734L156.974 220.401C158.59 220.262 160.194 220.77 161.435 221.814C162.676 222.857 163.451 224.351 163.591 225.966L163.776 227.871L146.853 229.206Z" fill="url(#paint13_linear_2266_9722)"/>
<path d="M150.954 232.58C149.668 231.165 151.168 229.385 152.744 230.605C154.475 231.925 156.702 231.858 157.862 230.722C159.082 229.574 159.65 229.757 161.065 230.424C162.48 231.09 166.053 231.626 167.307 229.787C168.64 227.979 167.54 225.488 165.554 227.104C163.568 228.72 163.824 228.764 163.296 228.844C162.768 228.925 146.538 230.208 146.538 230.208C146.538 230.208 146.268 231.778 147.859 233.411C149.435 235.127 150.694 234.75 150.694 234.75C150.694 234.75 152.32 234.06 150.954 232.58Z" fill="#23286B"/>
<path d="M162.111 232.094C162.167 232.269 162.396 232.394 162.548 232.506C162.801 232.612 163.085 232.616 163.34 232.518C163.596 232.419 163.803 232.225 163.918 231.977C164.03 231.825 164.349 231.965 164.237 232.117C164.197 232.248 164.128 232.368 164.037 232.47C163.945 232.571 163.833 232.652 163.707 232.705C163.566 232.808 163.404 232.879 163.234 232.914C163.063 232.95 162.887 232.949 162.716 232.911C162.546 232.874 162.385 232.801 162.245 232.697C162.105 232.593 161.988 232.461 161.903 232.309C161.696 232.022 161.988 231.815 162.111 232.094Z" fill="#1C2868"/>
<path d="M363.774 291.34C366.261 292.634 368.097 291.928 370.644 292.281C374.02 292.81 372.954 294.81 372.835 297.632C372.598 302.278 373.368 306.982 372.717 311.393C370.703 310.158 369.756 308.453 368.926 306.277C368.038 303.807 367.564 303.278 365.255 301.925C363.241 300.749 361.465 299.455 359.333 298.397C357.437 297.456 354.595 296.809 353.114 295.339C354.239 293.163 354.299 290.87 354.713 288.576C357.734 289.047 361.109 291.458 363.774 291.34Z" fill="#FFBEB6"/>
<path d="M369.224 292.046C371.949 291.635 377.338 291.164 377.575 292.105C377.575 295.692 377.752 301.337 377.752 305.336C377.752 309.688 377.752 314.451 377.516 318.626C377.397 321.214 369.639 314.863 369.402 305.042C369.343 303.043 369.284 301.925 369.284 299.573C369.343 297.103 369.402 292.928 369.224 292.046Z" fill="#428DFC"/>
<path d="M361.229 251.824C362.058 252.471 364.9 254.529 365.256 254.294C366.203 253.412 365.493 252.941 364.782 252.294C365.315 252.412 366.736 252.647 366.618 251.706C366.559 251.295 364.9 250.295 364.604 249.942C363.657 248.884 363.597 248.531 362.531 249.589C361.939 250.119 361.11 251.295 361.229 251.824Z" fill="#F2A19C"/>
<path d="M385.922 238.945C383.909 239.945 382.073 241.062 379.822 241.768C377.157 242.65 374.374 243.238 371.65 244.003C368.925 244.767 365.372 245.12 362.944 246.472C361.76 247.119 361.7 248.354 361.167 249.648C360.634 250.824 359.924 251.941 359.331 253.117C358.976 253.823 357.969 255.058 357.969 255.822C358.088 257.881 359.45 255.646 359.924 254.94C360.516 253.999 361.167 253.117 361.7 252.118C362.174 251.236 362.648 249.589 363.536 249.06C364.128 248.648 365.905 248.119 366.616 248.06C367.741 248.001 375.381 249.707 376.447 249.119C377.513 248.531 380.711 248.707 381.895 248.766C383.731 248.825 387.343 247.707 388.113 246.943C388.528 246.472 388.883 245.826 389.357 245.355C390.364 244.238 390.897 243.062 391.252 241.592C391.548 240.298 392.081 238.945 391.371 237.946C390.719 237.064 389.061 236.24 388.054 236.123C387.699 236.887 386.633 238.651 385.922 238.945Z" fill="url(#paint14_linear_2266_9722)"/>
<path d="M341.506 267.936H359.628L348.257 245.119H330.135L341.506 267.936Z" fill="#A1C3FC"/>
<path d="M342.337 266.173L356.491 264.761L347.726 246.885H332.743L342.337 266.173Z" fill="#428DFC"/>
<path d="M354.002 340.208C352.699 342.677 353.41 344.5 353.054 347.029C352.521 350.381 350.508 349.322 347.665 349.205C342.987 348.969 338.249 349.734 333.807 349.146C335.051 347.147 336.768 346.147 338.9 345.382C341.388 344.5 341.921 344.03 343.283 341.736C344.467 339.737 345.77 337.973 346.777 335.856C347.724 333.974 348.376 331.152 349.856 329.681C352.048 330.74 354.357 330.858 356.667 331.269C356.252 334.209 353.824 337.561 354.002 340.208Z" fill="#FFBEB6"/>
<path d="M380.831 255.94C381.541 257.881 381.245 258.645 380.949 260.645C380.535 263.702 379.824 263.761 376.626 264.29C369.993 265.29 362.413 266.995 355.78 268.23C350.568 269.23 342.277 270.994 340.027 276.639C337.954 281.756 343.521 287.93 347.074 291.106C351.812 295.339 357.32 298.633 361.88 303.043C364.841 305.866 369.105 310.629 370.585 314.392C370.111 311.57 371.414 307.336 371.888 304.395C372.421 300.808 372.776 297.868 371.059 294.457C370.348 293.105 368.098 290.988 366.913 289.988C365.078 288.459 367.21 286.048 365.492 285.343C359.925 283.108 361.702 283.637 358.978 281.873C360.162 284.813 369.815 282.344 372.362 281.873C376.922 280.991 381.541 280.873 386.042 279.874C388.47 279.345 391.254 279.109 392.853 276.875C394.333 274.875 396.465 271.817 396.998 269.524C398.42 263.585 397.709 258.057 397.531 252.118C392.912 254.94 385.983 254.117 380.653 255.528C381.127 255.117 380.238 256.234 380.831 255.94Z" fill="#151A4F"/>
<path d="M401.143 249.119C402.624 253 401.735 259.821 400.906 264.114C399.781 269.759 397.057 273.111 393.503 277.463C387.344 284.931 375.796 293.634 374.671 303.866C374.138 308.864 373.782 313.098 370.999 317.626C368.334 321.919 364.129 323.389 363.715 328.799C363.359 334.151 362.234 340.796 357.496 343.442C357.496 343.442 347.073 343.853 342.336 343.324C344.764 338.855 347.192 333.033 349.087 329.27C351.396 324.624 353.469 319.92 355.127 315.039C358.503 305.101 359.332 292.693 365.077 283.696C367.327 280.168 370.407 277.169 373.309 274.228C374.789 272.758 376.211 271.288 377.395 269.642C378.698 267.76 379.112 266.878 379.942 264.643C381.718 259.939 382.962 253.999 381.541 249.236C388.114 249.236 394.688 249.413 401.202 248.942C400.847 248.413 401.38 249.589 401.143 249.119Z" fill="url(#paint15_linear_2266_9722)"/>
<path d="M392.616 213.483C396.999 216.717 397.709 220.069 399.249 225.185C402.092 234.417 404.401 245.649 410.323 253.47C404.105 260.409 391.965 260.703 383.555 259.468C380.535 258.998 375.442 257.998 375.442 257.998C375.442 257.998 379.528 250.059 379.943 247.531C380.831 242.18 380.831 237.593 380.239 232.3C379.706 227.714 379.173 223.244 378.403 218.893C377.692 214.894 378.995 211.542 384.266 211.013C387.049 210.719 390.129 211.601 392.616 213.483Z" fill="url(#paint16_linear_2266_9722)"/>
<path d="M377.278 206.662C379.113 208.779 381.838 210.308 384.029 211.366C383.2 213.601 380.416 215.659 377.988 216.365C376.448 214.189 374.672 214.718 373.014 212.66C374.909 211.131 376.093 209.367 376.863 207.015C376.863 207.838 377.574 205.897 377.278 206.662Z" fill="#F2A19C"/>
<path d="M353.293 345.618C353.708 348.323 354.241 353.674 353.293 353.909C349.681 353.909 343.995 354.144 339.968 354.144C335.586 354.144 330.789 354.203 326.584 353.968C323.978 353.85 330.374 346.147 340.205 345.853C342.219 345.794 343.344 345.676 345.713 345.735C348.2 345.735 352.346 345.794 353.293 345.618Z" fill="url(#paint17_linear_2266_9722)"/>
<path d="M342.278 269.936L364.486 270.877V267.643H341.331V268.937C341.331 269.466 341.745 269.936 342.278 269.936Z" fill="#8CB6F1"/>
<path d="M361.88 271.229L373.547 268.524C374.02 268.406 374.316 267.995 374.316 267.583V265.936L361.88 268.053V271.229Z" fill="#78A9EF"/>
<path d="M373.131 203.839C370.644 200.487 367.031 199.781 362.886 201.839C359.569 203.486 359.451 209.308 361.997 213.189C363.36 215.188 366.676 220.363 373.072 218.599C378.224 217.188 375.263 208.837 374.612 206.191C374.671 206.544 373.486 203.545 373.131 203.839Z" fill="url(#paint18_linear_2266_9722)"/>
<path d="M364.071 205.426C362.057 205.25 362.827 216.187 362.827 216.187L357.557 216.07C357.557 216.07 356.372 205.544 361.998 203.427C362.887 204.191 363.36 204.485 364.071 205.426Z" fill="#151A4F"/>
<path d="M356.373 215.953C356.55 215.953 356.609 215.835 356.609 215.659C356.254 211.954 358.623 205.603 361.643 203.956C361.762 203.898 361.821 203.721 361.762 203.604C361.703 203.486 361.525 203.427 361.406 203.486C358.149 205.25 355.78 211.777 356.136 215.659C356.136 215.894 356.254 215.953 356.373 215.953Z" fill="#151A4F"/>
<path d="M369.637 247.589C369.281 247.648 368.807 248.942 368.393 249.412C367.741 250.118 366.972 250.412 366.083 250.647C364.899 250.941 362.056 251.353 360.99 250.647C358.858 249.295 363.477 248.648 364.247 248.53C365.55 248.354 368.452 246.531 369.4 247.472C369.222 247.472 369.755 247.648 369.637 247.589Z" fill="#FFBEB6"/>
<path d="M358.447 265.583L374.378 265.936L363.481 267.818L341.332 267.641L358.447 265.583Z" fill="#C3D9FD"/>
<path d="M357.794 265.642C359.215 265.231 360.222 263.996 361.821 263.408C364.723 262.29 366.618 257.821 368.276 255.292C370.171 252.47 371.948 250.353 374.257 247.942C376.153 246.001 378.285 242.767 380.653 241.532C380.653 241.65 380.594 241.826 380.594 241.944C382.667 242.297 383.851 240.532 384.621 243.237C385.036 244.708 383.911 248.001 383.378 249.294C382.016 252.529 379.351 255.469 376.922 257.939C374.317 260.585 370.586 261.643 368.217 264.113C366.085 266.289 367.447 269.523 365.315 271.758C364.782 272.111 363.775 271.464 363.124 271.699C362.591 271.875 360.696 271.581 359.274 270.876C357.853 271.346 358.623 272.052 356.965 270.993C356.372 270.582 358.031 268.759 359.866 266.877C359.985 266.759 360.044 266.583 360.163 266.465C358.682 267.994 356.432 267.818 354.3 267.465C353.767 267.053 355.129 266.465 357.794 265.642Z" fill="url(#paint19_linear_2266_9722)"/>
<path d="M380.712 241.474C380.653 241.474 380.653 241.532 380.653 241.532C380.653 241.297 380.653 241.238 380.712 241.474Z" fill="url(#paint20_linear_2266_9722)"/>
<path d="M381.777 216.717C378.638 216.541 377.513 218.129 376.625 222.48C375.914 226.008 375.973 227.537 376.151 231.183C376.447 237.711 374.078 244.179 369.696 249.472C372.065 252.471 382.132 253.294 385.745 253.412C386.396 241.415 382.606 239.24 386.219 230.713C389.417 223.303 387.462 217.011 381.777 216.717Z" fill="#A1C3FC"/>
<path d="M360.518 204.074C362.946 196.9 374.198 198.37 377.396 202.133C381.245 206.661 380.712 217.07 380.475 222.715C378.995 223.068 368.749 222.891 368.749 222.891C368.749 222.891 369.993 214.6 368.157 211.483C367.565 210.484 362.472 211.483 361.465 210.425C359.807 208.661 360.991 204.191 360.518 204.074Z" fill="#151A4F"/>
<path d="M364.011 217.481C364.07 217.481 364.07 217.481 364.129 217.481C365.373 216.952 365.55 216.658 365.906 215.658C365.965 215.54 365.906 215.364 365.728 215.364C365.61 215.305 365.432 215.364 365.432 215.54C365.136 216.481 365.017 216.658 363.951 217.069C363.833 217.128 363.774 217.246 363.833 217.363C363.833 217.422 363.951 217.481 364.011 217.481Z" fill="#23286B"/>
<path d="M395.933 271.817C395.933 271.758 395.992 271.758 395.992 271.758C396.051 271.758 396.051 271.817 396.051 271.817C396.051 271.876 395.992 271.876 395.992 271.876L395.933 271.817ZM399.19 264.643C399.131 264.584 399.131 264.584 399.19 264.525C399.19 264.525 399.249 264.525 399.309 264.525C399.368 264.525 399.368 264.584 399.309 264.643C399.309 264.702 399.249 264.702 399.19 264.643ZM397.769 268.407C397.71 268.407 397.71 268.348 397.71 268.289C397.71 268.23 397.769 268.23 397.828 268.23C397.887 268.23 397.887 268.289 397.887 268.348C397.887 268.407 397.828 268.407 397.769 268.407ZM387.583 267.583C387.523 267.583 387.464 267.466 387.523 267.407C387.523 267.348 387.642 267.289 387.701 267.289C387.76 267.289 387.819 267.407 387.76 267.466C387.701 267.583 387.642 267.583 387.583 267.583ZM390.899 268.818C390.84 268.759 390.781 268.701 390.84 268.642C390.84 268.583 390.958 268.524 391.017 268.583C391.077 268.583 391.136 268.701 391.136 268.759C391.077 268.759 391.017 268.818 390.899 268.818ZM394.275 269.994C394.215 269.994 394.156 269.877 394.215 269.818C394.215 269.759 394.334 269.7 394.393 269.7C394.452 269.759 394.512 269.818 394.512 269.877C394.452 269.994 394.334 270.053 394.275 269.994ZM387.997 275.11C387.997 275.052 388.056 274.993 388.116 274.993C388.175 274.993 388.234 275.052 388.234 275.11C388.234 275.169 388.175 275.228 388.116 275.228C388.056 275.287 387.997 275.228 387.997 275.11ZM391.55 274.993C391.55 274.934 391.61 274.875 391.669 274.875C391.728 274.875 391.787 274.934 391.787 274.993C391.787 275.052 391.728 275.11 391.669 275.11C391.61 275.11 391.55 275.052 391.55 274.993ZM392.616 262.467C392.557 262.408 392.557 262.291 392.616 262.232C392.676 262.173 392.735 262.173 392.794 262.232C392.853 262.291 392.853 262.35 392.794 262.408C392.794 262.526 392.676 262.526 392.616 262.467ZM395.222 264.878C395.163 264.819 395.163 264.702 395.222 264.643C395.281 264.584 395.4 264.584 395.459 264.643C395.518 264.702 395.518 264.761 395.459 264.819C395.4 264.937 395.281 264.937 395.222 264.878ZM397.887 267.289C397.828 267.23 397.828 267.172 397.887 267.113C397.946 267.054 398.006 267.054 398.065 267.113C398.124 267.172 398.124 267.289 398.065 267.348C398.006 267.289 397.946 267.348 397.887 267.289ZM388.234 278.58C388.234 278.521 388.293 278.462 388.352 278.403C388.412 278.403 388.471 278.462 388.53 278.521C388.589 278.58 388.471 278.639 388.412 278.697C388.293 278.697 388.234 278.639 388.234 278.58ZM391.669 265.819C391.61 265.76 391.61 265.702 391.669 265.643C391.728 265.584 391.787 265.584 391.847 265.643C391.906 265.702 391.906 265.76 391.847 265.819C391.787 265.819 391.728 265.878 391.669 265.819ZM394.215 267.701C394.156 267.642 394.156 267.583 394.215 267.524C394.275 267.466 394.334 267.466 394.393 267.524C394.452 267.583 394.452 267.642 394.393 267.701C394.334 267.76 394.275 267.76 394.215 267.701ZM396.703 269.641C396.644 269.583 396.644 269.524 396.703 269.465C396.762 269.406 396.821 269.406 396.88 269.406C396.94 269.465 396.94 269.524 396.88 269.583C396.88 269.641 396.762 269.641 396.703 269.641ZM390.188 272.582C390.129 272.582 390.07 272.464 390.07 272.405C390.07 272.346 390.129 272.288 390.248 272.288C390.307 272.288 390.366 272.405 390.366 272.464C390.307 272.582 390.248 272.582 390.188 272.582ZM393.268 273.405C393.209 273.405 393.149 273.346 393.149 273.229C393.149 273.17 393.209 273.111 393.327 273.111C393.386 273.111 393.446 273.229 393.446 273.287C393.386 273.346 393.327 273.405 393.268 273.405ZM397.413 262.82C397.354 262.761 397.413 262.702 397.473 262.644C397.532 262.585 397.591 262.644 397.65 262.702C397.71 262.761 397.65 262.82 397.591 262.879C397.532 262.879 397.413 262.879 397.413 262.82ZM399.012 265.525C398.953 265.466 399.012 265.408 399.072 265.349C399.131 265.29 399.19 265.349 399.249 265.407C399.309 265.466 399.249 265.525 399.19 265.584C399.131 265.643 399.012 265.643 399.012 265.525C399.012 265.584 399.012 265.525 399.012 265.525ZM385.095 277.286C385.036 277.286 384.977 277.169 384.977 277.11C384.977 277.051 385.095 276.992 385.154 276.992C385.214 276.992 385.273 277.11 385.273 277.169C385.273 277.227 385.154 277.286 385.095 277.286ZM388.649 278.227C388.589 278.227 388.53 278.109 388.53 278.051C388.53 277.992 388.649 277.933 388.708 277.933C388.767 277.933 388.826 278.051 388.826 278.109C388.826 278.227 388.708 278.227 388.649 278.227ZM394.452 265.055C394.393 264.996 394.452 264.878 394.512 264.819C394.571 264.761 394.689 264.819 394.689 264.878C394.748 264.937 394.689 265.055 394.63 265.055C394.63 265.172 394.512 265.113 394.452 265.055ZM396.288 268.23C396.229 268.171 396.288 268.054 396.347 267.995C396.407 267.936 396.525 267.995 396.584 268.054C396.644 268.113 396.584 268.23 396.525 268.289C396.466 268.289 396.347 268.289 396.288 268.23ZM389.774 271.464C389.715 271.406 389.715 271.288 389.774 271.229C389.833 271.17 389.951 271.17 390.011 271.229C390.07 271.288 390.07 271.347 390.07 271.464C389.951 271.523 389.833 271.523 389.774 271.464ZM392.676 273.758C392.616 273.699 392.616 273.581 392.676 273.523C392.735 273.464 392.794 273.464 392.913 273.523C392.972 273.581 392.972 273.64 392.913 273.758C392.853 273.758 392.735 273.758 392.676 273.758ZM387.76 273.052C387.701 272.993 387.701 272.935 387.76 272.817C387.819 272.758 387.879 272.758 387.997 272.817C388.056 272.876 388.056 272.935 388.056 272.993C387.938 273.052 387.879 273.052 387.76 273.052ZM390.781 275.11C390.721 275.052 390.721 274.993 390.721 274.875C390.781 274.816 390.84 274.816 390.958 274.816C391.017 274.875 391.017 274.934 391.017 275.052C390.958 275.169 390.84 275.169 390.781 275.11ZM394.452 269.289C394.393 269.23 394.452 269.112 394.512 269.053C394.571 268.995 394.689 269.053 394.689 269.112C394.748 269.171 394.689 269.289 394.63 269.289C394.571 269.347 394.512 269.347 394.452 269.289Z" fill="white"/>
<path d="M70.8967 158.138L68.6101 154.543L65.006 156.83L67.3165 160.419L70.8967 158.138Z" fill="#A1C3FC"/>
<path d="M79.7362 186.574L73.4827 176.826L63.687 183.075L69.9358 192.823L79.7362 186.574Z" fill="#E94A47"/>
<path d="M69.5263 224.196L63.2727 214.448L53.4771 220.696L59.7259 230.444L69.5263 224.196Z" fill="#1D72D8"/>
<path d="M71.8704 206.003C71.8587 205.925 71.8277 205.851 71.7802 205.787C71.7327 205.724 71.6702 205.673 71.5983 205.64C60.2321 200.427 53.2577 187.214 55.3295 174.912C55.3432 174.852 55.3445 174.79 55.3333 174.729C55.3222 174.668 55.2988 174.611 55.2645 174.559C55.2303 174.508 55.186 174.464 55.1343 174.431C55.0826 174.397 55.0246 174.375 54.9638 174.364C54.9031 174.354 54.8409 174.356 54.781 174.37C54.721 174.385 54.6647 174.411 54.6154 174.448C54.566 174.485 54.5248 174.532 54.4941 174.585C54.4634 174.639 54.4439 174.698 54.4368 174.759C52.2839 187.452 59.497 201.1 71.2355 206.485C71.2909 206.513 71.3514 206.529 71.4132 206.532C71.475 206.535 71.5367 206.525 71.5945 206.503C71.6524 206.481 71.705 206.447 71.7492 206.404C71.7934 206.361 71.8282 206.309 71.8513 206.251C71.8719 206.17 71.8783 206.086 71.8704 206.003Z" fill="#23286B"/>
<path d="M107.233 152.366C107.202 152.249 107.129 152.148 107.027 152.083C106.925 152.019 106.803 151.995 106.684 152.017C97.5806 153.865 90.506 163.221 91.2507 172.458C91.2614 172.585 91.3221 172.702 91.4192 172.784C91.5163 172.866 91.642 172.906 91.7686 172.895C91.8952 172.884 92.0124 172.824 92.0943 172.726C92.1762 172.629 92.2162 172.504 92.2054 172.377C91.4989 163.589 98.2346 154.671 106.904 152.91C107.013 152.871 107.106 152.796 107.166 152.697C107.226 152.597 107.25 152.48 107.233 152.366Z" fill="#23286B"/>
<path d="M496.426 180.74L498.126 177.04L501.83 178.735L500.107 182.434L496.426 180.74Z" fill="#A1C3FC"/>
<path d="M491.756 208.785L496.401 198.756L506.474 203.396L501.829 213.425L491.756 208.785Z" fill="#E94A47"/>
<path d="M506.288 243.051L510.932 233.022L521 237.662L516.355 247.691L506.288 243.051Z" fill="#1D72D8"/>
<path d="M501.71 226.142C501.713 226.067 501.735 225.993 501.772 225.928C501.809 225.862 501.862 225.806 501.925 225.765C511.997 219.363 516.876 205.964 513.315 194.588C513.297 194.533 513.291 194.476 513.296 194.419C513.3 194.362 513.317 194.306 513.343 194.255C513.37 194.205 513.407 194.16 513.451 194.124C513.495 194.087 513.546 194.06 513.601 194.044C513.655 194.025 513.712 194.018 513.769 194.022C513.826 194.027 513.881 194.043 513.931 194.069C513.982 194.095 514.026 194.132 514.062 194.176C514.098 194.22 514.125 194.271 514.141 194.325C517.821 206.054 512.775 219.903 502.373 226.519C502.324 226.552 502.269 226.575 502.211 226.586C502.153 226.597 502.093 226.596 502.036 226.583C501.978 226.57 501.924 226.545 501.876 226.51C501.828 226.476 501.788 226.432 501.758 226.381C501.73 226.304 501.714 226.224 501.71 226.142Z" fill="#23286B"/>
<path d="M461.334 179.985C461.337 179.926 461.352 179.868 461.377 179.814C461.403 179.76 461.439 179.712 461.484 179.673C461.528 179.633 461.58 179.603 461.636 179.584C461.692 179.564 461.752 179.556 461.811 179.56C470.657 180.128 478.557 188.062 479.049 196.894C479.058 196.955 479.054 197.018 479.037 197.078C479.02 197.138 478.991 197.194 478.952 197.242C478.912 197.29 478.863 197.329 478.807 197.357C478.752 197.386 478.691 197.402 478.629 197.405C478.567 197.408 478.504 197.399 478.446 197.377C478.388 197.355 478.335 197.321 478.29 197.277C478.246 197.234 478.211 197.181 478.188 197.123C478.165 197.066 478.154 197.004 478.156 196.941C477.679 188.535 470.16 180.973 461.74 180.434C461.63 180.417 461.53 180.364 461.457 180.282C461.383 180.2 461.339 180.095 461.334 179.985Z" fill="#23286B"/>
<path d="M178.613 164.889C178.534 164.687 178.411 164.544 178.281 164.349L179.14 163.291C178.691 162.66 178.241 162.028 177.696 161.462L176.524 162.135C176.109 161.764 175.693 161.393 175.278 161.021L175.684 159.703C174.99 159.208 174.258 158.823 173.481 158.496L172.673 159.547C172.175 159.345 171.625 159.149 171.088 159.056L170.964 157.698C170.207 157.527 169.464 157.461 168.676 157.453L168.322 158.765C167.748 158.783 167.225 158.795 166.663 158.917L166.03 157.675C165.211 157.829 164.398 158.035 163.606 158.397L163.781 159.75C163.485 159.892 163.137 160.041 162.841 160.183C162.641 160.261 162.5 160.384 162.307 160.513L161.249 159.64C160.625 160.087 160.001 160.535 159.442 161.079L160.121 162.264C159.755 162.679 159.389 163.094 159.024 163.509L157.71 163.09C157.223 163.785 156.846 164.518 156.528 165.298L157.579 166.119C157.381 166.619 157.191 167.171 157.104 167.71L155.754 167.824C155.591 168.584 155.531 169.331 155.529 170.124L156.835 170.491C156.858 171.069 156.874 171.596 157 172.162L155.77 172.789C155.93 173.615 156.141 174.434 156.507 175.235L157.85 175.068C157.993 175.368 158.144 175.719 158.288 176.018C158.366 176.22 158.49 176.363 158.62 176.558L157.761 177.616C158.21 178.247 158.659 178.878 159.205 179.445L160.377 178.772C160.792 179.143 161.207 179.514 161.623 179.885L161.217 181.204C161.911 181.699 162.643 182.084 163.42 182.411L164.228 181.36C164.726 181.562 165.276 181.758 165.813 181.85L165.937 183.209C166.693 183.379 167.436 183.446 168.224 183.454L168.578 182.142C169.153 182.124 169.676 182.112 170.237 181.99L170.871 183.232C171.69 183.078 172.503 182.872 173.295 182.509L173.12 181.157C173.416 181.015 173.764 180.866 174.06 180.724C174.26 180.646 174.401 180.523 174.594 180.393L175.652 181.266C176.276 180.819 176.9 180.372 177.458 179.827L176.78 178.643C177.146 178.228 177.511 177.813 177.877 177.398L179.191 177.816C179.677 177.122 180.054 176.388 180.373 175.609L179.322 174.788C179.519 174.288 179.71 173.736 179.797 173.197L181.146 173.083C181.31 172.323 181.37 171.575 181.372 170.783L180.065 170.416C180.043 169.837 180.027 169.311 179.901 168.745L181.131 168.117C180.971 167.292 180.76 166.472 180.394 165.672L179.051 165.838C178.901 165.487 178.757 165.188 178.613 164.889Z" fill="url(#paint21_linear_2266_9722)"/>
<path d="M172.255 167.631C171.624 166.811 171.585 165.706 172.052 164.856C170.451 163.838 168.518 163.497 166.693 163.987C166.873 164.968 166.478 165.968 165.668 166.597C164.858 167.226 163.76 167.256 162.912 166.78C161.913 168.383 161.588 170.326 162.09 172.166C163.064 171.992 164.061 172.397 164.692 173.218C165.323 174.038 165.362 175.143 164.895 175.993C166.496 177.01 168.429 177.352 170.254 176.862C170.074 175.88 170.469 174.88 171.279 174.252C172.089 173.623 173.187 173.593 174.036 174.069C175.034 172.466 175.359 170.523 174.857 168.683C173.883 168.856 172.886 168.451 172.255 167.631ZM170.068 172.605C168.872 173.493 167.211 173.223 166.319 172.012C165.428 170.801 165.683 169.132 166.879 168.244C168.075 167.356 169.736 167.626 170.628 168.837C171.468 170.054 171.213 171.723 170.068 172.605Z" fill="url(#paint22_linear_2266_9722)"/>
<path d="M343 233C343 197.101 308.526 168 266 168C223.474 168 189 197.101 189 233" stroke="#A1C3FC" stroke-width="0.8" stroke-dasharray="2 2"/>
<defs>
<linearGradient id="paint0_linear_2266_9722" x1="143.201" y1="228.066" x2="624.78" y2="228.066" gradientUnits="userSpaceOnUse">
<stop stop-color="#EEEEEE"/>
<stop offset="1" stop-color="#D6D7D8"/>
</linearGradient>
<linearGradient id="paint1_linear_2266_9722" x1="3.73394e+06" y1="-5.98517e+06" x2="4.87014e+06" y2="-5.94244e+06" gradientUnits="userSpaceOnUse">
<stop stop-color="#428DFC"/>
<stop offset="1" stop-color="#1D72D8"/>
</linearGradient>
<linearGradient id="paint2_linear_2266_9722" x1="437.083" y1="120.455" x2="467.371" y2="122.277" gradientUnits="userSpaceOnUse">
<stop stop-color="#EC605D"/>
<stop offset="1" stop-color="#D62929"/>
</linearGradient>
<linearGradient id="paint3_linear_2266_9722" x1="2579.06" y1="2034.09" x2="2585.65" y2="2035.22" gradientUnits="userSpaceOnUse">
<stop stop-color="#A1C3FC"/>
<stop offset="1" stop-color="#78A9EF"/>
</linearGradient>
<linearGradient id="paint4_linear_2266_9722" x1="530275" y1="-652353" x2="537788" y2="-652072" gradientUnits="userSpaceOnUse">
<stop stop-color="#A1C3FC"/>
<stop offset="1" stop-color="#78A9EF"/>
</linearGradient>
<linearGradient id="paint5_linear_2266_9722" x1="-36968.1" y1="-56385.1" x2="-36845.2" y2="-56363.9" gradientUnits="userSpaceOnUse">
<stop stop-color="#428DFC"/>
<stop offset="1" stop-color="#1D72D8"/>
</linearGradient>
<linearGradient id="paint6_linear_2266_9722" x1="-104577" y1="-48295" x2="-95106.1" y2="-60397" gradientUnits="userSpaceOnUse">
<stop offset="0.13" stop-color="#428DFC"/>
<stop offset="1" stop-color="#1D72D8"/>
</linearGradient>
<linearGradient id="paint7_linear_2266_9722" x1="-7265.09" y1="-31317.2" x2="-6697.35" y2="-29352.2" gradientUnits="userSpaceOnUse">
<stop stop-color="#FFBEB6"/>
<stop offset="1" stop-color="#F2A19C"/>
</linearGradient>
<linearGradient id="paint8_linear_2266_9722" x1="-23768" y1="-40150" x2="-25273.9" y2="-38485.6" gradientUnits="userSpaceOnUse">
<stop stop-color="#FFBEB6"/>
<stop offset="1" stop-color="#F2A19C"/>
</linearGradient>
<linearGradient id="paint9_linear_2266_9722" x1="-64377.5" y1="-107105" x2="-61727.8" y2="-92513.1" gradientUnits="userSpaceOnUse">
<stop stop-color="#23286B"/>
<stop offset="0.36" stop-color="#1E2361"/>
<stop offset="1" stop-color="#151A4F"/>
</linearGradient>
<linearGradient id="paint10_linear_2266_9722" x1="-113673" y1="-267343" x2="-195009" y2="-252140" gradientUnits="userSpaceOnUse">
<stop stop-color="#A1C3FC"/>
<stop offset="0.7" stop-color="#81AEF2"/>
<stop offset="1" stop-color="#78A9EF"/>
</linearGradient>
<linearGradient id="paint11_linear_2266_9722" x1="-81603.3" y1="-155193" x2="-65494.1" y2="-127885" gradientUnits="userSpaceOnUse">
<stop stop-color="#23286B"/>
<stop offset="0.36" stop-color="#1E2361"/>
<stop offset="1" stop-color="#151A4F"/>
</linearGradient>
<linearGradient id="paint12_linear_2266_9722" x1="-20857.5" y1="-26803.7" x2="-20245.2" y2="-26924.3" gradientUnits="userSpaceOnUse">
<stop stop-color="#FFBEB6"/>
<stop offset="1" stop-color="#F29B94"/>
</linearGradient>
<linearGradient id="paint13_linear_2266_9722" x1="-56107.7" y1="-37841.8" x2="-57124.4" y2="-34249.2" gradientUnits="userSpaceOnUse">
<stop stop-color="#E94A47"/>
<stop offset="0.85" stop-color="#A74A47"/>
</linearGradient>
<linearGradient id="paint14_linear_2266_9722" x1="366.927" y1="244.104" x2="370.31" y2="242.842" gradientUnits="userSpaceOnUse">
<stop stop-color="#FFBEB6"/>
<stop offset="1" stop-color="#F8AFA9"/>
</linearGradient>
<linearGradient id="paint15_linear_2266_9722" x1="378.841" y1="283.355" x2="394.482" y2="319.682" gradientUnits="userSpaceOnUse">
<stop stop-color="#23286B"/>
<stop offset="1" stop-color="#151A4F"/>
</linearGradient>
<linearGradient id="paint16_linear_2266_9722" x1="391.415" y1="220.251" x2="390.035" y2="253.431" gradientUnits="userSpaceOnUse">
<stop stop-color="#A1C3FC"/>
<stop offset="1" stop-color="#89B3F4"/>
</linearGradient>
<linearGradient id="paint17_linear_2266_9722" x1="353.797" y1="349.862" x2="377.36" y2="349.862" gradientUnits="userSpaceOnUse">
<stop stop-color="#428DFC"/>
<stop offset="1" stop-color="#1D72D8"/>
</linearGradient>
<linearGradient id="paint18_linear_2266_9722" x1="369.249" y1="210.185" x2="373.515" y2="207.227" gradientUnits="userSpaceOnUse">
<stop stop-color="#FFBEB6"/>
<stop offset="1" stop-color="#F8AFA9"/>
</linearGradient>
<linearGradient id="paint19_linear_2266_9722" x1="362.039" y1="268.013" x2="352.535" y2="254.398" gradientUnits="userSpaceOnUse">
<stop stop-color="#FFBEB6"/>
<stop offset="1" stop-color="#F8AFA9"/>
</linearGradient>
<linearGradient id="paint20_linear_2266_9722" x1="361.789" y1="267.912" x2="352.266" y2="254.272" gradientUnits="userSpaceOnUse">
<stop stop-color="#FFBEB6"/>
<stop offset="1" stop-color="#F8AFA9"/>
</linearGradient>
<linearGradient id="paint21_linear_2266_9722" x1="155.722" y1="172.004" x2="195.408" y2="161.663" gradientUnits="userSpaceOnUse">
<stop stop-color="#EEEEEE"/>
<stop offset="1" stop-color="#C5D4E1"/>
</linearGradient>
<linearGradient id="paint22_linear_2266_9722" x1="163.365" y1="174.341" x2="177.784" y2="160.752" gradientUnits="userSpaceOnUse">
<stop offset="0.1291" stop-color="white"/>
<stop offset="0.9987" stop-color="#DAE4DB"/>
</linearGradient>
</defs>
</svg>
