<svg width="101" height="36" viewBox="0 0 101 36" fill="none" xmlns="http://www.w3.org/2000/svg">
<path fill-rule="evenodd" clip-rule="evenodd" d="M16.2437 10.9399C16.2437 10.6397 16.1262 10.3514 15.9162 10.1369L9.3607 3.43655C7.31448 1.345 3.99675 1.345 1.95043 3.43655C-0.095903 5.52809 -0.095903 8.91915 1.95043 11.0107L6.87666 16.0458C7.45202 16.6339 7.53124 17.5594 7.06456 18.2407L0.948088 27.169C-0.711797 29.5919 -0.135714 32.9315 2.23483 34.628C4.60538 36.3246 7.87275 35.7358 9.53264 33.3128L16.0427 23.81C16.1737 23.6189 16.2437 23.3927 16.2437 23.1611V10.9399ZM6.44591 9.11594H5.38044C5.24726 9.11594 5.18066 9.04788 5.18066 8.91175V7.9588H4.1822C4.04901 7.9588 3.98242 7.89074 3.98242 7.75461V6.73365C3.98242 6.59753 4.04901 6.52946 4.1822 6.52946H5.18066V5.57663C5.18066 5.4405 5.24726 5.37244 5.38044 5.37244H6.44591C6.5791 5.37244 6.64569 5.4405 6.64569 5.57663V6.52946H7.77816C7.91134 6.52946 7.97794 6.59753 7.97794 6.73365V7.68655C7.97794 7.82267 7.84475 7.9588 7.71157 7.9588H6.64569V8.91175C6.64569 9.04788 6.5791 9.11594 6.44591 9.11594Z" fill="white"/>
<path fill-rule="evenodd" clip-rule="evenodd" d="M18.9996 11.2417C18.9996 10.9421 19.1167 10.6544 19.3259 10.4399L25.7793 3.82416C27.7948 1.75783 31.0628 1.75783 33.0784 3.82416C35.094 5.8905 35.094 9.24069 33.0784 11.307L28.2261 16.2815C27.6594 16.8625 27.5813 17.7768 28.041 18.4499L34.0657 27.2706C35.7007 29.6643 35.1333 32.9636 32.7983 34.6397C30.4633 36.3159 27.2449 35.7341 25.61 33.3404L19.1996 23.9552C19.0693 23.7644 18.9996 23.5386 18.9996 23.3075V11.2417ZM27.6875 7.18734C28.0672 7.18734 28.3751 6.87955 28.3751 6.49988C28.3751 6.12021 28.0672 5.81243 27.6875 5.81243C27.3078 5.81243 27 6.12021 27 6.49988C27 6.87955 27.3078 7.18734 27.6875 7.18734ZM32 6.49974C32 6.87941 31.6922 7.18719 31.3125 7.18719C30.9328 7.18719 30.6249 6.87941 30.6249 6.49974C30.6249 6.12007 30.9328 5.81229 31.3125 5.81229C31.6922 5.81229 32 6.12007 32 6.49974ZM29.5005 5.37496C29.8802 5.37496 30.1881 5.06718 30.1881 4.68751C30.1881 4.30784 29.8802 4.00006 29.5005 4.00006C29.1208 4.00006 28.813 4.30784 28.813 4.68751C28.813 5.06718 29.1208 5.37496 29.5005 5.37496ZM30.1879 8.31257C30.1879 8.69224 29.8801 9.00002 29.5004 9.00002C29.1207 9.00002 28.8129 8.69224 28.8129 8.31257C28.8129 7.9329 29.1207 7.62512 29.5004 7.62512C29.8801 7.62512 30.1879 7.9329 30.1879 8.31257Z" fill="white"/>
<path d="M49.2216 5.60381C48.4595 5.60381 47.865 5.91729 47.438 6.54424C47.0111 7.16579 46.7976 8.02515 46.7976 9.12232C46.7976 11.4031 47.665 12.5435 49.4 12.5435C49.9242 12.5435 50.4323 12.4706 50.9241 12.3246C51.4159 12.1787 51.9105 12.0031 52.4077 11.7977V14.5055C51.4187 14.9432 50.2999 15.1621 49.0514 15.1621C47.2624 15.1621 45.8896 14.6433 44.9329 13.6056C43.9817 12.5679 43.5061 11.068 43.5061 9.1061C43.5061 7.87922 43.7358 6.80097 44.1952 5.87135C44.66 4.94173 45.3248 4.2283 46.1895 3.73106C47.0597 3.22842 48.0812 2.9771 49.254 2.9771C50.535 2.9771 51.7592 3.25544 52.9266 3.81213L51.9456 6.33346C51.5078 6.12808 51.07 5.95512 50.6323 5.8146C50.1945 5.67408 49.7243 5.60381 49.2216 5.60381ZM58.9745 15.1621C57.445 15.1621 56.2559 14.7568 55.4074 13.9461C54.5642 13.13 54.1427 11.9706 54.1427 10.4681C54.1427 8.91694 54.5345 7.72789 55.3182 6.90096C56.1019 6.06862 57.2207 5.65246 58.6745 5.65246C60.0582 5.65246 61.1256 6.01458 61.8769 6.73882C62.6335 7.45765 63.0119 8.49536 63.0119 9.85196V11.2626H57.345C57.3666 11.7761 57.5531 12.1787 57.9044 12.4706C58.2611 12.7624 58.7448 12.9084 59.3555 12.9084C59.9122 12.9084 60.423 12.857 60.8878 12.7543C61.358 12.6462 61.8661 12.4652 62.4119 12.2111V14.4892C61.9147 14.7433 61.4013 14.9189 60.8716 15.0162C60.3419 15.1135 59.7096 15.1621 58.9745 15.1621ZM58.788 7.80896C58.4151 7.80896 58.1016 7.92786 57.8476 8.16567C57.599 8.39808 57.4531 8.7656 57.4098 9.26825H60.1338C60.123 8.82505 59.996 8.47104 59.7528 8.20621C59.515 7.94138 59.1934 7.80896 58.788 7.80896ZM67.9734 15H64.8036V2.38528H67.9734V15ZM74.6051 15.1621C73.0755 15.1621 71.8865 14.7568 71.038 13.9461C70.1948 13.13 69.7732 11.9706 69.7732 10.4681C69.7732 8.91694 70.1651 7.72789 70.9488 6.90096C71.7325 6.06862 72.8513 5.65246 74.3051 5.65246C75.6888 5.65246 76.7562 6.01458 77.5075 6.73882C78.2641 7.45765 78.6425 8.49536 78.6425 9.85196V11.2626H72.9756C72.9972 11.7761 73.1836 12.1787 73.535 12.4706C73.8917 12.7624 74.3754 12.9084 74.9861 12.9084C75.5428 12.9084 76.0536 12.857 76.5184 12.7543C76.9886 12.6462 77.4966 12.4652 78.0425 12.2111V14.4892C77.5453 14.7433 77.0318 14.9189 76.5022 15.0162C75.9725 15.1135 75.3401 15.1621 74.6051 15.1621ZM74.4186 7.80896C74.0457 7.80896 73.7322 7.92786 73.4782 8.16567C73.2296 8.39808 73.0837 8.7656 73.0404 9.26825H75.7644C75.7536 8.82505 75.6266 8.47104 75.3834 8.20621C75.1456 7.94138 74.824 7.80896 74.4186 7.80896ZM85.9794 5.65246C86.2551 5.65246 86.5172 5.67408 86.7658 5.71731L86.9442 5.74974L86.6604 8.74128C86.401 8.67642 86.0416 8.644 85.5822 8.644C84.8904 8.644 84.3877 8.80344 84.0742 9.12232C83.7608 9.43579 83.604 9.88979 83.604 10.4843V15H80.4341V5.8146H82.7933L83.2879 7.28199H83.4419C83.7067 6.79557 84.0742 6.40372 84.5445 6.10646C85.0201 5.80379 85.4984 5.65246 85.9794 5.65246ZM99.0968 15H95.3918L93.0813 11.295L90.7951 15H87.1712L91.1031 8.93585L87.4063 3.14735H90.9572L93.0975 6.81178L95.1567 3.14735H98.813L95.0594 9.18717L99.0968 15Z" fill="white"/>
<path d="M48.3318 23.8773H53.356V30.1517C51.9918 30.6188 50.4922 30.8524 48.8573 30.8524C47.0631 30.8524 45.675 30.3322 44.693 29.2917C43.7162 28.2513 43.2279 26.7677 43.2279 24.8408C43.2279 22.9616 43.764 21.4992 44.8363 20.4535C45.9085 19.4078 47.4108 18.8849 49.343 18.8849C50.0755 18.8849 50.7656 18.9539 51.4132 19.0919C52.0661 19.2299 52.6341 19.4051 53.1171 19.6174L52.1219 22.0858C51.2831 21.6717 50.3622 21.4647 49.3589 21.4647C48.4406 21.4647 47.7293 21.7646 47.225 22.3645C46.726 22.959 46.4765 23.811 46.4765 24.9204C46.4765 26.0086 46.7021 26.8393 47.1533 27.4126C47.6098 27.9806 48.2654 28.2646 49.12 28.2646C49.5872 28.2646 50.0171 28.2195 50.4099 28.1292V26.3058H48.3318V23.8773ZM61.4299 30.6931L60.8327 29.4988H60.769C60.3496 30.019 59.9223 30.3746 59.4871 30.5657C59.0518 30.7568 58.4891 30.8524 57.799 30.8524C56.9497 30.8524 56.2809 30.5976 55.7925 30.088C55.3041 29.5784 55.06 28.8618 55.06 27.9381C55.06 26.9773 55.3944 26.2634 56.0632 25.7963C56.7321 25.3238 57.7008 25.0584 58.9695 25L60.4744 24.9522V24.8248C60.4744 24.0817 60.1081 23.7101 59.3756 23.7101C58.7174 23.7101 57.8813 23.9331 56.8674 24.3789L55.9677 22.3247C57.0187 21.7832 58.3458 21.5125 59.9489 21.5125C61.1061 21.5125 62.0005 21.7991 62.6322 22.3724C63.2692 22.9457 63.5877 23.7473 63.5877 24.7771V30.6931H61.4299ZM59.1208 28.6547C59.4977 28.6547 59.8188 28.5353 60.0842 28.2964C60.3549 28.0576 60.4903 27.747 60.4903 27.3648V26.6642L59.7737 26.696C58.7492 26.7332 58.237 27.11 58.237 27.8267C58.237 28.3787 58.5316 28.6547 59.1208 28.6547ZM76.7813 30.6931V25.7883C76.7813 25.1778 76.6964 24.7213 76.5265 24.4188C76.362 24.1109 76.0992 23.9569 75.7383 23.9569C75.2605 23.9569 74.9102 24.1613 74.6872 24.57C74.4643 24.9788 74.3528 25.6184 74.3528 26.489V30.6931H71.2316V25.7883C71.2316 25.1778 71.1519 24.7213 70.9927 24.4188C70.8334 24.1109 70.576 23.9569 70.2203 23.9569C69.732 23.9569 69.3763 24.1746 69.1534 24.6099C68.9304 25.0451 68.819 25.7564 68.819 26.7438V30.6931H65.7057V21.6717H68.0546L68.4447 22.7865H68.6279C68.8667 22.3724 69.2118 22.0566 69.663 21.839C70.1195 21.6213 70.637 21.5125 71.2156 21.5125C72.5162 21.5125 73.4292 21.908 73.9547 22.6989H74.2015C74.4563 22.3273 74.8093 22.038 75.2605 21.831C75.717 21.6187 76.2187 21.5125 76.7654 21.5125C77.8324 21.5125 78.6206 21.7859 79.1302 22.3326C79.6398 22.8794 79.8946 23.7101 79.8946 24.8248V30.6931H76.7813ZM86.368 30.8524C84.8658 30.8524 83.698 30.4542 82.8646 29.658C82.0365 28.8565 81.6225 27.7178 81.6225 26.2421C81.6225 24.7187 82.0073 23.5509 82.777 22.7387C83.5467 21.9212 84.6455 21.5125 86.0734 21.5125C87.4323 21.5125 88.4807 21.8681 89.2186 22.5795C89.9617 23.2854 90.3333 24.3046 90.3333 25.637V27.0225H84.7676C84.7888 27.5267 84.972 27.9222 85.317 28.2089C85.6674 28.4955 86.1424 28.6388 86.7423 28.6388C87.289 28.6388 87.7907 28.5884 88.2472 28.4875C88.709 28.3814 89.208 28.2035 89.7441 27.9541V30.1915C89.2557 30.441 88.7514 30.6135 88.2312 30.709C87.711 30.8046 87.09 30.8524 86.368 30.8524ZM86.1849 23.6305C85.8186 23.6305 85.5108 23.7473 85.2613 23.9808C85.0171 24.2091 84.8738 24.57 84.8313 25.0637H87.5067C87.496 24.6284 87.3713 24.2807 87.1324 24.0206C86.8989 23.7605 86.583 23.6305 86.1849 23.6305ZM99.0601 27.9222C99.0601 28.8883 98.731 29.6182 98.0727 30.1119C97.4145 30.6055 96.4696 30.8524 95.2381 30.8524C94.5693 30.8524 93.988 30.8152 93.4944 30.7409C93.0007 30.6719 92.4964 30.5418 91.9815 30.3507V27.8585C92.4646 28.0708 92.9927 28.246 93.566 28.384C94.1446 28.522 94.6595 28.591 95.1107 28.591C95.7849 28.591 96.122 28.4371 96.122 28.1292C96.122 27.97 96.0264 27.8293 95.8353 27.7072C95.6495 27.5798 95.1028 27.3356 94.1951 26.9747C93.367 26.635 92.7884 26.2501 92.4593 25.8201C92.1301 25.3849 91.9656 24.8355 91.9656 24.1719C91.9656 23.3332 92.2894 22.6803 92.937 22.2132C93.5846 21.7461 94.5003 21.5125 95.684 21.5125C96.2785 21.5125 96.8359 21.5788 97.3561 21.7116C97.8816 21.839 98.4257 22.0274 98.9884 22.2769L98.1444 24.2834C97.7304 24.0976 97.2924 23.941 96.8306 23.8136C96.3688 23.6809 95.9919 23.6146 95.6999 23.6146C95.1904 23.6146 94.9356 23.7393 94.9356 23.9888C94.9356 24.1427 95.0231 24.2754 95.1983 24.3869C95.3788 24.4931 95.8937 24.7134 96.743 25.0478C97.3747 25.3079 97.8445 25.5627 98.1524 25.8122C98.4655 26.0617 98.6938 26.3563 98.8371 26.696C98.9858 27.0304 99.0601 27.4392 99.0601 27.9222Z" fill="white"/>
</svg>
