<svg width="575" height="366" viewBox="0 0 575 366" fill="none" xmlns="http://www.w3.org/2000/svg">
<rect width="575" height="366" fill="white"/>
<path d="M174.459 183L274.918 321H74L174.459 183Z" fill="#E8E6E6"/>
<path d="M283 74L403 319H163L200.409 143.5L283 74Z" fill="#D9D9D9"/>
<path d="M113.826 328.375C113.742 328.375 113.7 328.333 113.659 328.333C113.492 328.25 113.408 327.999 113.492 327.832L214.475 141.219C214.559 141.052 214.809 140.969 214.977 141.052C215.144 141.136 215.227 141.386 215.144 141.553L114.16 328.166C114.077 328.291 113.951 328.375 113.826 328.375Z" fill="#392D40"/>
<path d="M164.297 328.374C164.214 328.374 164.172 328.332 164.13 328.332C163.963 328.249 163.88 327.998 163.963 327.831L264.947 141.218C265.03 141.051 265.281 140.968 265.448 141.051C265.615 141.135 265.699 141.385 265.615 141.552L164.632 328.165C164.59 328.29 164.465 328.374 164.297 328.374Z" fill="#392D40"/>
<path d="M251.911 166.475H201.44C201.231 166.475 201.064 166.308 201.064 166.1C201.064 165.891 201.231 165.724 201.44 165.724H251.953C252.161 165.724 252.329 165.891 252.329 166.1C252.329 166.308 252.161 166.475 251.911 166.475Z" fill="#392D40"/>
<path d="M235.658 196.409H185.187C184.978 196.409 184.811 196.242 184.811 196.033C184.811 195.824 184.978 195.657 185.187 195.657H235.658C235.867 195.657 236.034 195.824 236.034 196.033C236.034 196.2 235.867 196.409 235.658 196.409Z" fill="#392D40"/>
<path d="M219.404 226.301H169.059C168.85 226.301 168.683 226.134 168.683 225.925C168.683 225.716 168.85 225.549 169.059 225.549H219.404C219.613 225.549 219.78 225.716 219.78 225.925C219.822 226.134 219.613 226.301 219.404 226.301Z" fill="#392D40"/>
<path d="M203.195 256.192H152.892C152.683 256.192 152.516 256.025 152.516 255.816C152.516 255.608 152.683 255.441 152.892 255.441H203.195C203.404 255.441 203.571 255.608 203.571 255.816C203.571 256.025 203.404 256.192 203.195 256.192Z" fill="#392D40"/>
<path d="M187.486 286.083H136.681C136.472 286.083 136.305 285.916 136.305 285.708C136.305 285.499 136.472 285.332 136.681 285.332H187.486C187.695 285.332 187.862 285.499 187.862 285.708C187.904 285.916 187.736 286.083 187.486 286.083Z" fill="#392D40"/>
<path d="M171.149 316.016H120.51C120.302 316.016 120.134 315.849 120.134 315.641C120.134 315.432 120.302 315.265 120.51 315.265H171.149C171.357 315.265 171.525 315.432 171.525 315.641C171.525 315.849 171.357 316.016 171.149 316.016Z" fill="#392D40"/>
<path d="M247.781 57.8457C251.108 46.939 262.7 40.7324 273.702 43.9941C284.704 47.2559 290.934 58.7457 287.606 69.6525C285.708 75.8756 281.019 79.2356 276.333 83.0605C269.963 88.2796 266.741 93.0743 265.613 96.4186L251.086 92.1119C251.981 88.2344 251.957 81.0128 249.618 75.1405C246.997 68.542 245.883 64.0688 247.781 57.8457Z" fill="#FBB03B"/>
<path d="M262.787 104.753L246.023 99.608L247.617 97.0499L264.381 102.194L262.787 104.753Z" fill="#E94A47"/>
<path d="M254.207 87.5247L266.071 95.5275L251.832 91.1951L254.207 87.5247Z" fill="#E94A47"/>
<path d="M258.688 110.686L244.797 101.334L261.453 106.402L258.688 110.686Z" fill="#E94A47"/>
<path d="M267.271 97.9816L265.709 100.55L248.944 95.4052L250.539 92.8473L267.271 97.9816Z" fill="#E94A47"/>
<path d="M251.774 91.0312L265.986 95.4098L268.126 96.8921L267.326 98.1421L250.604 92.9902L251.774 91.0312Z" fill="white"/>
<path d="M264.44 102.357L247.685 97.1941L248.887 95.2443L265.642 100.407L264.44 102.357Z" fill="white"/>
<path d="M261.511 106.592L244.886 101.47L244.798 101.406L245.967 99.447L262.723 104.609L261.511 106.592Z" fill="white"/>
<path d="M257.578 107.071L250.778 105.043L248.722 111.807L255.522 113.835L257.578 107.071Z" fill="#428DFC"/>
<path d="M257.492 98.1475C257.492 98.1475 257.526 98.1572 257.492 98.1475C257.593 98.1766 257.723 98.108 257.763 97.9777C260.681 87.4439 264.007 76.5318 270.226 67.3788C270.544 67.2936 270.871 67.1757 271.166 67.0482C272.988 66.3352 277.057 64.358 276.364 61.6052C276.299 61.3383 276.104 61.1401 275.859 61.1047C275.102 60.9564 273.916 61.8539 273.469 62.3625C272.182 63.8332 270.975 65.398 269.903 67.0017C267.885 67.5166 265.644 67.3287 263.721 66.4533C262.98 66.1323 262.346 65.7005 261.774 65.1807C261.857 64.0704 261.93 62.9927 261.98 61.8727L261.996 61.7001C262.045 60.5802 262.119 58.9002 260.9 58.8308C260.535 58.8315 260.217 58.9167 259.984 59.2036C259.333 59.9015 259.376 61.438 259.536 62.2288C259.775 63.3613 260.432 64.4377 261.36 65.3442C260.808 72.0614 259.503 78.7376 257.504 85.1775C257.475 85.2752 257.545 85.402 257.646 85.4311C257.747 85.4603 257.877 85.3916 257.907 85.2939C259.886 78.9192 261.195 72.3504 261.726 65.6984C262.25 66.1337 262.871 66.4906 263.502 66.815C265.357 67.671 267.488 67.8624 269.499 67.4876C263.411 76.572 260.105 87.419 257.226 97.8224C257.344 98.0338 257.391 98.1183 257.492 98.1475ZM261.14 59.361C261.777 59.5454 261.735 60.8802 261.678 61.7854L261.662 61.9579C261.619 62.9379 261.552 63.8757 261.465 64.8785C260.719 64.0953 260.223 63.2075 260.035 62.267C259.828 61.3916 259.927 60.1088 260.374 59.6001C260.534 59.4338 260.741 59.352 260.919 59.3679C261.039 59.3319 261.073 59.3416 261.14 59.361ZM275.864 61.567C275.931 61.5864 275.989 61.6384 276.026 61.7555C276.631 64.1993 272.756 66.0198 271.054 66.6968C270.923 66.7655 270.769 66.7918 270.673 66.8701C271.662 65.4196 272.775 64.0404 273.913 62.7035C274.379 62.1297 275.385 61.4637 275.864 61.567C275.831 61.5573 275.864 61.567 275.864 61.567Z" fill="#428DFC"/>
<path d="M219.792 157.159L216.649 165.894H238.83C238.83 165.894 237.698 163.71 233.901 162.079C230.103 160.447 226.557 157.134 226.557 157.134H219.792" fill="url(#paint0_linear_2266_9980)"/>
<path d="M203.924 157.159L200.781 165.894H222.962C222.962 165.894 221.83 163.71 218.032 162.079C214.235 160.447 210.689 157.134 210.689 157.134L203.924 157.159Z" fill="#428DFC"/>
<path d="M210.311 96.1653C209.733 98.9515 209.607 102.415 210.537 106.482C213.203 118.178 213.429 116.547 213.002 124.755C212.6 132.962 213.932 130.201 214.335 138.811C214.737 147.445 214.209 151.687 219.767 157.134H226.557C226.557 157.134 227.11 130.829 226.984 123.399C226.909 118.203 225.249 112.932 224.319 108.615L222.231 97.1443" fill="url(#paint1_linear_2266_9980)"/>
<path d="M221.703 111.652C221.703 111.652 219.742 100.031 219.893 97.3201L207.319 95.3121L207.168 96.0902C205.76 101.286 205.961 106.783 207.671 111.853C211.946 124.629 209.004 124.027 207.62 127.892C206.237 131.758 205.483 134.117 205.81 137.757C206.137 141.421 204.527 140.443 203.672 145.161C202.817 149.88 203.899 157.134 203.899 157.134H210.689C210.689 157.134 221.376 131.432 221.905 125.859C222.357 121.416 222.181 116.321 221.703 111.652Z" fill="#23286B"/>
<path opacity="0.86" d="M214.661 101.788C214.686 101.813 214.711 101.788 214.736 101.763C214.762 101.738 214.736 101.713 214.711 101.688C214.686 101.662 214.661 101.688 214.636 101.713C214.636 101.738 214.636 101.788 214.661 101.788ZM215.315 100.834C215.34 100.859 215.365 100.834 215.39 100.809C215.415 100.784 215.39 100.759 215.365 100.734C215.34 100.709 215.315 100.734 215.29 100.734C215.29 100.784 215.29 100.809 215.315 100.834ZM215.944 99.8552C215.969 99.8803 215.994 99.8552 216.019 99.8301C216.044 99.805 216.019 99.7799 215.994 99.7548C215.969 99.7297 215.944 99.7548 215.918 99.7799C215.918 99.805 215.918 99.8552 215.944 99.8552ZM219.439 102.692C219.439 102.717 219.464 102.742 219.489 102.742C219.515 102.742 219.54 102.717 219.515 102.692C219.515 102.666 219.489 102.641 219.464 102.641C219.464 102.641 219.439 102.666 219.439 102.692ZM213.378 99.6293C213.404 99.6544 213.429 99.6544 213.454 99.6544C213.479 99.6293 213.479 99.6042 213.479 99.5791C213.454 99.554 213.429 99.554 213.404 99.554C213.378 99.5791 213.353 99.6042 213.378 99.6293ZM214.334 99.0018C214.334 99.0269 214.359 99.0269 214.384 99.0269C214.409 99.0269 214.409 99.0018 214.409 98.9767V98.9516C214.384 98.9265 214.359 98.9265 214.334 98.9265C214.334 98.9265 214.309 98.9767 214.334 99.0018ZM217.05 102.064C217.05 102.089 217.075 102.114 217.1 102.114C217.125 102.114 217.151 102.089 217.151 102.064C217.151 102.039 217.125 102.014 217.1 102.014C217.1 102.039 217.075 102.039 217.05 102.064ZM217.276 100.935C217.276 100.96 217.302 100.985 217.327 100.985C217.352 100.985 217.377 100.985 217.377 100.96C217.377 100.935 217.352 100.909 217.327 100.909C217.302 100.884 217.276 100.909 217.276 100.935ZM208.399 100.909C208.424 100.96 208.475 100.96 208.525 100.935C208.575 100.909 208.575 100.859 208.55 100.809C208.525 100.759 208.475 100.759 208.424 100.784C208.374 100.809 208.374 100.859 208.399 100.909ZM210.285 99.805C210.31 99.8552 210.361 99.8552 210.411 99.8301C210.461 99.805 210.461 99.7548 210.436 99.7046C210.411 99.6544 210.361 99.6544 210.31 99.6795C210.285 99.7046 210.26 99.7548 210.285 99.805ZM212.196 98.6755C212.222 98.7257 212.272 98.7257 212.322 98.7006C212.372 98.6755 212.372 98.6253 212.347 98.5751C212.322 98.5249 212.272 98.5249 212.222 98.55C212.196 98.5751 212.171 98.6504 212.196 98.6755ZM213.856 107.536C213.856 107.586 213.881 107.636 213.932 107.636C213.982 107.661 214.032 107.636 214.032 107.586C214.032 107.536 214.007 107.486 213.957 107.486C213.932 107.461 213.881 107.486 213.856 107.536ZM214.435 105.402C214.435 105.453 214.46 105.503 214.51 105.503C214.56 105.503 214.611 105.478 214.611 105.427C214.636 105.377 214.586 105.327 214.535 105.327C214.485 105.327 214.435 105.352 214.435 105.402ZM214.988 103.294C214.963 103.344 215.013 103.394 215.063 103.394C215.114 103.419 215.164 103.394 215.164 103.344C215.164 103.294 215.139 103.244 215.088 103.219C215.038 103.219 214.988 103.244 214.988 103.294ZM215.541 101.16C215.541 101.211 215.566 101.261 215.617 101.261C215.667 101.261 215.717 101.236 215.717 101.186C215.742 101.135 215.692 101.085 215.642 101.085C215.617 101.085 215.566 101.11 215.541 101.16ZM208.097 96.9938C208.097 97.044 208.148 97.0691 208.198 97.0691C208.248 97.0691 208.273 97.0189 208.273 96.9687C208.273 96.9185 208.223 96.8934 208.173 96.8934C208.148 96.8934 208.097 96.9436 208.097 96.9938ZM210.159 104.649C210.21 104.674 210.26 104.674 210.285 104.624C210.31 104.574 210.31 104.524 210.26 104.499C210.21 104.474 210.159 104.474 210.134 104.524C210.109 104.574 210.109 104.624 210.159 104.649ZM211.492 102.892C211.543 102.917 211.593 102.917 211.618 102.867C211.643 102.817 211.643 102.767 211.593 102.742C211.543 102.717 211.492 102.717 211.467 102.767C211.442 102.817 211.442 102.867 211.492 102.892ZM212.825 101.16C212.875 101.186 212.926 101.186 212.951 101.135C212.976 101.085 212.976 101.035 212.926 101.01C212.875 100.985 212.825 100.985 212.8 101.035C212.775 101.06 212.775 101.11 212.825 101.16ZM214.158 99.4034C214.208 99.4285 214.259 99.4285 214.284 99.3783C214.309 99.3281 214.309 99.2779 214.259 99.2528C214.208 99.2277 214.158 99.2277 214.133 99.2779C214.108 99.303 214.108 99.3532 214.158 99.4034ZM218.257 106.783C218.257 106.833 218.307 106.858 218.358 106.858C218.408 106.858 218.433 106.808 218.433 106.758C218.433 106.708 218.383 106.683 218.333 106.683C218.282 106.708 218.257 106.733 218.257 106.783ZM217.955 104.624C217.955 104.674 218.006 104.7 218.056 104.7C218.106 104.7 218.131 104.649 218.131 104.599C218.131 104.549 218.081 104.524 218.031 104.524C217.981 104.524 217.955 104.574 217.955 104.624ZM217.654 102.441C217.654 102.491 217.704 102.516 217.754 102.516C217.804 102.516 217.83 102.466 217.83 102.415C217.83 102.365 217.779 102.34 217.729 102.34C217.679 102.34 217.654 102.39 217.654 102.441ZM217.352 100.257C217.352 100.307 217.402 100.332 217.452 100.332C217.503 100.332 217.528 100.282 217.528 100.232C217.528 100.182 217.478 100.156 217.427 100.156C217.377 100.156 217.352 100.207 217.352 100.257ZM207.066 95.7137C207.091 95.6886 207.091 95.6886 207.091 95.6635C207.091 95.6384 207.091 95.6384 207.066 95.6384C207.091 95.6635 207.066 95.6886 207.066 95.7137ZM208.475 103.294C208.5 103.319 208.55 103.319 208.6 103.294C208.625 103.269 208.625 103.219 208.6 103.168C208.575 103.143 208.525 103.143 208.475 103.168C208.424 103.219 208.424 103.269 208.475 103.294ZM209.807 101.863C209.833 101.888 209.883 101.888 209.933 101.863C209.958 101.838 209.958 101.788 209.933 101.738C209.908 101.713 209.858 101.713 209.807 101.738C209.757 101.788 209.757 101.838 209.807 101.863ZM211.115 100.357C211.115 100.382 211.115 100.407 211.14 100.407C211.165 100.433 211.216 100.433 211.266 100.407C211.291 100.382 211.291 100.332 211.266 100.282C211.241 100.257 211.216 100.257 211.191 100.257C211.165 100.257 211.165 100.257 211.165 100.282C211.115 100.307 211.115 100.332 211.115 100.357ZM212.473 98.9767C212.498 99.0018 212.549 99.0018 212.599 98.9767C212.624 98.9516 212.624 98.9014 212.599 98.8512C212.574 98.8261 212.523 98.8261 212.473 98.8512C212.423 98.9014 212.423 98.9516 212.473 98.9767ZM216.195 106.08C216.195 106.13 216.245 106.155 216.27 106.155C216.321 106.155 216.346 106.13 216.346 106.08C216.346 106.03 216.296 106.005 216.27 106.005C216.245 106.005 216.22 106.055 216.195 106.08ZM216.12 104.147C216.12 104.198 216.17 104.223 216.195 104.223C216.245 104.223 216.27 104.198 216.27 104.147C216.27 104.097 216.22 104.072 216.195 104.072C216.17 104.047 216.12 104.097 216.12 104.147ZM216.044 102.164C216.044 102.215 216.094 102.24 216.12 102.24C216.17 102.24 216.195 102.215 216.195 102.164C216.195 102.114 216.145 102.089 216.12 102.089C216.094 102.089 216.044 102.139 216.044 102.164ZM215.969 100.207C215.969 100.257 216.019 100.282 216.044 100.282C216.094 100.282 216.12 100.232 216.12 100.207C216.12 100.156 216.069 100.131 216.044 100.131C215.994 100.131 215.969 100.182 215.969 100.207ZM208.525 98.55C208.55 98.6002 208.6 98.6002 208.625 98.6002C208.676 98.5751 208.676 98.55 208.676 98.4998C208.651 98.4496 208.6 98.4496 208.575 98.4496C208.525 98.4496 208.525 98.4998 208.525 98.55ZM210.31 97.7217C210.335 97.7719 210.386 97.7719 210.411 97.7719C210.461 97.7468 210.461 97.6966 210.461 97.6715C210.436 97.6213 210.386 97.6213 210.361 97.6213C210.31 97.6213 210.31 97.6715 210.31 97.7217ZM212.222 104.423C212.196 104.474 212.222 104.524 212.272 104.524C212.322 104.549 212.347 104.524 212.372 104.474C212.398 104.423 212.372 104.373 212.322 104.373C212.297 104.373 212.247 104.398 212.222 104.423ZM212.901 102.591C212.875 102.641 212.901 102.666 212.951 102.692C213.001 102.717 213.026 102.692 213.051 102.641C213.077 102.591 213.051 102.541 213.001 102.541C212.976 102.516 212.926 102.541 212.901 102.591ZM213.58 100.759C213.554 100.809 213.58 100.834 213.63 100.859C213.68 100.884 213.705 100.859 213.73 100.809C213.756 100.759 213.73 100.734 213.68 100.709C213.655 100.684 213.605 100.709 213.58 100.759ZM214.259 98.9014C214.233 98.9516 214.259 98.9767 214.309 99.0018C214.334 99.0018 214.359 99.0018 214.384 99.0018C214.409 99.0018 214.409 98.9767 214.409 98.9516C214.435 98.9014 214.409 98.8512 214.359 98.8512C214.334 98.8512 214.284 98.8763 214.259 98.9014ZM219.766 104.248C219.791 104.298 219.816 104.298 219.867 104.298C219.917 104.273 219.917 104.223 219.917 104.198C219.892 104.147 219.841 104.147 219.816 104.147C219.766 104.172 219.741 104.223 219.766 104.248ZM218.936 102.466C218.961 102.516 219.012 102.516 219.037 102.516C219.087 102.491 219.087 102.441 219.062 102.415C219.037 102.365 218.986 102.365 218.961 102.365C218.936 102.39 218.911 102.441 218.936 102.466ZM209.506 98.55C209.531 98.5751 209.556 98.5751 209.581 98.55C209.606 98.5249 209.606 98.4998 209.581 98.4747C209.556 98.4496 209.531 98.4496 209.506 98.4747C209.48 98.4998 209.48 98.5249 209.506 98.55ZM210.436 97.8723C210.461 97.8974 210.486 97.8974 210.512 97.8723C210.537 97.8472 210.537 97.8221 210.512 97.797C210.486 97.7719 210.461 97.7719 210.436 97.797C210.411 97.8221 210.411 97.8472 210.436 97.8723ZM213.655 101.035C213.655 101.06 213.68 101.085 213.705 101.085C213.73 101.085 213.756 101.06 213.756 101.035C213.756 101.01 213.73 100.985 213.705 100.985C213.68 100.985 213.68 101.01 213.655 101.035ZM213.831 99.9054C213.831 99.9305 213.856 99.9556 213.881 99.9556C213.907 99.9556 213.932 99.9305 213.932 99.9054C213.932 99.8803 213.932 99.8552 213.907 99.8552C213.881 99.8552 213.856 99.8552 213.831 99.9054ZM211.618 99.6795C211.643 99.6795 211.668 99.6795 211.693 99.6544C211.719 99.6293 211.693 99.6042 211.668 99.5791C211.643 99.554 211.618 99.5791 211.593 99.5791C211.593 99.6293 211.618 99.6544 211.618 99.6795ZM212.222 98.7006C212.247 98.7006 212.272 98.7006 212.297 98.6755C212.322 98.6504 212.297 98.6253 212.272 98.6002C212.247 98.5751 212.222 98.6002 212.196 98.6002C212.196 98.6504 212.196 98.6755 212.222 98.7006ZM215.994 100.357C215.994 100.382 216.019 100.407 216.044 100.382C216.069 100.382 216.094 100.357 216.069 100.332C216.069 100.307 216.044 100.282 216.019 100.307C215.994 100.307 215.994 100.332 215.994 100.357ZM215.717 99.2277C215.717 99.2528 215.742 99.2779 215.767 99.2528C215.793 99.2528 215.818 99.2277 215.793 99.2026C215.793 99.1775 215.767 99.1524 215.742 99.1775C215.717 99.1775 215.717 99.2026 215.717 99.2277ZM208.475 99.5289C208.5 99.554 208.525 99.554 208.55 99.5289C208.575 99.5038 208.575 99.4787 208.55 99.4536C208.525 99.4285 208.5 99.4285 208.475 99.4536C208.449 99.4787 208.449 99.5038 208.475 99.5289ZM209.38 98.5751C209.405 98.6002 209.43 98.6002 209.455 98.5751C209.48 98.55 209.48 98.5249 209.455 98.4998C209.43 98.4747 209.405 98.4747 209.38 98.4998C209.355 98.4998 209.355 98.55 209.38 98.5751C209.38 98.55 209.38 98.55 209.38 98.5751ZM210.285 97.5962C210.31 97.6213 210.335 97.6213 210.361 97.5962C210.386 97.5711 210.386 97.546 210.361 97.5209C210.335 97.4958 210.31 97.4958 210.285 97.5209C210.26 97.546 210.26 97.5711 210.285 97.5962ZM213.655 101.462C213.655 101.487 213.68 101.512 213.705 101.512C213.73 101.512 213.756 101.487 213.756 101.462C213.756 101.437 213.73 101.411 213.705 101.411C213.68 101.411 213.655 101.437 213.655 101.462ZM213.63 100.131C213.63 100.156 213.655 100.182 213.68 100.182C213.705 100.182 213.73 100.156 213.73 100.131C213.73 100.106 213.705 100.081 213.68 100.081C213.655 100.081 213.63 100.106 213.63 100.131ZM213.58 98.8261C213.58 98.8512 213.605 98.8763 213.63 98.8763C213.655 98.8763 213.68 98.8512 213.68 98.8261C213.68 98.801 213.655 98.7759 213.63 98.7759C213.605 98.7508 213.58 98.7759 213.58 98.8261ZM207.443 96.8432C207.443 96.8683 207.494 96.8934 207.519 96.8683C207.544 96.8432 207.569 96.8181 207.544 96.793C207.544 96.7679 207.494 96.7428 207.469 96.7679C207.443 96.793 207.418 96.8181 207.443 96.8432ZM211.115 100.357C211.115 100.382 211.115 100.382 211.115 100.357C211.165 100.382 211.191 100.357 211.216 100.332C211.216 100.307 211.216 100.282 211.191 100.257C211.165 100.257 211.14 100.257 211.115 100.282C211.09 100.332 211.09 100.357 211.115 100.357ZM211.568 99.0771C211.568 99.1022 211.568 99.1273 211.593 99.1524C211.618 99.1524 211.643 99.1524 211.668 99.1273C211.668 99.1022 211.668 99.0771 211.643 99.052C211.618 99.0269 211.568 99.052 211.568 99.0771ZM216.17 100.232C216.17 100.257 216.22 100.282 216.245 100.257C216.27 100.257 216.296 100.207 216.27 100.182C216.27 100.156 216.22 100.131 216.195 100.156C216.17 100.182 216.145 100.207 216.17 100.232ZM207.117 96.1153C207.142 96.1655 207.192 96.1906 207.242 96.1655C207.293 96.1404 207.318 96.0902 207.293 96.04C207.267 95.9898 207.217 95.9647 207.167 95.9898C207.117 96.0149 207.091 96.0651 207.117 96.1153ZM208.047 105.352C208.022 105.402 208.047 105.453 208.097 105.478C208.148 105.503 208.198 105.478 208.223 105.427C208.248 105.377 208.223 105.327 208.173 105.302C208.122 105.277 208.047 105.302 208.047 105.352ZM208.801 103.219C208.776 103.269 208.801 103.319 208.852 103.344C208.902 103.369 208.952 103.344 208.977 103.294C209.003 103.244 208.977 103.194 208.927 103.168C208.877 103.143 208.827 103.168 208.801 103.219ZM209.556 101.085C209.531 101.135 209.556 101.186 209.606 101.211C209.656 101.236 209.707 101.211 209.732 101.16C209.757 101.11 209.732 101.06 209.682 101.035C209.631 101.01 209.581 101.035 209.556 101.085ZM210.335 98.9516C210.31 99.0018 210.335 99.052 210.386 99.0771C210.436 99.1022 210.486 99.0771 210.512 99.0269C210.537 98.9767 210.512 98.9265 210.461 98.9014C210.411 98.8763 210.335 98.9014 210.335 98.9516ZM217.578 104.925C217.603 104.976 217.654 105.001 217.704 104.976C217.754 104.951 217.779 104.9 217.754 104.85C217.729 104.8 217.679 104.775 217.628 104.8C217.578 104.825 217.578 104.875 217.578 104.925ZM216.623 102.892C216.648 102.943 216.698 102.968 216.748 102.943C216.799 102.917 216.824 102.867 216.799 102.817C216.773 102.767 216.723 102.742 216.673 102.767C216.623 102.792 216.597 102.842 216.623 102.892ZM215.642 100.834C215.667 100.884 215.717 100.909 215.767 100.884C215.818 100.859 215.843 100.809 215.818 100.759C215.793 100.709 215.742 100.684 215.692 100.709C215.642 100.734 215.617 100.784 215.642 100.834ZM207.569 98.7508C207.619 98.7759 207.67 98.7759 207.695 98.7508C207.72 98.7006 207.72 98.6504 207.695 98.6253C207.645 98.6002 207.594 98.6002 207.569 98.6253C207.519 98.6504 207.519 98.7257 207.569 98.7508ZM209.078 97.0691C209.103 97.0942 209.179 97.0942 209.204 97.0691C209.229 97.0189 209.229 96.9687 209.204 96.9436C209.154 96.9185 209.103 96.9185 209.078 96.9436C209.028 96.9938 209.053 97.044 209.078 97.0691ZM212.649 105.026C212.649 105.076 212.699 105.126 212.75 105.126C212.8 105.126 212.85 105.076 212.825 105.026C212.825 104.976 212.775 104.925 212.725 104.925C212.674 104.925 212.649 104.976 212.649 105.026ZM212.523 102.767C212.523 102.817 212.574 102.867 212.624 102.867C212.674 102.867 212.725 102.817 212.699 102.767C212.699 102.717 212.649 102.666 212.599 102.666C212.574 102.666 212.523 102.717 212.523 102.767ZM212.423 100.508C212.423 100.558 212.473 100.608 212.523 100.608C212.574 100.608 212.624 100.558 212.624 100.508C212.624 100.458 212.574 100.407 212.523 100.407C212.448 100.407 212.423 100.458 212.423 100.508ZM207.117 97.1695C207.167 97.1946 207.217 97.1946 207.242 97.1695C207.267 97.1193 207.267 97.0691 207.242 97.044C207.217 97.0189 207.142 97.0189 207.117 97.044C207.066 97.0691 207.066 97.1193 207.117 97.1695ZM211.165 105.478C211.165 105.528 211.216 105.578 211.266 105.578C211.316 105.578 211.367 105.528 211.367 105.478C211.367 105.427 211.316 105.377 211.266 105.377C211.191 105.402 211.165 105.427 211.165 105.478ZM211.14 103.244C211.14 103.294 211.191 103.344 211.241 103.344C211.291 103.344 211.341 103.294 211.341 103.244C211.341 103.194 211.291 103.143 211.241 103.143C211.165 103.143 211.14 103.194 211.14 103.244ZM211.115 100.985C211.115 101.035 211.165 101.085 211.216 101.085C211.266 101.085 211.316 101.035 211.316 100.985C211.316 100.935 211.266 100.884 211.216 100.884C211.165 100.884 211.115 100.935 211.115 100.985ZM211.09 98.7257C211.09 98.7759 211.14 98.8261 211.165 98.8261C211.216 98.8261 211.266 98.7759 211.266 98.7257C211.266 98.6755 211.216 98.6253 211.165 98.6253C211.14 98.6253 211.09 98.6755 211.09 98.7257ZM207.619 101.286C207.594 101.336 207.619 101.386 207.67 101.411C207.72 101.437 207.77 101.411 207.796 101.361C207.821 101.311 207.796 101.261 207.745 101.236C207.695 101.211 207.645 101.236 207.619 101.286ZM208.475 99.2026C208.449 99.2528 208.475 99.303 208.525 99.3281C208.575 99.3532 208.625 99.3281 208.651 99.2779C208.676 99.2277 208.651 99.1775 208.6 99.1524C208.525 99.1273 208.475 99.1524 208.475 99.2026ZM209.304 97.1193C209.279 97.1695 209.304 97.2197 209.355 97.2448C209.405 97.2699 209.455 97.2448 209.48 97.1946C209.506 97.1444 209.48 97.0942 209.43 97.0691C209.38 97.044 209.33 97.0691 209.304 97.1193ZM215.415 103.445C215.441 103.495 215.491 103.52 215.541 103.495C215.591 103.47 215.617 103.419 215.591 103.369C215.566 103.319 215.516 103.294 215.466 103.319C215.415 103.344 215.39 103.394 215.415 103.445ZM214.535 101.386C214.56 101.437 214.611 101.462 214.661 101.437C214.711 101.411 214.736 101.361 214.711 101.311C214.686 101.261 214.636 101.236 214.586 101.261C214.535 101.261 214.51 101.336 214.535 101.386ZM213.655 99.303C213.68 99.3532 213.73 99.3783 213.781 99.3532C213.831 99.3281 213.856 99.2779 213.831 99.2277C213.806 99.1775 213.756 99.1524 213.705 99.1775C213.655 99.2026 213.63 99.2528 213.655 99.303ZM207.645 96.1655C207.67 96.1906 207.72 96.1906 207.745 96.1404C207.77 96.1153 207.77 96.0651 207.72 96.04C207.695 96.0149 207.645 96.04 207.619 96.0651C207.594 96.1153 207.594 96.1404 207.645 96.1655ZM211.92 101.662C211.92 101.713 211.97 101.713 211.995 101.713C212.02 101.713 212.046 101.662 212.046 101.637C212.046 101.612 211.995 101.587 211.97 101.587C211.945 101.587 211.92 101.637 211.92 101.662ZM211.568 100.006C211.568 100.056 211.618 100.056 211.643 100.056C211.693 100.056 211.693 100.006 211.693 99.9807C211.693 99.9305 211.643 99.9305 211.618 99.9305C211.568 99.9305 211.543 99.9807 211.568 100.006ZM211.191 98.3492C211.191 98.3994 211.241 98.3994 211.266 98.3994C211.316 98.3994 211.316 98.3492 211.316 98.3241C211.316 98.2739 211.266 98.2739 211.241 98.2739C211.216 98.2739 211.191 98.3241 211.191 98.3492ZM208.399 100.834C208.399 100.884 208.424 100.909 208.449 100.909C208.5 100.909 208.525 100.884 208.525 100.859C208.525 100.809 208.5 100.784 208.475 100.784C208.449 100.759 208.424 100.784 208.399 100.834ZM208.701 99.1524C208.701 99.2026 208.726 99.2277 208.751 99.2277C208.801 99.2277 208.827 99.2026 208.827 99.1775C208.827 99.1524 208.801 99.1022 208.776 99.1022C208.751 99.1022 208.701 99.1273 208.701 99.1524ZM209.003 97.4958C209.003 97.5209 209.028 97.5711 209.053 97.5711C209.078 97.5711 209.128 97.546 209.128 97.5209C209.128 97.4707 209.103 97.4456 209.078 97.4456C209.053 97.4205 209.003 97.4456 209.003 97.4958C209.003 97.4707 209.003 97.4707 209.003 97.4958ZM214.787 99.5289C214.812 99.554 214.862 99.5791 214.887 99.554C214.912 99.5289 214.938 99.4787 214.912 99.4536C214.887 99.4285 214.837 99.4285 214.812 99.4285C214.787 99.4536 214.787 99.5038 214.787 99.5289ZM208.676 97.0691C208.676 97.0942 208.701 97.1193 208.701 97.1193C208.726 97.1193 208.751 97.0942 208.751 97.0942C208.751 97.0691 208.726 97.044 208.726 97.044C208.701 97.044 208.676 97.044 208.676 97.0691ZM209.48 98.7508C209.506 98.7759 209.531 98.801 209.556 98.7759C209.581 98.7759 209.606 98.7257 209.581 98.7006C209.581 98.6755 209.531 98.6504 209.506 98.6504C209.48 98.6755 209.455 98.7006 209.48 98.7508ZM208.902 97.3201C208.902 97.3452 208.952 97.3703 208.977 97.3703C209.003 97.3703 209.028 97.3201 209.028 97.295C209.003 97.2699 208.977 97.2448 208.952 97.2699C208.902 97.2448 208.902 97.2699 208.902 97.3201Z" fill="white"/>
<path d="M254.522 111.879C252.434 111.552 249.718 110.85 249.064 109.971C248.436 109.093 250.498 108.691 250.976 107.336C251.453 105.98 250.573 105.83 250.171 106.307C249.24 107.336 248.235 108.264 247.128 109.093C245.921 109.971 245.695 110.122 243.28 108.766C240.866 107.411 238.15 104.6 238.15 104.6C238.15 104.6 233.548 100.207 233.07 99.2533L228.217 108.741C228.217 108.741 232.567 109.745 233.749 109.921C235.811 110.147 240.011 110.574 245.292 114.188C250.573 117.777 253.063 116.748 255.377 114.59C257.74 112.456 256.609 112.205 254.522 111.879Z" fill="url(#paint2_linear_2266_9980)"/>
<path d="M228.519 73.6006C228.519 73.6006 211.418 77.1146 203.295 91.8485C203.295 91.8485 210.563 102.215 223.967 98.3495C223.967 98.3495 224.495 84.7451 231.612 77.4409C231.612 77.4911 229.55 77.7672 228.519 73.6006Z" fill="url(#paint3_linear_2266_9980)"/>
<path d="M231.612 77.4906C231.612 77.4906 226.984 89.363 234.026 98.7004L227.588 110.422C227.588 110.422 218.711 108.314 218.183 91.4464C217.655 74.5789 228.544 73.6251 228.544 73.6251C228.544 73.6251 229.072 76.9634 231.612 77.4906Z" fill="#A1C3FC"/>
<path d="M234.328 72.1194C234.177 72.3453 231.889 75.9096 231.587 77.4909C231.587 77.4909 229.223 77.4909 228.494 73.6254C228.494 73.6254 230.078 72.5963 230.732 71.1154C231.109 71.5672 232.216 71.8433 232.97 71.9939C233.448 72.0692 233.875 72.1194 234.328 72.1194Z" fill="url(#paint4_linear_2266_9980)"/>
<path d="M240.29 67.7768C239.712 68.2035 239.536 67.9525 239.359 68.329C239.234 68.6051 239.083 70.2366 237.8 71.2156L237.75 71.2407C237.75 71.2407 237.75 71.2407 237.725 71.2407C237.725 71.2407 237.725 71.2407 237.7 71.2658C237.574 71.3662 237.071 71.7678 236.04 71.9184C235.361 72.0188 234.581 72.2949 232.947 71.9686C232.243 71.8431 231.237 71.567 230.809 71.1905C231.086 70.6885 231.237 70.1362 230.784 69.8852C229.803 69.3832 229.25 69.2075 229.401 67.9525C229.527 66.8983 230.809 66.7979 231.689 66.8732C232.444 66.9485 235.638 65.3421 236.518 61.326C236.945 61.5268 237.322 61.8029 237.624 62.1292C237.976 62.5057 238.253 62.9324 238.454 63.4093C238.806 64.2879 239.536 65.9696 240.139 66.4214C240.516 66.6724 240.617 67.1995 240.365 67.576C240.416 67.6513 240.365 67.7266 240.29 67.7768Z" fill="#FFBEB5"/>
<path d="M241.419 65.417C241.494 64.6891 241.142 63.9612 240.589 63.8106C240.036 63.66 239.533 64.1118 239.457 64.8397C239.457 64.915 239.432 65.0154 239.457 65.0907C239.13 65.0907 238.803 65.2413 238.602 65.5174C238.577 65.4672 238.577 65.4421 238.552 65.3919C238.401 65.0656 238.124 64.8146 237.797 64.6891C237.169 64.5134 236.59 65.0405 236.49 65.8939C236.439 66.2955 236.515 66.6971 236.691 67.0736C236.817 67.3246 237.018 67.5505 237.244 67.7011C237.294 67.7262 237.37 67.7513 237.445 67.7764C237.747 67.8768 238.074 67.7764 238.3 67.5505C238.552 67.2744 238.728 66.9481 238.753 66.5716C238.778 66.2955 238.753 65.9943 238.678 65.7182C238.879 65.4923 239.155 65.2413 239.457 65.2915C239.457 65.3166 239.457 65.3166 239.457 65.3417C239.457 65.3668 239.482 65.3668 239.482 65.3919C239.558 65.6429 239.684 65.8688 239.86 66.0696C239.935 66.1449 240.01 66.2202 240.111 66.2955C240.136 66.3206 240.161 66.3206 240.161 66.3457C240.186 66.3708 240.212 66.3959 240.237 66.421C240.237 66.421 240.262 66.421 240.262 66.4461C240.815 66.5967 241.318 66.1449 241.419 65.417ZM238.552 66.5214C238.527 66.8477 238.376 67.174 238.149 67.3999C237.973 67.6007 237.697 67.6509 237.445 67.6007C237.169 67.5003 236.942 67.2995 236.817 67.0234C236.666 66.6971 236.59 66.3457 236.641 65.9692C236.716 65.2162 237.219 64.7393 237.747 64.915C237.797 64.9401 237.848 64.9401 237.898 64.9903C238.099 65.1158 238.275 65.2915 238.376 65.5174C238.552 65.7935 238.602 66.1449 238.552 66.5214ZM240.287 66.2453C239.834 66.1198 239.533 65.4923 239.608 64.8648C239.684 64.2373 240.111 63.8357 240.539 63.9612C240.991 64.0867 241.293 64.7142 241.218 65.3417C241.167 65.9943 240.74 66.3959 240.287 66.2453Z" fill="#3E8AF8"/>
<path d="M221.88 70.6132C221.829 70.6634 221.754 70.7136 221.704 70.7638C221.025 71.1403 220.421 71.6674 219.667 72.0188C217.554 73.0228 215.467 71.4164 213.329 71.316C209.96 71.1403 207.118 73.5248 206.464 76.7879C206.439 76.8883 206.615 76.9385 206.64 76.8381C206.967 75.0057 208.073 73.3993 209.633 72.4204C211.494 71.2909 213.531 71.3411 215.542 71.9686C216.825 72.3702 218.133 72.7969 219.44 72.2949C219.692 72.1945 219.943 72.069 220.17 71.9184C218.108 73.4997 217.73 73.3491 214.587 72.4957C210.739 71.4415 208.149 74.6794 207.797 77.6664C207.797 77.6664 210.865 80.4274 213.581 80.5529C213.581 80.5529 219.038 76.311 228.494 73.6001C229.198 73.1232 229.827 72.5459 230.33 71.8682C230.38 71.8933 225.602 67.6764 221.88 70.6132Z" fill="#23286B"/>
<path d="M238.528 63.4344C238.528 63.4344 237.849 61.4766 236.642 61.1503L236.591 61.4264C236.617 61.326 236.642 61.2256 236.667 61.1503C236.667 61.1503 232.819 59.6442 229.047 61.577C225.275 63.5097 225.35 71.1402 230.128 72.2195C230.128 72.2195 231.838 70.4123 230.858 69.8852C229.877 69.3581 229.324 69.2075 229.475 67.9525C229.6 66.9987 230.631 66.823 231.461 66.8481C231.838 66.9736 232.216 67.0489 232.618 67.074C233.423 67.074 234.227 66.823 234.856 66.346C236.365 65.2667 236.793 63.4093 236.617 61.6523C236.969 61.828 238.226 62.4806 238.528 63.4344ZM232.266 66.8732C232.216 66.8732 232.14 66.8481 232.09 66.8481C233.146 66.5971 235.535 65.091 236.466 61.8782C236.591 64.338 235.183 67.2748 232.266 66.8732Z" fill="#23286B"/>
<path d="M335.022 182.398C335.057 182.285 335.093 182.171 335.244 182.092C342.553 175.707 350.176 169.54 357.496 163.531C372.625 151.162 388.313 138.215 402.007 123.928C425.731 98.9779 439.262 73.3446 442.12 47.7539C442.109 47.3783 442.599 47.0278 442.947 47.1318C443.331 47.1221 443.69 47.6017 443.584 47.9426C440.621 73.8742 426.984 99.8484 403.073 124.991C389.344 139.392 373.656 152.339 358.375 164.787C351.056 170.796 343.398 177.077 336.124 183.348C335.786 183.619 335.286 183.594 335.008 183.263C334.997 182.888 334.952 182.626 335.022 182.398Z" fill="#C4D9F8"/>
<path d="M408.311 73.2721C408.347 73.1569 408.417 72.9264 408.566 72.8462C408.899 72.5705 409.389 72.5953 409.623 73.0459L426.107 95.0269C426.376 95.3622 426.235 95.8231 425.902 96.0988C425.569 96.3744 425.079 96.3497 424.845 95.8991L408.362 73.9181C408.283 73.7679 408.241 73.5025 408.311 73.2721Z" fill="#C4D9F8"/>
<path d="M412.393 67.6181C412.429 67.5028 412.499 67.2724 412.648 67.1922C412.981 66.9165 413.47 66.9412 413.705 67.3918L430.032 89.0743C430.301 89.4098 430.273 89.9056 429.827 90.1464C429.494 90.4221 429.005 90.3973 428.77 89.9467L412.557 68.2992C412.365 68.114 412.323 67.8485 412.393 67.6181Z" fill="#C4D9F8"/>
<path d="M416.598 62.0003C416.633 61.8851 416.704 61.6546 416.853 61.5744C417.186 61.2988 417.675 61.3235 417.909 61.7741L432.966 81.9268C433.236 82.2622 433.208 82.758 432.762 82.9987C432.429 83.2744 431.939 83.2496 431.705 82.799L416.761 62.6813C416.57 62.4961 416.527 62.2307 416.598 62.0003Z" fill="#C4D9F8"/>
<path d="M420.799 56.3831C420.835 56.2679 420.905 56.0375 421.054 55.9573C421.387 55.6816 421.877 55.7063 422.111 56.1569L436.203 75.0028C436.472 75.3382 436.444 75.834 435.998 76.0747C435.665 76.3503 435.175 76.3256 434.941 75.875L420.814 57.1443C420.771 56.8789 420.729 56.6135 420.799 56.3831Z" fill="#C4D9F8"/>
<path d="M424.97 50.879C425.005 50.7638 425.076 50.5334 425.225 50.4531C425.558 50.1775 426.047 50.2022 426.317 50.5376L439.173 67.7418C439.443 68.0772 439.301 68.538 438.968 68.8136C438.635 69.0893 438.146 69.0645 437.912 68.614L425.02 51.525C424.977 51.2596 424.899 51.1094 424.97 50.879Z" fill="#C4D9F8"/>
<path d="M429.068 45.2235C429.103 45.1083 429.174 44.878 429.323 44.7978C429.656 44.5222 430.145 44.5469 430.38 44.9974L441.384 59.7358C441.654 60.0711 441.512 60.5318 441.179 60.8074C440.846 61.083 440.357 61.0582 440.122 60.6078L429.118 45.8694C429.04 45.7192 428.997 45.4539 429.068 45.2235Z" fill="#C4D9F8"/>
<path d="M433.285 39.606C433.321 39.4908 433.391 39.2605 433.54 39.1803C433.873 38.9047 434.363 38.9294 434.597 39.3799L443.323 51.0193C443.593 51.3546 443.451 51.8153 443.118 52.0908C442.785 52.3664 442.296 52.3416 442.061 51.8912L433.336 40.2518C433.257 40.1016 433.215 39.8363 433.285 39.606Z" fill="#C4D9F8"/>
<path d="M424.798 95.7633C424.869 95.5311 425.087 95.2181 425.462 95.2076L452.547 91.6885C452.922 91.6781 453.34 91.9349 453.348 92.3184C453.356 92.7018 453.103 93.1309 452.728 93.1414L425.607 96.7766C425.233 96.7871 424.815 96.5302 424.806 96.1467C424.728 95.9955 424.763 95.8794 424.798 95.7633Z" fill="#C4D9F8"/>
<path d="M428.756 88.5418C428.826 88.3097 429.045 87.9967 429.42 87.9862L453.81 84.7726C454.185 84.7621 454.603 85.019 454.611 85.4024C454.62 85.7859 454.366 86.215 453.991 86.2255L429.6 89.439C429.225 89.4495 428.807 89.1926 428.799 88.8092C428.799 88.8092 428.721 88.6579 428.756 88.5418Z" fill="#C4D9F8"/>
<path d="M432.416 81.4753C432.486 81.2432 432.704 80.9302 433.079 80.9197L455.151 78.0017C455.526 77.9912 455.944 78.2481 455.952 78.6315C455.961 79.0149 455.707 79.4439 455.332 79.4544L433.26 82.3724C432.885 82.3829 432.467 82.126 432.459 81.7427C432.346 81.7075 432.381 81.5914 432.416 81.4753Z" fill="#C4D9F8"/>
<path d="M435.7 74.4153C435.771 74.1832 435.989 73.8702 436.364 73.8598L456.492 71.2263C456.867 71.2158 457.285 71.4727 457.293 71.856C457.301 72.2394 457.047 72.6684 456.672 72.6789L436.544 75.3124C436.17 75.3228 435.752 75.066 435.744 74.6826C435.665 74.5314 435.7 74.4153 435.7 74.4153Z" fill="#C4D9F8"/>
<path d="M438.236 67.3674C438.307 67.1353 438.525 66.8224 438.9 66.8119L457.756 64.2915C458.131 64.281 458.549 64.5378 458.557 64.9211C458.565 65.3044 458.311 65.7333 457.936 65.7438L438.967 68.229C438.592 68.2395 438.174 67.9827 438.166 67.5994C438.166 67.5994 438.201 67.4834 438.236 67.3674Z" fill="#C4D9F8"/>
<path d="M440.362 60.4413C440.432 60.2093 440.65 59.8964 441.025 59.8859L459.096 57.5024C459.471 57.492 459.889 57.7487 459.897 58.132C459.905 58.5153 459.651 58.9443 459.276 58.9547L441.206 61.3382C440.831 61.3487 440.413 61.0919 440.405 60.7086C440.327 60.5574 440.362 60.4413 440.362 60.4413Z" fill="#C4D9F8"/>
<path d="M441.59 53.6082C441.66 53.3761 441.878 53.0632 442.253 53.0527L460.586 50.6236C460.961 50.6131 461.379 50.8699 461.387 51.2532C461.395 51.6365 461.141 52.0654 460.766 52.0759L442.434 54.505C442.059 54.5155 441.641 54.2587 441.633 53.8754C441.52 53.8402 441.555 53.7242 441.59 53.6082Z" fill="#C4D9F8"/>
<path d="M369.965 69.2956C370.036 69.0691 370.19 68.9907 370.379 68.799C370.806 68.6769 371.282 68.816 371.449 69.112C383.793 92.3669 387.079 121.374 380.96 155.167C377.517 174.546 371.435 193.647 365.684 212.104C362.897 221.049 360.004 230.334 357.419 239.462C357.313 239.802 356.851 240.037 356.459 240.046C356.102 239.942 355.851 239.498 355.838 239.123C358.423 229.995 361.316 220.71 364.103 211.765C369.854 193.308 375.936 174.207 379.344 154.941C385.511 121.41 382.238 92.777 370.062 69.8181C369.978 69.6701 369.93 69.4088 369.965 69.2956Z" fill="#C4D9F8"/>
<path d="M357.054 108.403C357.185 107.931 357.622 107.685 358.041 107.948L383.646 117.584C383.985 117.693 384.225 118.156 384.094 118.629C383.963 119.101 383.559 119.229 383.107 119.084L357.502 109.448C357.083 109.185 356.923 108.876 357.054 108.403Z" fill="#C4D9F8"/>
<path d="M357.46 101.422C357.591 100.949 358.028 100.703 358.446 100.966L383.631 110.342C383.97 110.451 384.211 110.914 384.08 111.387C383.949 111.86 383.545 111.987 383.093 111.842L357.908 102.467C357.602 102.24 357.362 101.776 357.46 101.422Z" fill="#C4D9F8"/>
<path d="M357.978 94.4793C358.109 94.0066 358.547 93.7608 358.965 94.0238L382.347 102.812C382.686 102.921 383.039 103.42 382.795 103.856C382.664 104.329 382.259 104.457 381.808 104.312L358.426 95.5238C358.007 95.2608 357.88 94.8338 357.978 94.4793Z" fill="#C4D9F8"/>
<path d="M358.386 87.4982C358.518 87.0256 358.955 86.7798 359.374 87.0428L381.208 95.2032C381.547 95.3119 381.9 95.8112 381.656 96.2476C381.525 96.7202 381.12 96.8479 380.668 96.7031L358.867 88.4244C358.528 88.3158 358.288 87.8527 358.386 87.4982Z" fill="#C4D9F8"/>
<path d="M358.795 80.517C358.927 80.0444 359.364 79.7986 359.783 80.0615L379.845 87.521C380.184 87.6296 380.424 88.0926 380.293 88.5652C380.161 89.0377 379.756 89.1654 379.305 89.0207L359.243 81.5611C358.937 81.3344 358.697 80.8714 358.795 80.517Z" fill="#C4D9F8"/>
<path d="M359.316 73.5725C359.448 73.1002 359.886 72.8543 360.305 73.117L377.354 79.4723C377.693 79.5807 377.933 80.0434 377.8 80.5157C377.668 80.988 377.263 81.1158 376.812 80.9712L359.762 74.6159C359.343 74.3533 359.217 73.9267 359.316 73.5725Z" fill="#C4D9F8"/>
<path d="M359.726 66.591C359.859 66.1192 360.298 65.8734 360.717 66.1356L374.189 71.2043C374.528 71.3124 374.88 71.8104 374.634 72.2462C374.501 72.718 374.095 72.8458 373.643 72.7016L360.171 67.6328C359.866 67.4068 359.626 66.9448 359.726 66.591Z" fill="#C4D9F8"/>
<path d="M382.811 118.4C382.847 118.286 382.882 118.172 383.032 118.093L404.203 100.319C404.538 100.047 405.031 100.072 405.305 100.405C405.578 100.738 405.551 101.229 405.216 101.501L384.046 119.275C383.711 119.548 383.217 119.522 382.944 119.189C382.785 118.892 382.741 118.629 382.811 118.4Z" fill="#C4D9F8"/>
<path d="M382.383 110.124C382.418 110.01 382.454 109.896 382.603 109.817L401.578 93.8711C401.913 93.5986 402.407 93.624 402.68 93.9567C402.953 94.2894 402.927 94.7806 402.592 95.0531L383.617 110.999C383.282 111.271 382.788 111.246 382.515 110.913C382.356 110.615 382.312 110.352 382.383 110.124Z" fill="#C4D9F8"/>
<path d="M381.472 102.195C381.508 102.081 381.543 101.967 381.693 101.888L398.956 87.4179C399.291 87.1454 399.784 87.1707 400.057 87.5035C400.331 87.8362 400.304 88.3274 399.969 88.5999L382.706 103.07C382.371 103.342 381.878 103.317 381.604 102.984C381.446 102.686 381.402 102.423 381.472 102.195Z" fill="#C4D9F8"/>
<path d="M380.486 94.4931C380.521 94.379 380.557 94.265 380.706 94.1857L396.443 80.9988C396.778 80.7263 397.272 80.7516 397.545 81.0844C397.818 81.4171 397.792 81.9083 397.457 82.1809L381.72 95.3678C381.385 95.6403 380.891 95.615 380.618 95.2822C380.459 94.9843 380.415 94.7213 380.486 94.4931Z" fill="#C4D9F8"/>
<path d="M378.756 87.1784C378.791 87.0643 378.826 86.9502 378.976 86.871L393.707 74.5008C394.042 74.2282 394.535 74.2535 394.808 74.5863C395.081 74.9191 395.055 75.4103 394.72 75.6829L380.025 87.939C379.69 88.2116 379.196 88.1863 378.923 87.8535C378.729 87.6697 378.685 87.4066 378.756 87.1784Z" fill="#C4D9F8"/>
<path d="M376.803 80.1689C376.838 80.0548 376.873 79.9407 377.023 79.8614L391.233 67.9566C391.568 67.684 392.061 67.7093 392.334 68.0421C392.607 68.3749 392.581 68.8662 392.246 69.1387L378.186 80.9644C377.851 81.2369 377.358 81.2116 377.084 80.8788C376.776 80.6601 376.732 80.3971 376.803 80.1689Z" fill="#C4D9F8"/>
<path d="M374.025 73.7706C374.06 73.6565 374.096 73.5424 374.246 73.4632L388.456 61.5592C388.791 61.2866 389.285 61.312 389.558 61.6447C389.831 61.9775 389.805 62.4687 389.47 62.7413L375.259 74.6453C374.924 74.9178 374.43 74.8925 374.157 74.5597C373.999 74.2618 373.955 73.9988 374.025 73.7706Z" fill="#C4D9F8"/>
<path d="M329.846 180.705C329.881 180.59 329.952 180.36 330.101 180.279C337.16 175.519 344.289 170.528 351.121 165.698C365.266 155.681 379.894 145.309 395.389 136.966C422.504 122.367 447.835 116.792 470.779 120.183C471.155 120.172 471.503 120.657 471.396 121.002C471.29 121.347 470.921 121.738 470.58 121.633C448.013 118.232 423.058 123.796 396.241 138.236C380.746 146.578 366.267 156.87 352.122 166.887C345.29 171.717 338.125 176.823 331.066 181.584C330.733 181.859 330.279 181.72 330.009 181.385C329.817 181.2 329.775 180.935 329.846 180.705Z" fill="#C4D9F8"/>
<path d="M425.664 125.233C425.699 125.117 425.77 124.887 425.919 124.806C426.252 124.53 426.741 124.555 426.976 125.005L441.596 144.522C441.866 144.857 441.724 145.318 441.391 145.595C441.058 145.871 440.569 145.846 440.335 145.396L425.792 126.029C425.636 125.729 425.593 125.463 425.664 125.233Z" fill="#C4D9F8"/>
<path d="M431.794 123.617C431.83 123.501 431.9 123.271 432.049 123.19C432.382 122.914 432.872 122.939 433.106 123.389L447.457 142.57C447.726 142.905 447.585 143.366 447.252 143.642C446.919 143.918 446.429 143.894 446.195 143.443L431.844 124.263C431.766 124.113 431.723 123.847 431.794 123.617Z" fill="#C4D9F8"/>
<path d="M438.535 122.823C438.57 122.708 438.641 122.477 438.79 122.397C439.123 122.121 439.612 122.145 439.846 122.596L453.267 140.356C453.537 140.692 453.395 141.153 453.062 141.429C452.729 141.705 452.24 141.681 452.006 141.23L438.698 123.504C438.506 123.319 438.464 123.054 438.535 122.823Z" fill="#C4D9F8"/>
<path d="M445.275 122.028C445.31 121.913 445.381 121.682 445.53 121.602C445.863 121.326 446.352 121.35 446.586 121.801L459.121 138.404C459.391 138.74 459.249 139.201 458.916 139.477C458.583 139.753 458.094 139.729 457.859 139.278L445.438 122.709C445.282 122.409 445.239 122.143 445.275 122.028Z" fill="#C4D9F8"/>
<path d="M452.128 121.27C452.163 121.155 452.234 120.925 452.383 120.844C452.716 120.568 453.205 120.593 453.439 121.043L464.896 136.303C465.166 136.638 465.024 137.1 464.691 137.376C464.358 137.652 463.869 137.627 463.635 137.177L452.178 121.917C452.1 121.766 452.057 121.501 452.128 121.27Z" fill="#C4D9F8"/>
<path d="M459.671 121.483C459.706 121.368 459.777 121.137 459.926 121.057C460.259 120.781 460.748 120.805 460.982 121.256L470.78 134.238C471.049 134.573 470.908 135.035 470.574 135.311C470.241 135.587 469.752 135.562 469.518 135.112L459.721 122.13C459.643 121.979 459.6 121.714 459.671 121.483Z" fill="#C4D9F8"/>
<path d="M467.443 122.146C467.478 122.03 467.549 121.8 467.698 121.719C468.031 121.443 468.521 121.468 468.755 121.918L476.544 132.137C476.814 132.473 476.672 132.934 476.339 133.21C476.006 133.486 475.517 133.461 475.283 133.011L467.493 122.792C467.415 122.642 467.372 122.376 467.443 122.146Z" fill="#C4D9F8"/>
<path d="M425.741 125.13L435.264 102.718C435.37 102.379 435.84 102.144 436.326 102.283C436.69 102.387 436.948 102.83 436.806 103.283L427.283 125.694C427.177 126.033 426.707 126.268 426.221 126.13C425.771 125.878 425.599 125.582 425.741 125.13Z" fill="#C4D9F8"/>
<path d="M432.843 123.578L441.409 103.357C441.515 103.017 441.985 102.782 442.47 102.921C442.833 103.025 443.09 103.469 442.949 103.921L434.418 124.029C434.312 124.369 433.843 124.604 433.358 124.465C432.873 124.326 432.737 123.917 432.843 123.578Z" fill="#C4D9F8"/>
<path d="M439.796 122.479C439.831 122.366 439.831 122.366 439.796 122.479L447.515 104.11C447.621 103.77 448.09 103.535 448.575 103.674C448.938 103.778 449.195 104.222 449.053 104.674L441.37 122.93C441.263 123.27 440.794 123.505 440.31 123.366C439.826 123.227 439.69 122.818 439.796 122.479Z" fill="#C4D9F8"/>
<path d="M446.599 121.457C446.599 121.457 446.635 121.344 446.599 121.457L453.66 104.747C453.766 104.407 454.234 104.172 454.717 104.311C455.079 104.415 455.336 104.859 455.194 105.311L448.169 121.908C448.063 122.248 447.595 122.483 447.112 122.344C446.629 122.205 446.493 121.796 446.599 121.457Z" fill="#C4D9F8"/>
<path d="M453.185 121.111L459.804 105.383C459.91 105.043 460.378 104.808 460.86 104.947C461.222 105.051 461.478 105.495 461.337 105.947L454.753 121.562C454.647 121.901 454.179 122.136 453.697 121.998C453.214 121.859 453.079 121.45 453.185 121.111Z" fill="#C4D9F8"/>
<path d="M459.543 121.069L465.91 106.131C466.016 105.792 466.483 105.556 466.965 105.695C467.326 105.799 467.582 106.243 467.44 106.695L461.074 121.633C460.968 121.973 460.501 122.208 460.019 122.069C459.693 121.852 459.437 121.409 459.543 121.069Z" fill="#C4D9F8"/>
<path d="M465.612 121.931C465.612 121.931 465.647 121.818 465.612 121.931L472.05 106.767C472.156 106.427 472.623 106.192 473.105 106.331C473.467 106.435 473.722 106.879 473.581 107.331L467.178 122.382C467.072 122.721 466.605 122.957 466.123 122.818C465.762 122.714 465.506 122.27 465.612 121.931Z" fill="#C4D9F8"/>
<path d="M394.158 322.102H319.126C311.439 322.102 305.207 315.883 305.207 308.211V121.893C305.207 114.222 311.439 108.002 319.126 108.002H394.158C401.845 108.002 408.077 114.222 408.077 121.893V308.211C408.077 315.883 401.846 322.102 394.158 322.102Z" fill="#C1D7FD"/>
<path d="M341.863 123.876C343.208 123.876 344.298 122.788 344.298 121.445C344.298 120.103 343.208 119.014 341.863 119.014C340.517 119.014 339.427 120.103 339.427 121.445C339.427 122.788 340.517 123.876 341.863 123.876Z" fill="#A1C3FC"/>
<path d="M394.158 108H379.755C379.016 108.459 378.29 108.93 377.579 109.405C358.708 122.014 342.477 139.865 336.161 161.635C333.615 170.41 332.734 179.572 330.799 188.502C326.367 208.947 316.494 227.818 305.207 245.453V308.211C305.207 315.882 311.439 322.102 319.126 322.102H394.158C401.845 322.102 408.078 315.882 408.078 308.211V121.893C408.078 114.22 401.846 108 394.158 108Z" fill="#A1C3FC"/>
<path d="M357.393 318.224C362.168 318.224 366.038 314.361 366.038 309.596C366.038 304.831 362.168 300.969 357.393 300.969C352.619 300.969 348.748 304.831 348.748 309.596C348.748 314.361 352.619 318.224 357.393 318.224Z" fill="url(#paint5_linear_2266_9980)"/>
<path d="M365.803 118.571L348.476 120.728L348.848 123.702L366.175 121.544L365.803 118.571Z" fill="#A1C3FC"/>
<path d="M404.004 132.238H309.281V298.078H404.004V132.238Z" fill="white"/>
<path d="M356.375 315.174C360.024 315.174 362.982 312.222 362.982 308.58C362.982 304.938 360.024 301.986 356.375 301.986C352.726 301.986 349.768 304.938 349.768 308.58C349.768 312.222 352.726 315.174 356.375 315.174Z" fill="#C1D7FD"/>
<path d="M363.687 121.301H349.448C349.166 121.301 348.939 121.073 348.939 120.793C348.939 120.512 349.166 120.285 349.448 120.285H363.687C363.969 120.285 364.196 120.513 364.196 120.793C364.196 121.073 363.969 121.301 363.687 121.301Z" fill="#428DFC"/>
<path opacity="0.51" d="M305.831 305.81C305.817 305.995 305.959 306.154 306.144 306.167C306.328 306.179 306.49 306.039 306.503 305.856C306.516 305.671 306.375 305.512 306.19 305.498C306.004 305.488 305.845 305.625 305.831 305.81ZM314.05 306.294C314.044 306.485 314.186 306.648 314.374 306.672C314.562 306.674 314.717 306.527 314.723 306.341C314.746 306.168 314.623 306.008 314.448 305.985C314.436 305.982 314.424 305.982 314.408 305.982C314.223 305.97 314.063 306.11 314.05 306.294ZM317.268 338.244C317.123 338.367 317.108 338.586 317.232 338.728C317.342 338.863 317.541 338.884 317.674 338.774C317.686 338.767 317.697 338.756 317.706 338.743C317.848 338.625 317.868 338.42 317.755 338.278C317.63 338.135 317.412 338.12 317.268 338.244ZM314.523 290.28C314.443 290.441 314.508 290.639 314.671 290.721C314.834 290.801 315.031 290.736 315.113 290.573C315.197 290.411 315.128 290.213 314.966 290.131C314.816 290.045 314.623 290.099 314.538 290.249C314.531 290.26 314.527 290.269 314.523 290.28ZM312.537 321.448C312.363 321.522 312.273 321.713 312.324 321.893C312.388 322.075 312.589 322.168 312.772 322.105C312.954 322.041 313.05 321.842 312.985 321.66C312.91 321.486 312.716 321.396 312.537 321.448ZM320.324 318.763C320.149 318.828 320.065 319.024 320.13 319.198C320.176 319.37 320.354 319.474 320.528 319.428C320.536 319.425 320.546 319.424 320.556 319.42C320.734 319.351 320.827 319.157 320.769 318.975C320.696 318.803 320.504 318.711 320.324 318.763ZM289.134 264.25C288.956 264.551 289.057 264.944 289.362 265.122C289.366 265.127 289.375 265.128 289.381 265.133C289.682 265.307 290.07 265.203 290.245 264.903C290.246 264.901 290.245 264.9 290.246 264.898C290.424 264.596 290.323 264.204 290.018 264.025C290.014 264.02 290.005 264.019 289.999 264.014C289.698 263.841 289.31 263.944 289.135 264.245C289.133 264.246 289.133 264.246 289.134 264.25ZM302.679 271.967C302.501 272.277 302.605 272.672 302.916 272.854C303.228 273.035 303.623 272.928 303.806 272.617C303.807 272.612 303.811 272.612 303.812 272.606C303.986 272.305 303.882 271.919 303.582 271.746C303.581 271.745 303.58 271.746 303.577 271.745C303.263 271.569 302.869 271.668 302.679 271.967ZM267.61 321.215C267.267 321.315 267.069 321.668 267.162 322.011C267.242 322.346 267.575 322.552 267.907 322.476C267.919 322.472 267.93 322.472 267.941 322.468C268.283 322.367 268.482 322.014 268.389 321.67C268.298 321.331 267.951 321.127 267.61 321.215ZM297.756 313.037C297.415 313.128 297.215 313.472 297.304 313.812C297.305 313.818 297.308 313.827 297.311 313.833C297.391 314.167 297.724 314.373 298.056 314.297C298.068 314.294 298.079 314.294 298.09 314.289C298.434 314.182 298.637 313.832 298.559 313.481C298.454 313.142 298.1 312.943 297.756 313.037ZM312.815 308.944C312.472 309.04 312.27 309.398 312.368 309.741C312.463 310.085 312.823 310.283 313.166 310.186C313.508 310.098 313.713 309.751 313.624 309.41C313.537 309.065 313.188 308.853 312.839 308.938C312.831 308.938 312.823 308.942 312.815 308.944ZM272.264 288.272C272.229 288.624 272.487 288.935 272.841 288.969C273.194 289.004 273.506 288.746 273.54 288.393C273.573 288.048 273.324 287.741 272.98 287.7C272.626 287.666 272.307 287.92 272.264 288.272ZM287.759 290.24C287.724 290.591 287.983 290.902 288.336 290.936C288.689 290.97 289.001 290.713 289.035 290.36C289.069 290.015 288.82 289.709 288.475 289.668C288.122 289.633 287.804 289.886 287.759 290.24ZM303.238 292.217C303.203 292.576 303.467 292.895 303.828 292.93C304.175 292.964 304.489 292.721 304.543 292.377C304.598 292.02 304.352 291.688 303.992 291.631C303.634 291.576 303.299 291.823 303.244 292.179C303.239 292.195 303.238 292.205 303.238 292.217ZM287.678 345.436C287.401 345.66 287.352 346.063 287.574 346.345C287.783 346.623 288.181 346.674 288.458 346.465C288.459 346.464 288.462 346.462 288.463 346.461C288.746 346.271 288.819 345.887 288.629 345.604C288.619 345.591 288.611 345.579 288.6 345.563C288.372 345.289 287.972 345.236 287.678 345.436ZM312.408 326.401C312.133 326.603 312.07 326.988 312.272 327.263C312.277 327.27 312.283 327.28 312.292 327.286C312.497 327.573 312.899 327.636 313.187 327.431C313.196 327.425 313.205 327.419 313.213 327.413C313.495 327.19 313.543 326.786 313.323 326.505C313.101 326.224 312.693 326.177 312.414 326.396C312.411 326.397 312.409 326.4 312.408 326.401ZM274.615 273.189C274.546 273.496 274.738 273.802 275.044 273.875C275.351 273.947 275.66 273.755 275.734 273.447C275.806 273.138 275.613 272.833 275.304 272.76C274.996 272.691 274.69 272.882 274.615 273.189ZM288.209 276.253C288.14 276.561 288.332 276.866 288.638 276.94C288.944 277.021 289.26 276.839 289.341 276.533C289.422 276.228 289.241 275.914 288.933 275.833C288.923 275.83 288.909 275.828 288.898 275.825C288.598 275.749 288.292 275.931 288.214 276.23C288.213 276.236 288.213 276.246 288.209 276.253ZM302.051 278.987C301.924 279.053 301.833 279.177 301.807 279.32C301.738 279.628 301.93 279.933 302.236 280.007C302.553 280.081 302.868 279.89 302.946 279.574C302.946 279.571 302.946 279.571 302.947 279.568C302.991 279.382 302.94 279.184 302.808 279.043L302.797 279.022C302.727 278.94 302.627 278.889 302.517 278.882C302.351 278.834 302.175 278.875 302.051 278.987ZM284.783 330.444C284.515 330.628 284.438 330.983 284.604 331.259C284.767 331.52 285.108 331.598 285.37 331.438C285.378 331.433 285.384 331.428 285.392 331.423C285.664 331.26 285.751 330.908 285.587 330.64C285.585 330.636 285.583 330.635 285.581 330.63C285.404 330.371 285.056 330.289 284.783 330.444ZM308.381 315.629C308.109 315.792 308.022 316.144 308.184 316.416C308.187 316.419 308.189 316.422 308.19 316.425C308.339 316.684 308.673 316.771 308.931 316.622C308.946 316.614 308.962 316.604 308.976 316.592C309.249 316.429 309.336 316.077 309.174 315.805C309.171 315.801 309.169 315.799 309.168 315.795C308.99 315.541 308.645 315.467 308.381 315.629ZM320.153 308.221C319.887 308.401 319.816 308.761 319.996 309.025C320.169 309.284 320.517 309.357 320.783 309.192C321.043 309.017 321.127 308.672 320.973 308.398C320.79 308.132 320.431 308.055 320.153 308.221ZM280.951 300.232C280.64 300.296 280.437 300.596 280.493 300.906C280.546 301.215 280.837 301.424 281.147 301.371C281.459 301.311 281.674 301.022 281.637 300.708C281.575 300.393 281.272 300.178 280.951 300.232ZM294.703 297.891C294.4 297.931 294.186 298.209 294.227 298.51C294.228 298.52 294.232 298.533 294.232 298.543C294.285 298.852 294.577 299.06 294.886 299.007C295.198 298.948 295.414 298.658 295.376 298.345C295.315 298.038 295.013 297.835 294.703 297.891ZM308.442 295.531C308.131 295.586 307.927 295.88 307.98 296.188C308.034 296.492 308.322 296.7 308.629 296.65C308.939 296.601 309.153 296.311 309.106 296C309.056 295.688 308.767 295.478 308.454 295.525C308.45 295.529 308.448 295.53 308.442 295.531ZM316.706 334.314C316.523 334.575 316.58 334.934 316.838 335.125C317.106 335.301 317.468 335.233 317.648 334.963C317.818 334.708 317.762 334.366 317.521 334.18C317.273 333.992 316.915 334.038 316.725 334.283C316.718 334.297 316.711 334.307 316.706 334.314ZM306.937 296.996C306.763 297.062 306.679 297.257 306.744 297.431C306.809 297.604 307.006 297.689 307.179 297.624C307.352 297.559 307.438 297.363 307.373 297.19C307.307 297.015 307.111 296.93 306.937 296.996ZM314.599 294.016C314.426 294.095 314.348 294.295 314.418 294.473C314.483 294.645 314.68 294.731 314.853 294.666C315.021 294.609 315.112 294.424 315.054 294.255C315.05 294.247 315.049 294.241 315.044 294.231C314.983 294.053 314.787 293.957 314.606 294.015C314.604 294.015 314.602 294.015 314.599 294.016ZM308.124 279.739C308.132 279.921 308.274 280.068 308.456 280.085C308.638 280.095 308.795 279.953 308.805 279.769C308.806 279.763 308.805 279.757 308.805 279.75C308.817 279.571 308.683 279.418 308.504 279.405C308.491 279.405 308.482 279.403 308.472 279.405C308.283 279.405 308.127 279.553 308.124 279.739ZM319.374 308.827C319.237 308.954 319.231 309.165 319.358 309.299C319.487 309.436 319.697 309.442 319.835 309.314C319.972 309.204 319.992 309.006 319.882 308.873C319.875 308.862 319.863 308.85 319.851 308.841C319.73 308.705 319.518 308.697 319.384 308.818C319.379 308.821 319.378 308.825 319.374 308.827ZM297.905 259.847C297.857 260.045 297.979 260.246 298.179 260.294C298.181 260.294 298.185 260.297 298.189 260.298C298.391 260.354 298.599 260.235 298.656 260.036C298.657 260.026 298.66 260.016 298.663 260.006C298.712 259.808 298.59 259.606 298.39 259.558C298.388 259.558 298.384 259.556 298.379 259.555C298.166 259.509 297.958 259.639 297.905 259.847ZM304.325 298.486C304.15 298.581 304.087 298.801 304.181 298.974C304.187 298.987 304.197 298.999 304.206 299.012C304.32 299.19 304.556 299.243 304.734 299.132C304.908 299.012 304.968 298.783 304.873 298.593C304.754 298.412 304.51 298.364 304.325 298.486C304.329 298.483 304.329 298.483 304.325 298.486ZM312.309 293.557C312.126 293.677 312.076 293.919 312.2 294.102L312.201 294.103C312.315 294.281 312.55 294.334 312.728 294.223C312.902 294.103 312.963 293.874 312.867 293.685C312.743 293.505 312.502 293.45 312.309 293.557ZM302.051 278.987C302.035 279.04 302.029 279.096 302.033 279.151C302.063 279.358 302.259 279.5 302.467 279.469C302.471 279.467 302.473 279.467 302.481 279.467C302.686 279.431 302.826 279.247 302.807 279.044L302.796 279.023C302.766 278.817 302.57 278.674 302.362 278.706C302.358 278.707 302.352 278.707 302.349 278.707C302.198 278.728 302.08 278.84 302.051 278.987ZM320.672 309.484C320.546 309.655 320.586 309.896 320.758 310.02C320.763 310.021 320.765 310.027 320.769 310.026C320.938 310.145 321.174 310.107 321.295 309.938C321.425 309.781 321.406 309.55 321.249 309.418C321.241 309.41 321.237 309.408 321.228 309.401C321.052 309.274 320.806 309.309 320.672 309.484ZM260.542 277.787C260.182 277.867 259.949 278.212 260.01 278.577C260.075 278.936 260.417 279.177 260.778 279.115C261.138 279.038 261.375 278.689 261.31 278.326C261.246 277.965 260.905 277.723 260.542 277.787ZM276.387 274.918C276.025 274.982 275.784 275.324 275.846 275.685C275.908 276.044 276.254 276.285 276.614 276.223C276.976 276.159 277.216 275.817 277.155 275.457C277.092 275.098 276.748 274.858 276.387 274.918ZM292.221 272.031C291.86 272.108 291.623 272.457 291.689 272.819C291.766 273.175 292.118 273.402 292.475 273.325C292.83 273.25 293.06 272.897 292.984 272.542C292.913 272.197 292.573 271.968 292.221 272.031ZM305.976 321.614C305.774 321.916 305.844 322.324 306.14 322.538C306.443 322.748 306.856 322.675 307.068 322.373C307.28 322.073 307.206 321.66 306.903 321.45C306.601 321.246 306.19 321.317 305.976 321.614ZM315.145 308.427C314.94 308.728 315.01 309.139 315.309 309.35C315.622 309.554 316.037 309.477 316.257 309.174C316.458 308.86 316.365 308.447 316.055 308.248C315.752 308.06 315.353 308.137 315.145 308.427ZM292.279 296.156C291.967 296.359 291.877 296.773 292.078 297.083C292.078 297.083 292.078 297.083 292.079 297.085C292.275 297.384 292.679 297.467 292.978 297.27C293.289 297.08 293.384 296.674 293.193 296.365C293.002 296.054 292.596 295.961 292.285 296.152C292.284 296.153 292.28 296.154 292.279 296.156ZM305.807 287.464C305.499 287.652 305.401 288.053 305.59 288.359C305.592 288.363 305.595 288.367 305.597 288.37C305.79 288.686 306.202 288.789 306.521 288.597C306.838 288.405 306.942 287.995 306.75 287.676C306.558 287.36 306.145 287.257 305.826 287.449C305.819 287.455 305.811 287.46 305.807 287.464ZM284.465 289.284C284.148 289.476 284.045 289.886 284.235 290.202C284.423 290.507 284.821 290.61 285.136 290.44C285.451 290.243 285.56 289.838 285.385 289.511C285.189 289.203 284.785 289.103 284.465 289.284ZM298.298 281.186C297.981 281.378 297.879 281.788 298.068 282.105C298.251 282.418 298.656 282.526 298.969 282.342C299.284 282.16 299.393 281.757 299.21 281.443C299.025 281.131 298.622 281.016 298.298 281.186ZM283.987 260.85C283.629 260.904 283.385 261.236 283.433 261.591C283.434 261.592 283.432 261.594 283.434 261.594C283.479 261.958 283.808 262.215 284.172 262.174C284.537 262.117 284.79 261.78 284.745 261.416C284.683 261.058 284.35 260.809 283.987 260.85ZM299.889 258.65C299.526 258.693 299.269 259.025 299.312 259.386C299.354 259.746 299.685 260.002 300.048 259.96C300.052 259.959 300.058 259.959 300.065 259.956C300.427 259.896 300.68 259.563 300.639 259.198C300.587 258.841 300.252 258.597 299.895 258.647C299.892 258.652 299.892 258.652 299.889 258.65ZM298.26 316.297C298.044 316.597 298.107 317.014 298.402 317.233C298.693 317.448 299.105 317.391 299.32 317.1C299.548 316.825 299.508 316.418 299.231 316.192C299.223 316.185 299.217 316.179 299.207 316.174C298.919 315.945 298.5 315.992 298.272 316.28C298.267 316.285 298.264 316.291 298.26 316.297ZM307.939 303.547C307.723 303.846 307.786 304.264 308.081 304.482C308.372 304.697 308.784 304.64 308.999 304.349C309.227 304.074 309.187 303.667 308.91 303.442C308.903 303.435 308.897 303.429 308.886 303.424C308.598 303.194 308.177 303.243 307.951 303.53C307.948 303.535 307.944 303.541 307.939 303.547ZM296.89 288.604C296.688 288.793 296.675 289.108 296.864 289.312C297.048 289.508 297.354 289.524 297.558 289.349C297.759 289.18 297.787 288.877 297.62 288.676C297.61 288.662 297.597 288.649 297.585 288.638C297.4 288.443 297.091 288.428 296.89 288.604ZM305.804 280.482C305.6 280.671 305.59 280.992 305.779 281.193C305.967 281.395 306.289 281.406 306.491 281.218C306.694 281.035 306.711 280.721 306.529 280.52C306.525 280.515 306.521 280.513 306.516 280.507C306.325 280.31 306.011 280.299 305.804 280.482ZM289.596 264.089C289.341 264.187 289.21 264.474 289.304 264.729C289.412 264.978 289.688 265.103 289.947 265.02C290.205 264.926 290.338 264.641 290.243 264.384C290.242 264.382 290.242 264.382 290.242 264.38C290.157 264.13 289.885 263.993 289.633 264.075C289.618 264.081 289.608 264.084 289.596 264.089ZM300.976 259.96C300.716 260.06 300.579 260.346 300.663 260.612C300.757 260.869 301.042 261 301.301 260.906C301.303 260.905 301.303 260.905 301.305 260.905C301.559 260.822 301.697 260.554 301.615 260.3C301.613 260.294 301.61 260.29 301.607 260.284C301.524 260.022 301.246 259.876 300.982 259.958C300.981 259.959 300.978 259.96 300.976 259.96Z" fill="white"/>
<path d="M345.054 243.763C345.013 243.658 344.968 243.553 344.922 243.451L345.477 242.943C345.285 242.556 345.062 242.192 344.811 241.855L344.123 242.14C343.932 241.897 343.725 241.672 343.504 241.462L343.829 240.783C343.479 240.472 343.1 240.198 342.699 239.964L342.177 240.495C341.908 240.348 341.63 240.221 341.343 240.114L341.377 239.362C340.974 239.226 340.559 239.125 340.136 239.063L339.851 239.751C339.548 239.715 339.242 239.701 338.934 239.709L338.684 239C338.225 239.027 337.763 239.1 337.306 239.22L337.311 239.965C337.128 240.019 336.945 240.081 336.764 240.152C336.658 240.193 336.554 240.238 336.452 240.284L335.944 239.729C335.556 239.92 335.193 240.144 334.855 240.394L335.14 241.083C334.898 241.274 334.672 241.481 334.463 241.701L333.783 241.377C333.473 241.727 333.199 242.106 332.964 242.507L333.495 243.03C333.348 243.298 333.221 243.576 333.114 243.863L332.363 243.829C332.227 244.232 332.126 244.647 332.063 245.07L332.751 245.356C332.716 245.658 332.701 245.964 332.71 246.272L332 246.523C332.027 246.982 332.1 247.443 332.22 247.901L332.965 247.895C333.019 248.078 333.08 248.261 333.152 248.442C333.193 248.548 333.238 248.652 333.284 248.754L332.729 249.262C332.92 249.65 333.144 250.014 333.394 250.351L334.083 250.066C334.274 250.308 334.48 250.534 334.701 250.743L334.376 251.422C334.727 251.733 335.105 252.007 335.506 252.241L336.029 251.71C336.297 251.857 336.576 251.985 336.862 252.092L336.829 252.843C337.231 252.979 337.647 253.08 338.07 253.142L338.355 252.454C338.657 252.49 338.964 252.504 339.272 252.496L339.522 253.205C339.981 253.178 340.442 253.106 340.9 252.986L340.894 252.24C341.078 252.186 341.26 252.125 341.442 252.054C341.547 252.012 341.652 251.968 341.754 251.921L342.262 252.477C342.65 252.285 343.013 252.062 343.35 251.811L343.066 251.123C343.308 250.932 343.533 250.725 343.743 250.504L344.422 250.829C344.733 250.478 345.007 250.1 345.241 249.699L344.71 249.176C344.857 248.908 344.985 248.629 345.091 248.343L345.843 248.376C345.979 247.973 346.08 247.558 346.142 247.135L345.454 246.85C345.49 246.547 345.504 246.241 345.496 245.933L346.205 245.683C346.178 245.224 346.106 244.763 345.986 244.305L345.24 244.31C345.187 244.127 345.126 243.945 345.054 243.763Z" fill="url(#paint6_linear_2266_9980)"/>
<path d="M341.395 244.833C341.118 244.333 341.166 243.74 341.47 243.3C340.672 242.626 339.617 242.323 338.583 242.47C338.607 243.005 338.333 243.533 337.833 243.81C337.333 244.087 336.74 244.038 336.3 243.735C335.626 244.533 335.323 245.587 335.47 246.621C336.005 246.598 336.533 246.871 336.81 247.372C337.087 247.872 337.039 248.464 336.735 248.905C337.533 249.579 338.588 249.882 339.622 249.734C339.599 249.199 339.872 248.672 340.372 248.395C340.872 248.118 341.464 248.166 341.905 248.47C342.579 247.672 342.882 246.617 342.735 245.583C342.2 245.607 341.672 245.333 341.395 244.833ZM339.817 247.392C339.105 247.786 338.208 247.528 337.814 246.816C337.419 246.104 337.677 245.207 338.389 244.813C339.101 244.419 339.998 244.676 340.392 245.388C340.787 246.1 340.529 246.998 339.817 247.392Z" fill="url(#paint7_linear_2266_9980)"/>
<path d="M347.112 280.434C347.039 280.246 346.96 280.062 346.878 279.881L347.861 278.981C347.522 278.295 347.126 277.651 346.682 277.054L345.464 277.559C345.126 277.13 344.759 276.73 344.369 276.36L344.944 275.157C344.324 274.606 343.653 274.121 342.943 273.707L342.018 274.647C341.543 274.387 341.049 274.161 340.542 273.972L340.602 272.641C339.889 272.4 339.154 272.222 338.405 272.112L337.9 273.33C337.364 273.267 336.822 273.241 336.277 273.256L335.833 272C335.021 272.048 334.204 272.176 333.393 272.389L333.404 273.709C333.079 273.804 332.756 273.913 332.435 274.039C332.248 274.113 332.063 274.192 331.882 274.274L330.983 273.29C330.296 273.63 329.652 274.025 329.055 274.469L329.559 275.687C329.13 276.026 328.731 276.392 328.36 276.783L327.157 276.208C326.607 276.828 326.122 277.499 325.707 278.209L326.648 279.134C326.387 279.61 326.162 280.103 325.972 280.61L324.642 280.55C324.401 281.263 324.222 281.998 324.112 282.747L325.331 283.252C325.267 283.788 325.242 284.33 325.256 284.875L324 285.319C324.048 286.132 324.176 286.948 324.389 287.759L325.708 287.748C325.804 288.073 325.913 288.396 326.039 288.717C326.112 288.904 326.191 289.089 326.273 289.27L325.29 290.169C325.629 290.856 326.025 291.5 326.469 292.096L327.687 291.592C328.025 292.021 328.392 292.421 328.782 292.791L328.207 293.994C328.827 294.544 329.498 295.029 330.208 295.444L331.133 294.503C331.608 294.764 332.102 294.989 332.609 295.179L332.549 296.51C333.262 296.75 333.997 296.929 334.746 297.039L335.251 295.82C335.787 295.884 336.329 295.909 336.874 295.895L337.318 297.151C338.13 297.103 338.947 296.974 339.758 296.761L339.747 295.442C340.072 295.346 340.395 295.237 340.716 295.111C340.903 295.038 341.088 294.959 341.269 294.877L342.169 295.86C342.855 295.521 343.499 295.125 344.096 294.682L343.591 293.463C344.02 293.125 344.42 292.758 344.791 292.368L345.993 292.942C346.544 292.322 347.028 291.652 347.444 290.942L346.503 290.016C346.763 289.541 346.989 289.048 347.178 288.541L348.509 288.6C348.75 287.887 348.928 287.152 349.039 286.404L347.82 285.898C347.884 285.363 347.909 284.821 347.895 284.275L349.151 283.832C349.103 283.019 348.974 282.203 348.761 281.392L347.442 281.402C347.348 281.078 347.239 280.755 347.112 280.434Z" fill="url(#paint8_linear_2266_9980)"/>
<path d="M340.633 282.327C340.143 281.441 340.229 280.393 340.766 279.612C339.354 278.419 337.486 277.883 335.655 278.144C335.696 279.091 335.212 280.026 334.327 280.516C333.442 281.006 332.392 280.92 331.612 280.383C330.419 281.795 329.883 283.663 330.144 285.494C331.091 285.452 332.026 285.936 332.516 286.822C333.006 287.707 332.92 288.756 332.383 289.537C333.796 290.729 335.663 291.266 337.494 291.005C337.453 290.058 337.937 289.123 338.822 288.633C339.708 288.143 340.756 288.229 341.537 288.766C342.73 287.354 343.266 285.486 343.005 283.655C342.058 283.697 341.124 283.213 340.633 282.327ZM337.839 286.857C336.578 287.555 334.99 287.099 334.292 285.838C333.595 284.577 334.05 282.989 335.312 282.292C336.572 281.594 338.161 282.05 338.858 283.311C339.556 284.571 339.1 286.16 337.839 286.857Z" fill="url(#paint9_linear_2266_9980)"/>
<path d="M400.086 264.817C399.939 264.443 399.782 264.075 399.619 263.714L401.579 261.921C400.902 260.552 400.114 259.268 399.229 258.078L396.799 259.084C396.125 258.229 395.394 257.431 394.615 256.693L395.762 254.294C394.526 253.197 393.188 252.23 391.773 251.403L389.927 253.279C388.98 252.76 387.996 252.309 386.985 251.932L387.104 249.278C385.683 248.798 384.216 248.443 382.724 248.223L381.716 250.653C380.649 250.526 379.567 250.475 378.48 250.504L377.596 248C375.975 248.095 374.347 248.351 372.731 248.776L372.751 251.407C372.104 251.597 371.459 251.815 370.819 252.066C370.446 252.213 370.077 252.37 369.717 252.534L367.923 250.573C366.554 251.25 365.271 252.038 364.079 252.923L365.085 255.353C364.23 256.027 363.433 256.758 362.694 257.537L360.296 256.391C359.199 257.628 358.232 258.965 357.404 260.38L359.28 262.226C358.76 263.173 358.31 264.157 357.933 265.168L355.28 265.049C354.8 266.471 354.443 267.937 354.224 269.43L356.653 270.437C356.526 271.505 356.476 272.586 356.505 273.673L354 274.558C354.095 276.179 354.351 277.806 354.776 279.423L357.407 279.403C357.597 280.05 357.814 280.694 358.066 281.334C358.212 281.707 358.369 282.076 358.533 282.436L356.572 284.23C357.249 285.598 358.038 286.882 358.922 288.073L361.352 287.066C362.026 287.922 362.757 288.719 363.536 289.457L362.39 291.856C363.626 292.953 364.963 293.919 366.378 294.747L368.224 292.872C369.171 293.391 370.155 293.841 371.166 294.219L371.048 296.872C372.469 297.352 373.935 297.708 375.428 297.928L376.436 295.498C377.503 295.625 378.585 295.675 379.672 295.646L380.556 298.15C382.176 298.055 383.805 297.799 385.421 297.375L385.4 294.743C386.047 294.553 386.692 294.336 387.332 294.084C387.706 293.937 388.074 293.78 388.435 293.617L390.228 295.578C391.597 294.901 392.88 294.112 394.071 293.228L393.065 290.798C393.921 290.123 394.718 289.393 395.457 288.613L397.855 289.759C398.952 288.523 399.919 287.186 400.747 285.77L398.871 283.924C399.39 282.978 399.84 281.994 400.218 280.983L402.871 281.101C403.351 279.68 403.707 278.214 403.927 276.721L401.497 275.713C401.625 274.645 401.675 273.564 401.646 272.477L404.151 271.593C404.055 269.972 403.799 268.344 403.375 266.727L400.744 266.748C400.556 266.101 400.338 265.457 400.086 264.817Z" fill="url(#paint10_linear_2266_9980)"/>
<path d="M387.167 268.592C386.189 266.826 386.36 264.735 387.432 263.179C384.615 260.8 380.891 259.73 377.24 260.251C377.323 262.14 376.358 264.003 374.592 264.98C372.826 265.958 370.735 265.787 369.179 264.715C366.8 267.532 365.73 271.256 366.251 274.906C368.139 274.824 370.003 275.789 370.981 277.555C371.959 279.321 371.787 281.412 370.716 282.968C373.532 285.347 377.256 286.417 380.908 285.896C380.825 284.007 381.79 282.144 383.555 281.167C385.321 280.189 387.412 280.36 388.969 281.432C391.347 278.616 392.417 274.891 391.896 271.241C390.008 271.324 388.145 270.359 387.167 268.592ZM381.595 277.626C379.081 279.017 375.914 278.108 374.523 275.594C373.132 273.078 374.04 269.912 376.555 268.522C379.069 267.13 382.237 268.039 383.628 270.553C385.019 273.067 384.11 276.235 381.595 277.626Z" fill="url(#paint11_linear_2266_9980)"/>
<path d="M456.424 295.811L460.999 306.118L434.164 308.023C434.164 308.023 435.407 305.233 439.789 303.07C444.171 300.906 448.293 296.521 448.293 296.521L456.397 295.792" fill="url(#paint12_linear_2266_9980)"/>
<path d="M493.501 293.143L498.081 303.449L471.241 305.355C471.241 305.355 472.484 302.566 476.866 300.402C481.341 298.11 485.371 293.859 485.371 293.859L493.474 293.124" fill="url(#paint13_linear_2266_9980)"/>
<path d="M432.103 193.795C428.938 192.055 426.045 189.861 423.515 187.283C419.832 183.252 417.092 180.198 416.668 180.379C416.243 180.56 415.714 181.433 417.072 182.905C418.325 184.394 419.38 185.354 418.642 186.373C418.014 187.375 415.658 190.116 419.521 191.868C423.364 193.504 424.452 192.428 425.883 195.029C426.809 196.65 427.64 198.323 428.374 200.039L432.105 193.807" fill="url(#paint14_linear_2266_9980)"/>
<path d="M465.595 234.177C463.722 241.462 461.676 249.789 463.179 257.095C464.216 261.544 463.861 266.204 462.163 270.445C461.361 272.484 461.517 276.966 463.672 283.385C464.923 287.316 464.888 291.544 463.573 295.454L448.425 296.523C448.425 296.523 447.173 272.503 446.636 259.968C446.239 247.638 446.543 244.461 447.397 240.808C448.154 237.105 450.114 216.261 450.114 216.261L452.443 215.889C457.632 217.026 463.03 216.78 468.095 215.175C468.508 219.288 467.19 227.952 465.595 234.177Z" fill="url(#paint15_linear_2266_9980)"/>
<path d="M497.636 292.936L485.521 293.746C485.521 293.746 469.391 260.507 464.974 252.641C460.558 244.775 457.778 235.089 455.005 227.646C453.578 223.704 452.372 219.686 451.39 215.61C458.686 217.595 465.538 216.051 469.879 214.341C472.028 219.046 473.402 224.068 473.948 229.212C474.427 237.135 477.257 243.554 479.706 246.881C482.66 250.97 484.745 255.62 485.832 260.545C487.131 266.534 489.304 267.315 492.545 271.531C495.44 275.706 499.719 286.967 497.636 292.936Z" fill="url(#paint16_linear_2266_9980)"/>
<path d="M474.976 211.837C474.976 211.837 461.955 220.564 447.773 214.273C447.773 214.273 451.027 185.359 450.878 181.443C450.878 181.443 454.784 181.94 456.015 178.364C456.102 178.35 472.911 196.842 474.976 211.837Z" fill="url(#paint17_linear_2266_9980)"/>
<path d="M458.964 182.172C461.527 185.139 463.844 188.31 465.89 191.655C467.079 205.434 461.113 211.798 455.034 216.042C448.826 220.187 441.308 218.238 438.779 216.499C437.649 215.779 435.138 214.151 430.341 214.47C425.568 214.894 421.791 210.991 421.791 210.991L431.701 194.086C442.209 200.064 445.783 199.045 450.007 196.566C454.912 193.638 455.823 178.735 455.823 178.735C457.01 179.81 457.874 180.997 458.964 182.172Z" fill="#23286B"/>
<path d="M456.102 178.35C454.882 181.924 450.959 181.429 450.959 181.429C450.886 178.85 450.708 175.607 450.585 174.838C451.889 175.044 453.225 174.908 454.462 174.445C454.655 175.868 455.22 177.215 456.102 178.35Z" fill="url(#paint18_linear_2266_9980)"/>
<path d="M455.017 170.864C454.71 172.489 454.179 173.386 454.421 174.899C452.809 175.384 449.59 175.672 448.336 174.183C447.083 172.694 447.187 171.215 446.948 171.14C446.604 171.082 445.859 170.64 445.911 170.291C445.962 169.942 447.272 168.951 447.596 167.43C447.578 167.32 447.671 167.192 447.765 167.069L447.748 166.964C448.095 166.103 448.622 165.327 449.295 164.687C449.662 164.855 453.844 167.004 454.911 169.532C455.001 169.701 455.032 169.895 455 170.084C455.127 170.172 455.057 170.517 455.017 170.864Z" fill="#FFBEB6"/>
<path d="M479.523 195.223C478.345 193.495 476.504 192.548 474.943 191.221C471.849 188.791 473.737 185.104 473.231 181.943C473.195 180.907 472.755 179.925 472.006 179.208C470.135 177.37 464.948 176.624 463.938 174.529C463.145 173.307 463.255 172.388 463.079 171.287C463.07 170.877 463.005 170.47 462.885 170.077C462.844 169.706 462.748 169.343 462.599 169C462.026 166.835 460.574 163.354 456.235 162.807C454.986 162.632 453.714 162.732 452.508 163.101C451.301 163.469 450.19 164.096 449.251 164.939C449.251 164.939 453.782 167.139 454.874 169.782C454.997 170.213 455.068 170.656 455.085 171.104C454.57 174.225 452.714 175.31 459.032 182.412C465.368 189.625 471 200.198 471.434 201.496L479.904 200.929C479.904 200.929 480.064 196.288 476.311 193.396C472.458 190.431 472.383 189.965 472.694 186.984C472.787 186.181 473.031 185.581 473.129 184.777C472.881 186.954 472.571 189.046 474.096 190.819C475.186 191.994 476.642 192.663 477.839 193.803C479.816 195.642 481.119 198.09 481.543 200.756C481.578 200.977 481.793 200.943 481.758 200.722C481.422 198.748 480.659 196.871 479.523 195.223Z" fill="#E94A47"/>
<path opacity="0.86" d="M464.628 216.871C464.599 216.876 464.573 216.892 464.556 216.916C464.538 216.94 464.531 216.97 464.536 216.999C464.646 216.982 464.646 216.982 464.628 216.871ZM463.097 216.441C463.068 216.446 463.042 216.462 463.024 216.486C463.007 216.51 463 216.54 463.004 216.57C463.115 216.552 463.115 216.552 463.097 216.441C463.225 216.534 463.209 216.43 463.098 216.447L463.097 216.441ZM460.093 222.331L459.989 222.348C459.989 222.348 460.11 222.436 460.093 222.331ZM459.392 220.748C459.428 220.969 459.503 220.73 459.392 220.748V220.748ZM458.599 219.298L458.489 219.316C458.506 219.427 458.617 219.409 458.599 219.298ZM458.022 217.815C458.004 217.704 457.893 217.722 458.022 217.815L457.911 217.832C457.69 217.868 457.929 217.943 458.022 217.815ZM461.146 218.354C461.129 218.243 461.024 218.26 461.146 218.354V218.354ZM459.841 217.207C459.637 217.353 459.858 217.318 459.841 217.207V217.207ZM456.505 222.475C456.412 222.604 456.522 222.586 456.505 222.475C456.738 222.551 456.72 222.441 456.505 222.475ZM456.551 220.677C456.458 220.805 456.569 220.787 456.551 220.677V220.677ZM466.704 220.067L466.593 220.085L466.629 220.306L466.85 220.271C466.739 220.288 466.722 220.178 466.704 220.067ZM464.137 218.09L463.916 218.125L463.95 218.341L464.171 218.305L464.134 218.073L464.137 218.09ZM460.161 230.553C460.05 230.57 460.05 230.57 460.068 230.681C460.086 230.791 460.086 230.791 460.196 230.774C460.307 230.756 460.307 230.756 460.289 230.645C460.272 230.535 460.272 230.535 460.161 230.553ZM459.669 227.479C459.559 227.497 459.559 227.497 459.576 227.607C459.594 227.718 459.594 227.718 459.705 227.7C459.815 227.683 459.815 227.683 459.798 227.572C459.891 227.444 459.78 227.461 459.669 227.479ZM459.287 224.382C459.177 224.4 459.177 224.4 459.194 224.51C459.212 224.621 459.212 224.621 459.323 224.603C459.433 224.586 459.433 224.586 459.415 224.475C459.398 224.364 459.398 224.364 459.287 224.382ZM458.795 221.309C458.685 221.326 458.685 221.326 458.703 221.437C458.72 221.548 458.72 221.548 458.831 221.53C458.941 221.512 458.941 221.512 458.924 221.402C458.906 221.291 458.906 221.291 458.795 221.309ZM458.414 218.218C458.304 218.235 458.304 218.235 458.32 218.34C458.337 218.445 458.338 218.451 458.449 218.433C458.559 218.415 458.554 218.416 458.536 218.306C458.519 218.201 458.484 217.98 458.414 218.218ZM470.178 216.443L470.067 216.461L470.085 216.571C470.195 216.553 470.195 216.553 470.178 216.443ZM467.115 215.584L467.045 215.595L467.063 215.705C467.173 215.688 467.173 215.688 467.156 215.577C467.302 215.781 467.191 215.798 467.156 215.577L467.115 215.584ZM466.125 227.007C466.121 226.986 466.112 226.965 466.096 226.949C466.081 226.933 466.062 226.921 466.04 226.916C466.019 226.911 465.996 226.912 465.975 226.92C465.955 226.928 465.937 226.941 465.924 226.959C465.911 226.977 465.903 226.999 465.902 227.021C465.902 227.043 465.907 227.065 465.919 227.084C465.931 227.103 465.948 227.118 465.968 227.127C465.988 227.136 466.01 227.139 466.032 227.136C466.16 227.229 466.143 227.118 466.125 227.007ZM464.463 224.342C464.446 224.237 464.335 224.255 464.335 224.255L464.242 224.378C464.246 224.407 464.262 224.433 464.286 224.451C464.31 224.468 464.34 224.475 464.37 224.47C464.48 224.453 464.585 224.436 464.463 224.342ZM462.906 221.666C462.901 221.637 462.885 221.61 462.861 221.593C462.837 221.575 462.807 221.568 462.778 221.573L462.685 221.701C462.69 221.731 462.706 221.757 462.73 221.774C462.754 221.792 462.784 221.799 462.813 221.794C462.843 221.789 462.869 221.773 462.886 221.749C462.904 221.725 462.911 221.695 462.906 221.666ZM461.331 218.873C461.326 218.844 461.31 218.818 461.286 218.8C461.262 218.783 461.232 218.776 461.203 218.78L461.11 218.909C461.112 218.923 461.117 218.937 461.125 218.95C461.133 218.962 461.143 218.973 461.155 218.982C461.167 218.99 461.18 218.996 461.194 219C461.209 219.003 461.224 219.004 461.238 219.002C461.349 218.984 461.349 218.984 461.331 218.873ZM454.888 225.767L454.777 225.784L454.794 225.889C454.794 225.889 454.905 225.871 454.888 225.767ZM455.752 222.697L455.647 222.714L455.665 222.824C455.776 222.807 455.776 222.807 455.758 222.696L455.752 222.697ZM456.5 219.646C456.389 219.664 456.389 219.664 456.407 219.775L456.427 219.903L456.538 219.885C456.551 219.868 456.56 219.849 456.565 219.829C456.571 219.809 456.572 219.787 456.568 219.767C456.565 219.746 456.557 219.726 456.546 219.708C456.535 219.691 456.52 219.675 456.502 219.664L456.5 219.646ZM467.081 223.135C467.065 223.03 466.954 223.048 466.971 223.153C466.86 223.17 466.878 223.281 466.989 223.263C467.006 223.374 467.117 223.356 467.081 223.135ZM465.472 220.802L465.362 220.819C465.251 220.837 465.269 220.948 465.379 220.93C465.397 221.04 465.508 221.023 465.472 220.802ZM463.654 218.615C463.636 218.504 463.531 218.521 463.549 218.632C463.438 218.649 463.456 218.76 463.567 218.742C463.584 218.853 463.689 218.836 463.654 218.615C463.782 218.708 463.764 218.597 463.654 218.615ZM457.107 228.104C456.996 228.122 456.996 228.122 457.013 228.227L457.031 228.337C457.141 228.319 457.141 228.319 457.107 228.104ZM457.581 225.431C457.47 225.449 457.47 225.449 457.488 225.56L457.51 225.699C457.621 225.682 457.621 225.682 457.585 225.46L457.581 225.431ZM458.021 222.549C457.91 222.567 457.91 222.567 457.928 222.677L457.945 222.782C458.055 222.764 458.055 222.764 458.021 222.549C458.149 222.642 458.131 222.531 458.021 222.549ZM458.478 219.772C458.367 219.789 458.367 219.789 458.385 219.9C458.403 220.01 458.402 220.005 458.512 219.987C458.623 219.969 458.623 219.969 458.606 219.864C458.589 219.76 458.588 219.754 458.478 219.772ZM458.917 216.883C458.807 216.901 458.807 216.901 458.824 217.012C458.842 217.122 458.842 217.122 458.953 217.105C459.063 217.087 459.063 217.087 459.046 216.976C459.063 217.087 459.028 216.866 458.917 216.883ZM469.439 218.579L469.317 218.598L469.334 218.709L469.427 218.581L469.439 218.579ZM467.07 217.167L466.959 217.185L466.977 217.295C467.088 217.278 467.087 217.278 467.07 217.167ZM463.045 226.485C462.934 226.503 462.952 226.614 463.045 226.485C462.969 226.724 463.08 226.707 463.08 226.707C463.191 226.689 463.191 226.689 463.045 226.485ZM462.385 223.779C462.309 224.012 462.419 223.994 462.419 223.994C462.432 223.978 462.441 223.96 462.446 223.94C462.452 223.92 462.453 223.899 462.45 223.879C462.446 223.859 462.439 223.84 462.428 223.822C462.416 223.805 462.402 223.79 462.385 223.779ZM461.706 220.956C461.631 221.195 461.742 221.178 461.742 221.178C461.742 221.178 461.852 221.16 461.706 220.956C461.834 221.049 461.817 220.939 461.706 220.956ZM461.156 218.227C461.051 218.243 461.069 218.354 461.156 218.227C461.063 218.355 461.063 218.355 461.081 218.466L461.191 218.448L461.156 218.227ZM453.947 222.425L453.813 222.446L453.83 222.551C453.941 222.533 453.941 222.533 453.924 222.428C454.051 222.516 453.941 222.533 453.924 222.428L453.947 222.425ZM465.689 216.26C465.485 216.406 465.707 216.37 465.689 216.26V216.26ZM461.665 221.411C461.578 221.538 461.683 221.521 461.665 221.411C461.683 221.521 461.776 221.393 461.665 221.411ZM461.623 219.728C461.512 219.746 461.53 219.856 461.623 219.728C461.53 219.856 461.641 219.839 461.623 219.728ZM461.47 218.063C461.377 218.191 461.488 218.174 461.47 218.063C461.567 218.149 461.55 218.038 461.468 218.051L461.47 218.063ZM469.095 215.052C469.066 215.057 469.04 215.073 469.022 215.097C469.005 215.121 468.998 215.151 469.003 215.18C469.113 215.162 469.113 215.162 469.095 215.052ZM464.897 219.783C464.88 219.673 464.769 219.69 464.897 219.783C464.769 219.69 464.787 219.801 464.897 219.783C464.787 219.801 464.804 219.906 464.897 219.783ZM464.214 218.31L464.103 218.328C464.121 218.439 464.232 218.421 464.214 218.31ZM463.368 216.756L463.264 216.773C463.281 216.884 463.386 216.867 463.368 216.756C463.386 216.867 463.479 216.739 463.368 216.756ZM458.534 220.121C458.504 220.125 458.478 220.142 458.461 220.166C458.443 220.19 458.436 220.22 458.441 220.249C458.455 220.247 458.469 220.242 458.482 220.234C458.494 220.226 458.505 220.216 458.514 220.204C458.523 220.192 458.529 220.179 458.532 220.164C458.535 220.15 458.536 220.135 458.534 220.121ZM459.167 218.443C459.152 218.446 459.138 218.451 459.126 218.459C459.113 218.466 459.102 218.476 459.094 218.488C459.085 218.5 459.079 218.514 459.076 218.528C459.072 218.542 459.072 218.557 459.074 218.572L459.167 218.443ZM459.614 217.023C459.585 217.027 459.559 217.043 459.541 217.068C459.524 217.092 459.517 217.122 459.521 217.151C459.632 217.133 459.632 217.133 459.614 217.023ZM469.45 220.064C469.433 219.959 469.322 219.977 469.45 220.064V220.064ZM468.307 218.557L468.197 218.575C468.214 218.685 468.214 218.685 468.307 218.557ZM467.165 217.05L467.054 217.068C467.072 217.179 467.072 217.179 467.165 217.05ZM461.651 221.992L461.773 222.086L461.651 221.992ZM461.919 220.158C461.826 220.287 461.936 220.269 461.919 220.158V220.158ZM462.435 216.368C462.365 216.606 462.47 216.59 462.435 216.368V216.368ZM469.741 215.54C469.726 215.541 469.712 215.546 469.7 215.553C469.687 215.56 469.676 215.569 469.667 215.581C469.659 215.592 469.652 215.605 469.649 215.619C469.645 215.633 469.645 215.648 469.647 215.662L469.741 215.54ZM465.519 220.83C465.39 220.737 465.408 220.848 465.408 220.848C465.333 221.087 465.333 221.087 465.519 220.83ZM464.871 218.91C464.777 219.032 464.888 219.015 464.871 218.91C464.888 219.015 465.034 219.218 464.871 218.91ZM464.462 217.059C464.369 217.187 464.479 217.17 464.462 217.059C464.514 217.385 464.608 217.262 464.462 217.059ZM458.262 219.842C458.233 219.847 458.207 219.863 458.189 219.887C458.172 219.911 458.165 219.941 458.169 219.97L458.262 219.842ZM459.244 218.216C459.215 218.221 459.188 218.237 459.171 218.261C459.153 218.285 459.146 218.315 459.151 218.344L459.244 218.216C459.372 218.309 459.354 218.198 459.244 218.216ZM468.884 228.506C468.773 228.524 468.774 228.524 468.791 228.634C468.809 228.745 468.809 228.745 468.919 228.727C469.03 228.71 469.03 228.71 469.012 228.599C468.995 228.488 468.96 228.458 468.849 228.476L468.884 228.506ZM468.136 225.247C468.031 225.264 468.031 225.264 468.049 225.374C468.066 225.485 468.066 225.485 468.171 225.468C468.276 225.451 468.282 225.45 468.264 225.34C468.259 225.31 468.243 225.284 468.219 225.267C468.195 225.249 468.165 225.242 468.136 225.247ZM467.3 222.115C467.224 222.348 467.335 222.33 467.335 222.33C467.445 222.313 467.445 222.313 467.428 222.202C467.643 222.168 467.411 222.097 467.3 222.115ZM466.679 218.943C466.569 218.961 466.569 218.961 466.586 219.071C466.604 219.182 466.604 219.182 466.715 219.164C466.825 219.146 466.825 219.146 466.808 219.036L466.679 218.943ZM465.949 215.794C465.838 215.812 465.838 215.812 465.856 215.922C465.874 216.033 465.873 216.033 465.984 216.015C466.112 216.108 466.095 215.998 465.949 215.794C466.059 215.776 466.042 215.666 465.949 215.794ZM455.462 226.26L455.241 226.295L455.277 226.516L455.498 226.481C455.538 226.212 455.538 226.212 455.428 226.229L455.462 226.26ZM457.16 223.511L456.939 223.546L456.974 223.767C456.991 223.872 457.085 223.75 457.195 223.732C457.288 223.604 457.27 223.493 457.16 223.511ZM458.845 220.65L458.624 220.685L458.659 220.901L458.88 220.865C458.968 220.744 458.968 220.744 458.845 220.65ZM460.557 217.988L460.335 218.024L460.371 218.245L460.592 218.209C460.685 218.081 460.667 217.971 460.557 217.988ZM470.77 219.172C470.752 219.061 470.641 219.079 470.548 219.207C470.438 219.225 470.456 219.336 470.584 219.429C470.601 219.539 470.712 219.521 470.805 219.393C470.898 219.265 470.88 219.154 470.77 219.172ZM468.962 216.309C468.945 216.198 468.834 216.216 468.741 216.344C468.631 216.362 468.648 216.473 468.777 216.566C468.793 216.67 468.904 216.653 468.998 216.53L468.962 216.309ZM462.476 227.149C462.366 227.167 462.366 227.167 462.383 227.278C462.4 227.383 462.4 227.383 462.511 227.365C462.621 227.347 462.615 227.348 462.599 227.243L462.476 227.149ZM462.967 223.913C462.857 223.93 462.857 223.93 462.874 224.041C462.892 224.152 462.892 224.152 463.003 224.134C463.113 224.116 463.113 224.116 463.096 224.006L462.967 223.913ZM463.483 220.792C463.372 220.809 463.372 220.809 463.39 220.92C463.407 221.03 463.407 221.025 463.517 221.007C463.628 220.989 463.628 220.989 463.611 220.884C463.593 220.774 463.593 220.774 463.483 220.792ZM464.09 217.536C463.98 217.554 463.98 217.554 463.997 217.665C464.015 217.775 464.015 217.775 464.126 217.757C464.236 217.74 464.236 217.74 464.218 217.629L464.09 217.536ZM464.408 228.178C464.297 228.195 464.297 228.195 464.315 228.306C464.333 228.417 464.333 228.417 464.443 228.399C464.554 228.381 464.554 228.381 464.536 228.271C464.647 228.253 464.408 228.178 464.408 228.178ZM464.777 224.853C464.667 224.871 464.667 224.871 464.684 224.981C464.702 225.092 464.702 225.092 464.813 225.074C464.923 225.056 464.923 225.056 464.906 224.946C464.901 224.917 464.885 224.89 464.861 224.873C464.837 224.855 464.807 224.848 464.777 224.853ZM465.164 221.633C465.053 221.651 465.053 221.651 465.071 221.761C465.088 221.872 465.088 221.872 465.199 221.854C465.31 221.837 465.31 221.837 465.292 221.726C465.287 221.697 465.271 221.67 465.247 221.653C465.223 221.636 465.193 221.628 465.164 221.633ZM465.551 218.419C465.44 218.437 465.44 218.437 465.458 218.547C465.476 218.658 465.476 218.658 465.586 218.64C465.697 218.622 465.697 218.622 465.679 218.512L465.551 218.419ZM457.842 217.402C457.824 217.291 457.714 217.309 457.731 217.419C457.621 217.437 457.638 217.542 457.748 217.524C457.766 217.635 457.876 217.617 457.842 217.402ZM469.237 219.632C469.215 219.636 469.195 219.645 469.179 219.661C469.163 219.676 469.151 219.695 469.146 219.717C469.141 219.738 469.142 219.761 469.15 219.782C469.158 219.802 469.171 219.82 469.189 219.833C469.207 219.846 469.229 219.854 469.251 219.855C469.273 219.855 469.295 219.85 469.314 219.838C469.333 219.826 469.347 219.809 469.357 219.789C469.366 219.769 469.369 219.747 469.366 219.725C469.458 219.597 469.348 219.614 469.237 219.632ZM468.378 216.39C468.349 216.395 468.323 216.411 468.305 216.435C468.288 216.459 468.281 216.489 468.285 216.519C468.29 216.548 468.306 216.574 468.33 216.592C468.354 216.609 468.384 216.616 468.414 216.612C468.524 216.594 468.524 216.594 468.507 216.483L468.378 216.39ZM458.745 224.463L458.64 224.48L458.676 224.701L458.891 224.666C458.819 224.619 458.767 224.547 458.745 224.463ZM460.32 221.62L460.209 221.638L460.245 221.859L460.466 221.823C460.355 221.841 460.32 221.62 460.32 221.62ZM461.895 218.777L461.674 218.812L461.713 219.057L461.934 219.022C461.934 219.022 462.132 218.876 461.898 218.8L461.895 218.777ZM463.973 222.624L463.862 222.641L463.879 222.746C463.99 222.728 464.1 222.711 463.973 222.624ZM464.826 220.23L464.715 220.248L464.734 220.365C464.862 220.457 464.862 220.457 464.827 220.236L464.826 220.23ZM465.575 217.86L465.464 217.878L465.482 217.988C465.592 217.971 465.592 217.971 465.575 217.86ZM466.341 215.594L466.23 215.612L466.248 215.722L466.341 215.594C466.574 215.67 466.556 215.56 466.341 215.594ZM468.889 219.58C468.796 219.709 468.814 219.819 468.924 219.802C469.035 219.784 469.017 219.673 468.889 219.58ZM468.816 217.001C468.723 217.129 468.741 217.24 468.852 217.222C468.962 217.204 468.962 217.204 468.816 217.001ZM460.353 219.03L460.248 219.046L460.266 219.157L460.353 219.03ZM461.958 217.083L461.848 217.101L461.865 217.212L461.958 217.083ZM468.09 218.807L467.98 218.824C467.764 218.859 467.782 218.969 468.09 218.807C467.887 218.953 468.108 218.917 468.09 218.807ZM469.022 216.867L468.911 216.884L468.929 216.995L469.022 216.867ZM470.058 214.91L469.924 214.931L469.942 215.042L470.034 214.914L470.058 214.91Z" fill="white"/>
<path d="M448.992 171.941C448.83 172.233 448.56 172.449 448.24 172.543C447.919 172.636 447.575 172.6 447.281 172.441C447.157 172.394 447.049 172.31 446.972 172.201C446.895 172.093 446.853 171.963 446.849 171.83C446.832 171.719 447.012 171.469 447.047 171.685C447.081 171.805 447.143 171.917 447.227 172.01C447.311 172.103 447.415 172.176 447.531 172.223C447.647 172.27 447.773 172.29 447.898 172.281C448.023 172.272 448.145 172.235 448.253 172.172C448.474 172.137 448.567 172.009 448.747 171.753C448.858 171.735 449.097 171.811 449.004 171.939L448.992 171.941Z" fill="#1C2868"/>
<path d="M347.389 192.936C346.536 192.936 345.862 193.221 345.367 193.791C344.875 194.357 344.629 195.133 344.629 196.12C344.629 197.136 344.866 197.921 345.34 198.477C345.818 199.029 346.497 199.305 347.378 199.305C347.92 199.305 348.537 199.207 349.231 199.013V199.804C348.693 200.005 348.03 200.106 347.24 200.106C346.098 200.106 345.215 199.759 344.592 199.066C343.973 198.372 343.663 197.387 343.663 196.11C343.663 195.31 343.812 194.61 344.109 194.008C344.41 193.407 344.842 192.943 345.404 192.618C345.97 192.292 346.635 192.129 347.4 192.129C348.213 192.129 348.925 192.278 349.533 192.575L349.151 193.35C348.564 193.074 347.976 192.936 347.389 192.936ZM354.771 200V196.237C354.771 195.763 354.664 195.409 354.448 195.176C354.232 194.942 353.894 194.825 353.434 194.825C352.822 194.825 352.374 194.992 352.091 195.324C351.812 195.657 351.672 196.202 351.672 196.959V200H350.791V191.742H351.672V194.242C351.672 194.542 351.658 194.792 351.63 194.99H351.683C351.856 194.71 352.102 194.491 352.42 194.332C352.742 194.169 353.109 194.088 353.519 194.088C354.23 194.088 354.763 194.258 355.116 194.597C355.474 194.933 355.652 195.469 355.652 196.205V200H354.771ZM359.925 200.106C359.065 200.106 358.386 199.844 357.887 199.321C357.391 198.797 357.144 198.07 357.144 197.139C357.144 196.202 357.374 195.457 357.834 194.905C358.297 194.353 358.918 194.077 359.697 194.077C360.425 194.077 361.002 194.318 361.427 194.799C361.851 195.277 362.064 195.908 362.064 196.694V197.251H358.057C358.074 197.934 358.246 198.452 358.571 198.806C358.901 199.16 359.362 199.337 359.957 199.337C360.583 199.337 361.202 199.206 361.814 198.944V199.729C361.503 199.864 361.207 199.959 360.928 200.016C360.652 200.076 360.318 200.106 359.925 200.106ZM359.686 194.815C359.219 194.815 358.846 194.967 358.566 195.271C358.29 195.576 358.127 195.997 358.078 196.534H361.119C361.119 195.979 360.995 195.554 360.747 195.261C360.5 194.963 360.146 194.815 359.686 194.815ZM367.148 200L366.973 199.172H366.93C366.64 199.537 366.35 199.784 366.06 199.915C365.773 200.042 365.414 200.106 364.983 200.106C364.406 200.106 363.953 199.958 363.624 199.66C363.298 199.363 363.136 198.94 363.136 198.392C363.136 197.217 364.075 196.602 365.954 196.545L366.941 196.513V196.152C366.941 195.696 366.842 195.36 366.644 195.144C366.449 194.924 366.136 194.815 365.704 194.815C365.22 194.815 364.671 194.963 364.059 195.261L363.788 194.587C364.075 194.431 364.388 194.309 364.728 194.22C365.071 194.132 365.414 194.088 365.757 194.088C366.451 194.088 366.964 194.242 367.297 194.549C367.633 194.857 367.801 195.351 367.801 196.03V200H367.148ZM365.158 199.379C365.706 199.379 366.136 199.229 366.447 198.928C366.762 198.627 366.92 198.206 366.92 197.665V197.139L366.039 197.177C365.338 197.201 364.832 197.311 364.521 197.506C364.213 197.697 364.059 197.996 364.059 198.403C364.059 198.721 364.155 198.963 364.346 199.13C364.54 199.296 364.811 199.379 365.158 199.379ZM371.5 199.379C371.656 199.379 371.806 199.368 371.951 199.347C372.096 199.322 372.211 199.298 372.296 199.273V199.947C372.2 199.993 372.059 200.03 371.871 200.058C371.687 200.09 371.521 200.106 371.373 200.106C370.247 200.106 369.685 199.514 369.685 198.328V194.868H368.852V194.443L369.685 194.077L370.056 192.835H370.566V194.183H372.254V194.868H370.566V198.291C370.566 198.641 370.649 198.91 370.815 199.098C370.982 199.285 371.21 199.379 371.5 199.379Z" fill="black"/>
<path d="M346.801 210.967C349.894 213.266 353.647 214.504 357.5 214.5C367.426 214.5 375.5 206.426 375.5 196.5C375.5 192.496 374.186 188.794 371.967 185.801L346.801 210.967ZM343.545 207.858L368.858 182.545C365.653 179.925 361.64 178.496 357.5 178.5C347.575 178.5 339.5 186.575 339.5 196.5C339.5 200.803 341.019 204.757 343.545 207.858ZM357.5 174C369.906 174 380 184.093 380 196.5C380 208.904 369.909 219 357.5 219C345.093 219 335 208.906 335 196.5C335 184.091 345.093 174 357.5 174Z" fill="#E94A47" fill-opacity="0.5"/>
<defs>
<linearGradient id="paint0_linear_2266_9980" x1="243.137" y1="161.526" x2="263.998" y2="161.526" gradientUnits="userSpaceOnUse">
<stop offset="0.1291" stop-color="#428DFC"/>
<stop offset="0.9987" stop-color="#1D72D8"/>
</linearGradient>
<linearGradient id="paint1_linear_2266_9980" x1="243.295" y1="153.184" x2="256.639" y2="137.556" gradientUnits="userSpaceOnUse">
<stop stop-color="#23286B"/>
<stop offset="1" stop-color="#151A4F"/>
</linearGradient>
<linearGradient id="paint2_linear_2266_9980" x1="237.28" y1="108.406" x2="223.627" y2="107.061" gradientUnits="userSpaceOnUse">
<stop stop-color="#FFBEB6"/>
<stop offset="1" stop-color="#F2A19C"/>
</linearGradient>
<linearGradient id="paint3_linear_2266_9980" x1="216.123" y1="80.8617" x2="210.065" y2="98.4179" gradientUnits="userSpaceOnUse">
<stop stop-color="#A1C3FC"/>
<stop offset="0.6955" stop-color="#81AEF2"/>
<stop offset="1" stop-color="#78A9EF"/>
</linearGradient>
<linearGradient id="paint4_linear_2266_9980" x1="230.74" y1="78.1977" x2="230.252" y2="74.3949" gradientUnits="userSpaceOnUse">
<stop stop-color="#FFBEB6"/>
<stop offset="1" stop-color="#F2A19C"/>
</linearGradient>
<linearGradient id="paint5_linear_2266_9980" x1="348.749" y1="309.597" x2="366.038" y2="309.597" gradientUnits="userSpaceOnUse">
<stop stop-color="#A1C3FC"/>
<stop offset="1" stop-color="#8AB8FD"/>
</linearGradient>
<linearGradient id="paint6_linear_2266_9980" x1="332" y1="246.103" x2="346.205" y2="246.103" gradientUnits="userSpaceOnUse">
<stop stop-color="#A1C3FC"/>
<stop offset="1" stop-color="#78A9EF"/>
</linearGradient>
<linearGradient id="paint7_linear_2266_9980" x1="336.084" y1="247.773" x2="342.085" y2="244.453" gradientUnits="userSpaceOnUse">
<stop offset="0.1291" stop-color="#428DFC"/>
<stop offset="0.9987" stop-color="#1D72D8"/>
</linearGradient>
<linearGradient id="paint8_linear_2266_9980" x1="324" y1="284.575" x2="349.151" y2="284.575" gradientUnits="userSpaceOnUse">
<stop stop-color="#A1C3FC"/>
<stop offset="1" stop-color="#78A9EF"/>
</linearGradient>
<linearGradient id="paint9_linear_2266_9980" x1="331.23" y1="287.533" x2="341.855" y2="281.654" gradientUnits="userSpaceOnUse">
<stop offset="0.1291" stop-color="#428DFC"/>
<stop offset="0.9987" stop-color="#1D72D8"/>
</linearGradient>
<linearGradient id="paint10_linear_2266_9980" x1="354" y1="273.076" x2="404.151" y2="273.076" gradientUnits="userSpaceOnUse">
<stop stop-color="#A1C3FC"/>
<stop offset="1" stop-color="#78A9EF"/>
</linearGradient>
<linearGradient id="paint11_linear_2266_9980" x1="368.418" y1="278.973" x2="389.603" y2="267.249" gradientUnits="userSpaceOnUse">
<stop offset="0.1291" stop-color="#428DFC"/>
<stop offset="0.9987" stop-color="#1D72D8"/>
</linearGradient>
<linearGradient id="paint12_linear_2266_9980" x1="60703.3" y1="344637" x2="115696" y2="340739" gradientUnits="userSpaceOnUse">
<stop stop-color="#23286B"/>
<stop offset="1" stop-color="#151A4F"/>
</linearGradient>
<linearGradient id="paint13_linear_2266_9980" x1="63885" y1="344358" x2="118890" y2="340459" gradientUnits="userSpaceOnUse">
<stop stop-color="#23286B"/>
<stop offset="1" stop-color="#151A4F"/>
</linearGradient>
<linearGradient id="paint14_linear_2266_9980" x1="78176.6" y1="639403" x2="56484.5" y2="620336" gradientUnits="userSpaceOnUse">
<stop stop-color="#FFBEB6"/>
<stop offset="1" stop-color="#F2A19C"/>
</linearGradient>
<linearGradient id="paint15_linear_2266_9980" x1="439.157" y1="294.358" x2="1250.18" y2="-1534.34" gradientUnits="userSpaceOnUse">
<stop offset="0.09" stop-color="#EEEEEE"/>
<stop offset="0.82" stop-color="#D6D7D8"/>
</linearGradient>
<linearGradient id="paint16_linear_2266_9980" x1="10871.9" y1="63444.7" x2="1723.7" y2="56387.1" gradientUnits="userSpaceOnUse">
<stop offset="0.09" stop-color="#EEEEEE"/>
<stop offset="0.82" stop-color="#D6D7D8"/>
</linearGradient>
<linearGradient id="paint17_linear_2266_9980" x1="122239" y1="1.16915e+06" x2="99064.1" y2="1.22513e+06" gradientUnits="userSpaceOnUse">
<stop stop-color="#23286B"/>
<stop offset="1" stop-color="#151A4F"/>
</linearGradient>
<linearGradient id="paint18_linear_2266_9980" x1="45787.4" y1="191867" x2="45794.3" y2="186260" gradientUnits="userSpaceOnUse">
<stop stop-color="#FFBEB6"/>
<stop offset="1" stop-color="#F2A19C"/>
</linearGradient>
</defs>
</svg>
