<svg width="364" height="126" viewBox="0 0 364 126" fill="none" xmlns="http://www.w3.org/2000/svg">
<path d="M92.875 60.5469C89.0104 60.5469 86.0026 59.4714 83.8516 57.3203C81.7005 55.151 80.625 52.1432 80.625 48.2969C80.625 44.4505 81.3815 40.987 82.8945 37.9062C84.4258 34.8073 86.513 32.4648 89.1562 30.8789C91.8177 29.2747 94.8893 28.4727 98.3711 28.4727C101.835 28.4727 104.56 29.2565 106.547 30.8242C108.534 32.3919 109.527 34.4792 109.527 37.0859C109.527 40.75 108.096 43.5664 105.234 45.5352C102.391 47.4857 98.2708 48.4609 92.875 48.4609H91.2617V48.8984C91.2617 51.5964 92.7565 52.9453 95.7461 52.9453C97.1862 52.9453 98.599 52.7357 99.9844 52.3164C101.37 51.8789 102.947 51.1953 104.715 50.2656V57.7578C102.673 58.7969 100.768 59.526 99 59.9453C97.2318 60.3464 95.1901 60.5469 92.875 60.5469ZM97.1953 35.6367C96.0833 35.6367 95.0443 36.2747 94.0781 37.5508C93.112 38.8086 92.5286 40.2396 92.3281 41.8438H93.1211C95.1081 41.8438 96.6667 41.4701 97.7969 40.7227C98.9271 39.957 99.4922 38.9544 99.4922 37.7148C99.4922 37.1315 99.3099 36.6393 98.9453 36.2383C98.5807 35.8372 97.9974 35.6367 97.1953 35.6367ZM137.473 47.7227C137.473 51.7695 136.133 54.9232 133.453 57.1836C130.773 59.4258 127.036 60.5469 122.242 60.5469C120.237 60.5469 118.341 60.3281 116.555 59.8906C114.768 59.4349 113.228 58.7786 111.934 57.9219V48.3516C113.465 49.3177 115.215 50.1289 117.184 50.7852C119.171 51.4414 120.966 51.7695 122.57 51.7695C123.919 51.7695 124.94 51.487 125.633 50.9219C126.326 50.3568 126.672 49.5547 126.672 48.5156C126.672 48.0234 126.562 47.5677 126.344 47.1484C126.125 46.7109 125.815 46.2826 125.414 45.8633C125.013 45.4258 123.938 44.4779 122.188 43.0195C120.055 41.306 118.505 39.556 117.539 37.7695C116.573 35.9831 116.09 34.0234 116.09 31.8906C116.09 29.5026 116.682 27.3607 117.867 25.4648C119.07 23.5508 120.757 22.0742 122.926 21.0352C125.113 19.9779 127.556 19.4492 130.254 19.4492C134.611 19.4492 138.53 20.4245 142.012 22.375L138.32 30.4961C135.203 28.8919 132.551 28.0898 130.363 28.0898C129.197 28.0898 128.294 28.3451 127.656 28.8555C127.036 29.3659 126.727 30.1133 126.727 31.0977C126.727 31.9909 127.027 32.8294 127.629 33.6133C128.249 34.3789 129.415 35.4089 131.129 36.7031C133.28 38.2891 134.875 39.957 135.914 41.707C136.953 43.457 137.473 45.4622 137.473 47.7227ZM159.238 60.5469C156.632 60.5469 154.526 59.2253 152.922 56.582H152.703C152.484 59.6081 151.974 62.9896 151.172 66.7266L149.777 73.4531H139.195L148.602 29.0195H157.051L156.723 32.4922H156.941C158.691 29.8125 161.043 28.4727 163.996 28.4727C166.84 28.4727 169.073 29.4935 170.695 31.5352C172.318 33.5586 173.129 36.3477 173.129 39.9023C173.129 43.6029 172.491 47.0938 171.215 50.375C169.939 53.638 168.243 56.1536 166.129 57.9219C164.033 59.6719 161.736 60.5469 159.238 60.5469ZM159.977 36.9766C159.065 36.9766 158.199 37.4961 157.379 38.5352C156.559 39.5742 155.902 40.9779 155.41 42.7461C154.936 44.5143 154.699 46.3099 154.699 48.1328C154.699 49.3177 154.909 50.2656 155.328 50.9766C155.747 51.6875 156.34 52.043 157.105 52.043C157.98 52.043 158.819 51.5234 159.621 50.4844C160.423 49.4453 161.07 48.0508 161.562 46.3008C162.073 44.5508 162.328 42.7552 162.328 40.9141C162.328 38.2891 161.544 36.9766 159.977 36.9766ZM189.672 60.5469C185.862 60.5469 182.918 59.5169 180.84 57.457C178.78 55.3971 177.75 52.4531 177.75 48.625C177.75 44.7969 178.47 41.3424 179.91 38.2617C181.368 35.1628 183.41 32.7565 186.035 31.043C188.66 29.3294 191.723 28.4727 195.223 28.4727C199.033 28.4727 201.967 29.5026 204.027 31.5625C206.105 33.6224 207.145 36.5664 207.145 40.3945C207.145 44.2227 206.415 47.6862 204.957 50.7852C203.517 53.8659 201.484 56.263 198.859 57.9766C196.234 59.6901 193.172 60.5469 189.672 60.5469ZM193.992 36.4297C192.497 36.4297 191.212 37.7057 190.137 40.2578C189.079 42.7917 188.551 45.6992 188.551 48.9805C188.551 51.4049 189.316 52.6172 190.848 52.6172C192.324 52.6172 193.609 51.3503 194.703 48.8164C195.797 46.2826 196.344 43.3659 196.344 40.0664C196.344 38.8633 196.134 37.9609 195.715 37.3594C195.296 36.7396 194.721 36.4297 193.992 36.4297ZM234.105 28.4727C235.126 28.4727 235.855 28.5456 236.293 28.6914L233.996 39.1641C233.012 38.763 231.891 38.5625 230.633 38.5625C228.755 38.5625 227.251 39.2096 226.121 40.5039C225.009 41.7799 224.161 43.7396 223.578 46.3828L220.68 60H210.098L216.633 29.0195H225.082L224.59 34.1875H224.809C225.993 32.1458 227.279 30.6875 228.664 29.8125C230.049 28.9193 231.863 28.4727 234.105 28.4727ZM249.473 52.043C250.676 52.043 252.344 51.6146 254.477 50.7578V58.7148C251.997 59.9362 248.898 60.5469 245.18 60.5469C242.482 60.5469 240.431 59.9727 239.027 58.8242C237.642 57.6576 236.949 55.7526 236.949 53.1094C236.949 51.724 237.168 50.0104 237.605 47.9688L239.902 36.9766H235.691L236.812 31.7812L242.773 29.375L246.52 22.8125H253.574L252.234 29.0195H260.109L258.387 36.9766H250.484L248.188 47.4492C247.896 48.8529 247.75 49.8099 247.75 50.3203C247.75 51.4688 248.324 52.043 249.473 52.043ZM283.926 49.2539C283.926 52.8815 282.741 55.6706 280.371 57.6211C278.001 59.5716 274.592 60.5469 270.145 60.5469C266.098 60.5469 262.853 59.9727 260.41 58.8242V50.3203C262.087 51.2318 263.646 51.8698 265.086 52.2344C266.526 52.599 267.984 52.7812 269.461 52.7812C270.701 52.7812 271.63 52.6172 272.25 52.2891C272.87 51.9427 273.18 51.4688 273.18 50.8672C273.18 50.2292 272.943 49.6823 272.469 49.2266C271.995 48.7526 270.81 47.9779 268.914 46.9023C266.982 45.8451 265.569 44.6328 264.676 43.2656C263.801 41.8984 263.363 40.2305 263.363 38.2617C263.363 35.1263 264.466 32.7109 266.672 31.0156C268.878 29.3203 272.013 28.4727 276.078 28.4727C278.12 28.4727 279.979 28.7096 281.656 29.1836C283.333 29.6576 284.965 30.3867 286.551 31.3711L283.242 38.2617C282.039 37.4779 280.79 36.8581 279.496 36.4023C278.22 35.9284 277.117 35.6914 276.188 35.6914C274.802 35.6914 274.109 36.3112 274.109 37.5508C274.109 38.0794 274.392 38.5443 274.957 38.9453C275.54 39.3464 276.479 39.8659 277.773 40.5039C281.875 42.5456 283.926 45.4622 283.926 49.2539Z" fill="black"/>
<path d="M83.1562 119.572C82.0104 119.572 80.9323 119.431 79.9219 119.15V114.416C80.5781 114.603 81.1875 114.697 81.75 114.697C82.5208 114.697 83.1042 114.541 83.5 114.228C83.8958 113.916 84.1667 113.421 84.3125 112.744L87.2812 98.7283H84.6875L85.3594 95.7595L88.3125 94.2595L88.5625 93.1033C89.0104 91.1033 89.7708 89.6554 90.8438 88.7595C91.9271 87.8533 93.3646 87.4001 95.1562 87.4001C95.9896 87.4001 96.7969 87.4835 97.5781 87.6501C98.3594 87.8168 99.026 88.0356 99.5781 88.3064L98.0312 92.4314C97.3646 92.1085 96.6927 91.947 96.0156 91.947C95.651 91.947 95.3385 92.046 95.0781 92.2439C94.8281 92.4314 94.6615 92.7074 94.5781 93.072L94.3281 94.1814H97.625L96.5938 98.7283H93.3281L90.125 113.713C89.6771 115.713 88.875 117.187 87.7188 118.135C86.5729 119.093 85.0521 119.572 83.1562 119.572ZM104.438 112.197C102.26 112.197 100.578 111.608 99.3906 110.431C98.2135 109.254 97.625 107.572 97.625 105.385C97.625 103.197 98.0365 101.223 98.8594 99.4626C99.6927 97.6918 100.859 96.3168 102.359 95.3376C103.859 94.3585 105.609 93.8689 107.609 93.8689C109.786 93.8689 111.464 94.4574 112.641 95.6345C113.828 96.8116 114.422 98.4939 114.422 100.681C114.422 102.869 114.005 104.848 113.172 106.619C112.349 108.379 111.188 109.749 109.688 110.728C108.188 111.707 106.438 112.197 104.438 112.197ZM106.906 98.4158C106.052 98.4158 105.318 99.1449 104.703 100.603C104.099 102.051 103.797 103.713 103.797 105.588C103.797 106.973 104.234 107.666 105.109 107.666C105.953 107.666 106.688 106.942 107.312 105.494C107.938 104.046 108.25 102.379 108.25 100.494C108.25 99.8064 108.13 99.2908 107.891 98.947C107.651 98.5929 107.323 98.4158 106.906 98.4158ZM129.828 93.8689C130.411 93.8689 130.828 93.9106 131.078 93.9939L129.766 99.9783C129.203 99.7491 128.562 99.6345 127.844 99.6345C126.771 99.6345 125.911 100.004 125.266 100.744C124.63 101.473 124.146 102.593 123.812 104.103L122.156 111.885H116.109L119.844 94.1814H124.672L124.391 97.1345H124.516C125.193 95.9679 125.927 95.1345 126.719 94.6345C127.51 94.1241 128.547 93.8689 129.828 93.8689ZM146.375 112.197C144.167 112.197 142.448 111.582 141.219 110.353C139.99 109.114 139.375 107.395 139.375 105.197C139.375 102.999 139.807 101.02 140.672 99.2595C141.547 97.4887 142.74 96.1501 144.25 95.2439C145.771 94.3272 147.526 93.8689 149.516 93.8689C151.495 93.8689 153.052 94.3168 154.188 95.2126C155.323 96.1085 155.891 97.3012 155.891 98.7908C155.891 100.885 155.073 102.494 153.438 103.619C151.812 104.733 149.458 105.291 146.375 105.291H145.453V105.541C145.453 107.082 146.307 107.853 148.016 107.853C148.839 107.853 149.646 107.733 150.438 107.494C151.229 107.244 152.13 106.853 153.141 106.322V110.603C151.974 111.197 150.885 111.614 149.875 111.853C148.865 112.082 147.698 112.197 146.375 112.197ZM148.844 97.9626C148.208 97.9626 147.615 98.3272 147.062 99.0564C146.51 99.7751 146.177 100.593 146.062 101.51H146.516C147.651 101.51 148.542 101.296 149.188 100.869C149.833 100.431 150.156 99.8585 150.156 99.1501C150.156 98.8168 150.052 98.5356 149.844 98.3064C149.635 98.0772 149.302 97.9626 148.844 97.9626ZM160.234 111.885L157.969 94.1814H163.984L164.406 103.603C164.406 104.364 164.365 104.978 164.281 105.447H164.406C164.417 105.301 164.51 104.973 164.688 104.463C164.865 103.952 165.052 103.483 165.25 103.056C165.448 102.629 166.828 99.671 169.391 94.1814H175.859L166.297 111.885H160.234ZM182.312 112.197C180.104 112.197 178.385 111.582 177.156 110.353C175.927 109.114 175.312 107.395 175.312 105.197C175.312 102.999 175.745 101.02 176.609 99.2595C177.484 97.4887 178.677 96.1501 180.188 95.2439C181.708 94.3272 183.464 93.8689 185.453 93.8689C187.432 93.8689 188.99 94.3168 190.125 95.2126C191.26 96.1085 191.828 97.3012 191.828 98.7908C191.828 100.885 191.01 102.494 189.375 103.619C187.75 104.733 185.396 105.291 182.312 105.291H181.391V105.541C181.391 107.082 182.245 107.853 183.953 107.853C184.776 107.853 185.583 107.733 186.375 107.494C187.167 107.244 188.068 106.853 189.078 106.322V110.603C187.911 111.197 186.823 111.614 185.812 111.853C184.802 112.082 183.635 112.197 182.312 112.197ZM184.781 97.9626C184.146 97.9626 183.552 98.3272 183 99.0564C182.448 99.7751 182.115 100.593 182 101.51H182.453C183.589 101.51 184.479 101.296 185.125 100.869C185.771 100.431 186.094 99.8585 186.094 99.1501C186.094 98.8168 185.99 98.5356 185.781 98.3064C185.573 98.0772 185.24 97.9626 184.781 97.9626ZM206.609 93.8689C207.193 93.8689 207.609 93.9106 207.859 93.9939L206.547 99.9783C205.984 99.7491 205.344 99.6345 204.625 99.6345C203.552 99.6345 202.693 100.004 202.047 100.744C201.411 101.473 200.927 102.593 200.594 104.103L198.938 111.885H192.891L196.625 94.1814H201.453L201.172 97.1345H201.297C201.974 95.9679 202.708 95.1345 203.5 94.6345C204.292 94.1241 205.328 93.8689 206.609 93.8689ZM207.812 94.1814H213.891L214.562 102.963L214.594 103.931V105.291H214.719C215.104 103.916 215.365 103.056 215.5 102.713C215.635 102.358 216.88 99.5147 219.234 94.1814H225.734L215.266 114.119C214.266 116.046 213.104 117.437 211.781 118.291C210.458 119.145 208.839 119.572 206.922 119.572C205.964 119.572 205.161 119.483 204.516 119.306V114.51C204.995 114.635 205.562 114.697 206.219 114.697C207.125 114.697 207.865 114.504 208.438 114.119C209.021 113.744 209.536 113.15 209.984 112.338L210.344 111.697L207.812 94.1814ZM232.062 112.197C229.885 112.197 228.203 111.608 227.016 110.431C225.839 109.254 225.25 107.572 225.25 105.385C225.25 103.197 225.661 101.223 226.484 99.4626C227.318 97.6918 228.484 96.3168 229.984 95.3376C231.484 94.3585 233.234 93.8689 235.234 93.8689C237.411 93.8689 239.089 94.4574 240.266 95.6345C241.453 96.8116 242.047 98.4939 242.047 100.681C242.047 102.869 241.63 104.848 240.797 106.619C239.974 108.379 238.812 109.749 237.312 110.728C235.812 111.707 234.062 112.197 232.062 112.197ZM234.531 98.4158C233.677 98.4158 232.943 99.1449 232.328 100.603C231.724 102.051 231.422 103.713 231.422 105.588C231.422 106.973 231.859 107.666 232.734 107.666C233.578 107.666 234.312 106.942 234.938 105.494C235.562 104.046 235.875 102.379 235.875 100.494C235.875 99.8064 235.755 99.2908 235.516 98.947C235.276 98.5929 234.948 98.4158 234.531 98.4158ZM255.656 100.01C255.656 99.5616 255.542 99.2283 255.312 99.0095C255.083 98.7804 254.807 98.6658 254.484 98.6658C253.891 98.6658 253.339 99.0356 252.828 99.7751C252.328 100.515 251.917 101.671 251.594 103.244L249.781 111.885H243.734L247.469 94.1814H252.297L252.109 96.6501H252.234C252.807 95.6606 253.479 94.9522 254.25 94.5251C255.031 94.0876 255.984 93.8689 257.109 93.8689C258.578 93.8689 259.724 94.3168 260.547 95.2126C261.37 96.0981 261.781 97.3272 261.781 98.9001C261.781 100.004 261.651 101.197 261.391 102.478L259.406 111.885H253.359L255.375 102.228C255.562 101.416 255.656 100.676 255.656 100.01ZM271.594 112.197C269.385 112.197 267.667 111.582 266.438 110.353C265.208 109.114 264.594 107.395 264.594 105.197C264.594 102.999 265.026 101.02 265.891 99.2595C266.766 97.4887 267.958 96.1501 269.469 95.2439C270.99 94.3272 272.745 93.8689 274.734 93.8689C276.714 93.8689 278.271 94.3168 279.406 95.2126C280.542 96.1085 281.109 97.3012 281.109 98.7908C281.109 100.885 280.292 102.494 278.656 103.619C277.031 104.733 274.677 105.291 271.594 105.291H270.672V105.541C270.672 107.082 271.526 107.853 273.234 107.853C274.057 107.853 274.865 107.733 275.656 107.494C276.448 107.244 277.349 106.853 278.359 106.322V110.603C277.193 111.197 276.104 111.614 275.094 111.853C274.083 112.082 272.917 112.197 271.594 112.197ZM274.062 97.9626C273.427 97.9626 272.833 98.3272 272.281 99.0564C271.729 99.7751 271.396 100.593 271.281 101.51H271.734C272.87 101.51 273.76 101.296 274.406 100.869C275.052 100.431 275.375 99.8585 275.375 99.1501C275.375 98.8168 275.271 98.5356 275.062 98.3064C274.854 98.0772 274.521 97.9626 274.062 97.9626Z" fill="black"/>
<path fill-rule="evenodd" clip-rule="evenodd" d="M56.115 42.7774C56.115 41.6162 55.6537 40.5026 54.8326 39.6815L32.3372 17.1864C25.2683 10.1172 13.807 10.1172 6.73787 17.1864C-0.331303 24.2555 -0.331303 35.7168 6.73787 42.7859L23.7559 59.804C25.7435 61.7917 26.0171 64.9197 24.405 67.2224L3.27523 97.3987C-2.45895 105.588 -0.468832 116.875 7.72038 122.609C15.9096 128.344 27.1969 126.353 32.9311 118.164L55.3231 86.1852C55.8385 85.4492 56.115 84.5724 56.115 83.6739V42.7774ZM22.2688 36.3841H18.588C18.1279 36.3841 17.8979 36.154 17.8979 35.6939V32.4743H14.4476C13.9876 32.4743 13.7575 32.2443 13.7575 31.7842V28.3335C13.7575 27.8734 13.9876 27.6434 14.4476 27.6434H17.8979V24.4217C17.8979 23.9616 18.1279 23.7315 18.588 23.7315H22.2688C22.7289 23.7315 22.9589 23.9616 22.9589 24.4217V27.6434H26.8701C27.3302 27.6434 27.5603 27.8734 27.5603 28.3335V31.5542C27.5603 32.0142 27.1002 32.4743 26.6401 32.4743H22.9589V35.6939C22.9589 36.154 22.7289 36.3841 22.2688 36.3841Z" fill="url(#paint0_linear)"/>
<path fill-rule="evenodd" clip-rule="evenodd" d="M307 42.7774C307 41.6162 307.461 40.5026 308.282 39.6815L330.778 17.1864C337.847 10.1172 349.308 10.1172 356.377 17.1864C363.446 24.2555 363.446 35.7168 356.377 42.7859L339.359 59.804C337.371 61.7917 337.098 64.9197 338.71 67.2224L359.84 97.3987C365.574 105.588 363.584 116.875 355.395 122.609C347.205 128.344 335.918 126.353 330.184 118.164L307.792 86.1852C307.276 85.4492 307 84.5724 307 83.6739V42.7774ZM336.682 32.3052C338.08 32.3052 339.213 31.1723 339.213 29.7747C339.213 28.3772 338.08 27.2442 336.682 27.2442C335.285 27.2442 334.152 28.3772 334.152 29.7747C334.152 31.1723 335.285 32.3052 336.682 32.3052ZM352.556 29.7747C352.556 31.1722 351.423 32.3052 350.025 32.3052C348.627 32.3052 347.495 31.1722 347.495 29.7747C347.495 28.3771 348.627 27.2442 350.025 27.2442C351.423 27.2442 352.556 28.3771 352.556 29.7747ZM343.354 25.6343C344.751 25.6343 345.884 24.5014 345.884 23.1038C345.884 21.7063 344.751 20.5733 343.354 20.5733C341.956 20.5733 340.823 21.7063 340.823 23.1038C340.823 24.5014 341.956 25.6343 343.354 25.6343ZM345.884 36.4463C345.884 37.8439 344.751 38.9768 343.354 38.9768C341.956 38.9768 340.823 37.8439 340.823 36.4463C340.823 35.0487 341.956 33.9158 343.354 33.9158C344.751 33.9158 345.884 35.0487 345.884 36.4463Z" fill="url(#paint1_linear)"/>
<defs>
<linearGradient id="paint0_linear" x1="28.0575" y1="11.8845" x2="28.0575" y2="125.885" gradientUnits="userSpaceOnUse">
<stop stop-color="#94C8F7"/>
<stop offset="1" stop-color="#4685E0"/>
</linearGradient>
<linearGradient id="paint1_linear" x1="335.057" y1="11.8845" x2="335.057" y2="125.885" gradientUnits="userSpaceOnUse">
<stop stop-color="#F77BB6"/>
<stop offset="1" stop-color="#ED4F58"/>
</linearGradient>
</defs>
</svg>
