<svg width="353" height="193" viewBox="0 0 353 193" fill="none" xmlns="http://www.w3.org/2000/svg">
<g filter="url(#filter0_d)">
<path d="M36.9673 30.1277C32.6791 30.1277 29.3337 31.8917 26.9311 35.4195C24.5285 38.917 23.3272 43.7526 23.3272 49.9263C23.3272 62.7604 28.2085 69.1775 37.9709 69.1775C40.9209 69.1775 43.7797 68.7669 46.5472 67.9458C49.3148 67.1246 52.0975 66.1362 54.8955 64.9806V80.2172C49.33 82.6807 43.0346 83.9124 36.0093 83.9124C25.9427 83.9124 18.2179 80.9928 12.8349 75.1536C7.48228 69.3143 4.80598 60.8749 4.80598 49.8351C4.80598 42.9314 6.09851 36.8641 8.68358 31.6332C11.2991 26.4022 15.0398 22.3877 19.9058 19.5898C24.8022 16.7614 30.5502 15.3472 37.1497 15.3472C44.3575 15.3472 51.246 16.9135 57.8151 20.046L52.2952 34.2334C49.8318 33.0778 47.3684 32.1046 44.905 31.3138C42.4415 30.5231 39.7956 30.1277 36.9673 30.1277ZM107.54 83H67.9425V16.3052H107.54V30.7664H85.9619V41.2587H105.943V55.7199H85.9619V68.3107H107.54V83ZM119.218 83V16.3052H137.238V68.4476H162.921V83H119.218ZM213.193 83H173.596V16.3052H213.193V30.7664H191.615V41.2587H211.596V55.7199H191.615V68.3107H213.193V83ZM242.891 58.7308V83H224.871V16.3052H246.723C264.849 16.3052 273.912 22.8743 273.912 36.0126C273.912 43.7374 270.14 49.7134 262.598 53.9408L282.032 83H261.595L247.453 58.7308H242.891ZM242.891 45.182H246.267C252.562 45.182 255.71 42.3992 255.71 36.8337C255.71 32.2414 252.623 29.9453 246.449 29.9453H242.891V45.182ZM348.179 83H327.331L314.33 62.1522L301.465 83H281.074L303.199 48.8771L282.397 16.3052H302.378L314.421 36.925L326.008 16.3052H346.582L325.461 50.2913L348.179 83Z" fill="white"/>
<path d="M36.1477 140.669H66.5939V178.69C58.3269 181.521 49.2397 182.936 39.3322 182.936C28.4597 182.936 20.048 179.784 14.0971 173.479C8.17835 167.174 5.21897 158.184 5.21897 146.507C5.21897 135.12 8.46785 126.258 14.9656 119.921C21.4634 113.584 30.5667 110.415 42.2755 110.415C46.7146 110.415 50.8963 110.834 54.8207 111.67C58.7773 112.506 62.2192 113.568 65.1464 114.854L59.115 129.812C54.0326 127.303 48.4516 126.049 42.372 126.049C36.8071 126.049 32.4967 127.866 29.4408 131.501C26.4171 135.104 24.9053 140.266 24.9053 146.989C24.9053 153.584 26.2724 158.618 29.0066 162.092C31.7729 165.534 35.7456 167.255 40.9245 167.255C43.7552 167.255 46.3607 166.981 48.7411 166.434V155.385H36.1477V140.669ZM124.253 181.971L120.779 168.75H97.8603L94.2898 181.971H73.349L96.3646 111.139H121.793L145.098 181.971H124.253ZM116.823 153.117L113.783 141.537C113.075 138.964 112.207 135.634 111.178 131.549C110.18 127.464 109.521 124.537 109.199 122.768C108.91 124.408 108.331 127.11 107.462 130.874C106.626 134.637 104.744 142.052 101.817 153.117H116.823ZM183.505 181.971L169.078 131.163H168.644C169.32 139.816 169.657 146.539 169.657 151.332V181.971H152.77V111.429H178.15L192.866 161.513H193.252L207.679 111.429H233.107V181.971H215.592V151.042C215.592 149.434 215.608 147.649 215.64 145.687C215.705 143.724 215.93 138.915 216.316 131.26H215.882L201.648 181.971H183.505ZM290.188 181.971H248.306V111.429H290.188V126.724H267.365V137.822H288.499V153.117H267.365V166.434H290.188V181.971ZM348.668 160.548C348.668 164.923 347.558 168.815 345.338 172.225C343.119 175.602 339.918 178.24 335.736 180.138C331.555 182.003 326.649 182.936 321.02 182.936C316.323 182.936 312.383 182.615 309.198 181.971C306.014 181.296 302.701 180.138 299.259 178.497V161.513C302.894 163.379 306.673 164.842 310.598 165.904C314.522 166.933 318.125 167.448 321.406 167.448C324.237 167.448 326.311 166.965 327.63 166C328.949 165.003 329.609 163.732 329.609 162.188C329.609 161.223 329.335 160.387 328.788 159.679C328.274 158.94 327.421 158.2 326.231 157.46C325.073 156.72 321.953 155.208 316.87 152.924C312.27 150.833 308.812 148.807 306.496 146.845C304.213 144.882 302.508 142.631 301.382 140.09C300.288 137.548 299.741 134.541 299.741 131.067C299.741 124.569 302.106 119.503 306.834 115.868C311.563 112.233 318.061 110.415 326.327 110.415C333.629 110.415 341.076 112.104 348.668 115.482L342.829 130.198C336.235 127.174 330.541 125.663 325.748 125.663C323.272 125.663 321.47 126.097 320.344 126.965C319.219 127.834 318.656 128.911 318.656 130.198C318.656 131.581 319.363 132.82 320.779 133.913C322.226 135.007 326.118 137.002 332.455 139.897C338.535 142.631 342.749 145.574 345.097 148.726C347.477 151.847 348.668 155.787 348.668 160.548Z" fill="white"/>
</g>
<defs>
<filter id="filter0_d" x="1.80615" y="12.3472" width="349.861" height="173.589" filterUnits="userSpaceOnUse" color-interpolation-filters="sRGB">
<feFlood flood-opacity="0" result="BackgroundImageFix"/>
<feColorMatrix in="SourceAlpha" type="matrix" values="0 0 0 0 0 0 0 0 0 0 0 0 0 0 0 0 0 0 127 0"/>
<feOffset/>
<feGaussianBlur stdDeviation="1.5"/>
<feColorMatrix type="matrix" values="0 0 0 0 1 0 0 0 0 1 0 0 0 0 1 0 0 0 0.4 0"/>
<feBlend mode="normal" in2="BackgroundImageFix" result="effect1_dropShadow"/>
<feBlend mode="normal" in="SourceGraphic" in2="effect1_dropShadow" result="shape"/>
</filter>
</defs>
</svg>
