<?xml version="1.0" encoding="utf-8"?>
<!-- Generator: Adobe Illustrator 24.1.3, SVG Export Plug-In . SVG Version: 6.00 Build 0)  -->
<svg version="1.1"
	 id="Layer_1" xmlns:cc="http://creativecommons.org/ns#" xmlns:dc="http://purl.org/dc/elements/1.1/" xmlns:rdf="http://www.w3.org/1999/02/22-rdf-syntax-ns#"
	 xmlns="http://www.w3.org/2000/svg" xmlns:xlink="http://www.w3.org/1999/xlink" x="0px" y="0px" viewBox="0 0 200 155.6"
	 style="enable-background:new 0 0 200 155.6;" xml:space="preserve">
<style type="text/css">
	.st0{fill:#FFFFFF;}
	.st1{fill:#F79410;}
	.st2{fill:#FF5F00;}
	.st3{fill:#EB001B;}
	.st4{fill:#F79E1B;}
</style>
<g transform="translate(1565.7 -1106.8)">
	<g transform="matrix(3.1437 0 0 3.1437 -4835.7 -1027.6)">
		<g transform="matrix(1.25 0 0 -1.25 1102.5 727.74)">
			<path class="st0" d="M0,0v-0.1h0.1c0,0,0,0,0.1,0c0,0,0,0,0,0s0,0,0,0C0.1,0,0.1,0,0,0L0,0z M0.1,0.1c0,0,0.1,0,0.1,0
				s0-0.1,0-0.1c0,0,0-0.1,0-0.1c0,0-0.1,0-0.1,0l0.1-0.1H0.2L0-0.2h0v-0.1h-0.1v0.4L0.1,0.1z M0.1-0.4c0,0,0.1,0,0.1,0
				c0,0,0.1,0,0.1,0.1s0.1,0.1,0.1,0.1c0,0,0,0.1,0,0.1s0,0.1,0,0.1c0,0,0,0.1-0.1,0.1S0.2,0.2,0.2,0.2c0,0-0.1,0-0.1,0
				s-0.1,0-0.1,0c0,0-0.1,0-0.1-0.1S-0.2,0-0.2,0c0,0,0-0.1,0-0.1s0-0.1,0-0.1c0,0,0-0.1,0.1-0.1s0.1-0.1,0.1-0.1
				C0-0.4,0-0.4,0.1-0.4 M0.1,0.3c0.1,0,0.1,0,0.2,0c0.1,0,0.1-0.1,0.1-0.1c0,0,0.1-0.1,0.1-0.1c0,0,0-0.1,0-0.2s0-0.1,0-0.2
				S0.4-0.4,0.4-0.4c0,0-0.1-0.1-0.1-0.1c-0.1,0-0.1,0-0.2,0c-0.1,0-0.1,0-0.2,0s-0.1,0.1-0.1,0.1c0,0-0.1,0.1-0.1,0.1s0,0.1,0,0.2
				s0,0.1,0,0.2c0,0.1,0.1,0.1,0.1,0.1c0,0,0.1,0.1,0.1,0.1C0,0.3,0,0.3,0.1,0.3 M-38.9,1.8c0,0.7,0.5,1.3,1.3,1.3
				c0.8,0,1.3-0.6,1.3-1.3s-0.5-1.3-1.3-1.3C-38.4,0.4-38.9,1-38.9,1.8 M-35.5,1.8v2.1h-0.9V3.4C-36.7,3.7-37.1,4-37.7,4
				c-1.2,0-2.1-0.9-2.1-2.2c0-1.3,0.9-2.2,2.1-2.2c0.6,0,1,0.2,1.3,0.6v-0.5h0.9V1.8z M-4.8,1.8c0,0.7,0.5,1.3,1.3,1.3
				c0.8,0,1.3-0.6,1.3-1.3s-0.5-1.3-1.3-1.3C-4.3,0.4-4.8,1-4.8,1.8 M-1.4,1.8v3.8h-0.9V3.4C-2.6,3.7-3.1,4-3.7,4
				c-1.2,0-2.1-0.9-2.1-2.2c0-1.3,0.9-2.2,2.1-2.2c0.6,0,1,0.2,1.3,0.6v-0.5h0.9V1.8z M-24.2,3.2c0.6,0,1-0.4,1.1-1h-2.2
				C-25.3,2.7-24.9,3.2-24.2,3.2 M-24.2,4c-1.2,0-2.1-0.9-2.1-2.2c0-1.3,0.9-2.2,2.1-2.2c0.6,0,1.2,0.2,1.7,0.6l-0.4,0.7
				c-0.4-0.3-0.8-0.4-1.2-0.4c-0.6,0-1.1,0.3-1.2,1h3.1c0,0.1,0,0.2,0,0.3C-22.2,3.1-23.1,4-24.2,4 M-13.3,1.8
				c0,0.7,0.5,1.3,1.3,1.3c0.8,0,1.3-0.6,1.3-1.3s-0.5-1.3-1.3-1.3C-12.8,0.4-13.3,1-13.3,1.8 M-9.9,1.8v2.1h-0.9V3.4
				C-11.1,3.7-11.5,4-12.1,4c-1.2,0-2.1-0.9-2.1-2.2c0-1.3,0.9-2.2,2.1-2.2c0.6,0,1,0.2,1.3,0.6v-0.5h0.9V1.8z M-18.4,1.8
				c0-1.3,0.9-2.2,2.2-2.2c0.6,0,1,0.1,1.5,0.5l-0.4,0.7c-0.3-0.2-0.7-0.4-1.1-0.4c-0.7,0-1.3,0.5-1.3,1.3s0.5,1.3,1.3,1.3
				c0.4,0,0.8-0.1,1.1-0.4l0.4,0.7C-15.1,3.8-15.5,4-16.2,4C-17.5,4-18.4,3-18.4,1.8 M-6.7,4c-0.5,0-0.9-0.2-1.1-0.6v0.5h-0.9v-4.2
				h0.9V2c0,0.7,0.3,1.1,0.9,1.1c0.2,0,0.4,0,0.6-0.1L-6,3.9C-6.2,3.9-6.5,4-6.7,4 M-31,3.5c-0.4,0.3-1,0.4-1.7,0.4
				c-1.1,0-1.7-0.5-1.7-1.3c0-0.7,0.5-1.1,1.4-1.2l0.4-0.1c0.5-0.1,0.7-0.2,0.7-0.4c0-0.3-0.3-0.5-1-0.5c-0.6,0-1.1,0.2-1.4,0.4
				l-0.4-0.7c0.5-0.4,1.1-0.5,1.8-0.5c1.2,0,1.9,0.6,1.9,1.4c0,0.7-0.5,1.1-1.5,1.2l-0.4,0.1c-0.4,0.1-0.7,0.1-0.7,0.4
				c0,0.3,0.3,0.5,0.8,0.5c0.5,0,1-0.2,1.3-0.4L-31,3.5z M-19.3,4c-0.5,0-0.9-0.2-1.1-0.6v0.5h-0.9v-4.2h0.9V2
				c0,0.7,0.3,1.1,0.9,1.1c0.2,0,0.4,0,0.6-0.1l0.3,0.9C-18.9,3.9-19.1,4-19.3,4 M-27.1,3.9h-1.5v1.3h-0.9V3.9h-0.8V3h0.8V1.1
				c0-1,0.4-1.5,1.5-1.5c0.4,0,0.8,0.1,1.1,0.3l-0.3,0.8c-0.3-0.2-0.6-0.2-0.8-0.2c-0.5,0-0.6,0.3-0.6,0.7V3h1.5L-27.1,3.9z
				 M-40.6-0.3v2.6c0,1-0.6,1.7-1.6,1.7c-0.5,0-1.1-0.2-1.5-0.7C-44,3.7-44.5,4-45.1,4c-0.4,0-0.9-0.1-1.2-0.6v0.5h-0.9v-4.2h0.9V2
				c0,0.7,0.4,1.1,1,1.1c0.6,0,0.9-0.4,0.9-1.1v-2.3h0.9V2c0,0.7,0.4,1.1,1,1.1c0.6,0,0.9-0.4,0.9-1.1v-2.3L-40.6-0.3z"/>
		</g>
		<g transform="matrix(1.25 0 0 -1.25 1103.2 710.77)">
			<path class="st1" d="M0,0v0.6h-0.2l-0.2-0.4l-0.2,0.4h-0.2V0h0.1v0.5l0.2-0.4h0.1l0.2,0.4V0H0z M-1,0v0.5h0.2v0.1h-0.5V0.5h0.2V0
				H-1z"/>
		</g>
		<path class="st2" d="M1080.6,714h-17.2v-30.9h17.2V714z"/>
		<g transform="matrix(1.25 0 0 -1.25 1064.5 698.59)">
			<path class="st3" d="M0,0c0,5,2.3,9.5,6,12.4c-2.7,2.1-6.1,3.4-9.7,3.4c-8.7,0-15.7-7-15.7-15.7s7-15.7,15.7-15.7
				c3.7,0,7,1.3,9.7,3.4C2.3-9.5,0-5,0,0"/>
		</g>
		<g transform="matrix(1.25 0 0 -1.25 1103.8 698.59)">
			<path class="st4" d="M0,0c0-8.7-7-15.7-15.7-15.7c-3.7,0-7,1.3-9.7,3.4c3.7,2.9,6,7.3,6,12.4s-2.3,9.5-6,12.4
				c2.7,2.1,6.1,3.4,9.7,3.4C-7,15.7,0,8.7,0,0"/>
		</g>
	</g>
</g>
</svg>
