<svg xmlns="http://www.w3.org/2000/svg" viewBox="0 0 241.92 211.2"><defs><style>.cls-1{fill:#fff;}</style></defs><title>Asset 4</title><g id="Layer_2" data-name="Layer 2"><g id="Layer_2-2" data-name="Layer 2"><polygon class="cls-1" points="175.86 0.2 208.72 56.64 241.14 0 175.86 0.2"/><polygon class="cls-1" points="166.39 16.39 138.04 65.18 194.84 65.02 166.39 16.39"/><path class="cls-1" d="M28.56-151,57-199.75s-56.51-.16-56.71.29Z" transform="translate(100 200)"/><path class="cls-1" d="M104.23-53.93l-98.68.27A40.53,40.53,0,0,1-35.14-94c0-46,54.18-40.73,54.18-40.73L-17.2-197.15A105.59,105.59,0,0,0-100-93.8,105.52,105.52,0,0,0,5.79,11.2l136.13-.41Z" transform="translate(100 200)"/></g></g></svg>